<svg width="40" height="40" viewBox="0 0 40 40" fill="none" xmlns="http://www.w3.org/2000/svg">
<g clip-path="url(#clip0_127_2762)">
<rect width="40" height="40" fill="#080808"/>
<path d="M0 0H40V40H0V0Z" fill="white"/>
<path d="M7.12921 25.5555C6.8464 25.5555 6.60603 25.4613 6.40812 25.2728C6.2102 25.0795 6.11119 24.8499 6.11108 24.5841C6.11108 24.3134 6.21004 24.0815 6.40796 23.8881C6.60598 23.6948 6.8464 23.5981 7.12921 23.5981C7.41671 23.5981 7.65947 23.6948 7.85749 23.8881C8.0603 24.0815 8.16166 24.3134 8.16155 24.5841C8.16155 24.8498 8.0602 25.0794 7.85749 25.2728C7.65957 25.4614 7.41686 25.5556 7.12936 25.5556M18.4356 25.3961H16.5973L11.7539 17.7547C11.6331 17.5646 11.5312 17.3631 11.4498 17.1531H11.4073C11.445 17.3754 11.4639 17.8515 11.4639 18.5812V25.3959H9.83765V15H11.7962L16.477 22.4598C16.675 22.7692 16.8023 22.9819 16.8589 23.098H16.8872C16.8401 22.8226 16.8166 22.3561 16.8166 21.6987V15H18.4356V25.3961ZM26.3551 25.3961H20.6633V15H26.1289V16.4645H22.3461V19.4078H25.832V20.865H22.3461V23.9389H26.3551V25.3961ZM34.4445 16.4645H31.5312V25.3961H29.8484V16.4645H26.9422V15H34.4444L34.4445 16.4645Z" fill="#080808"/>
</g>
<defs>
<clipPath id="clip0_127_2762">
<rect width="40" height="40" fill="white"/>
</clipPath>
</defs>
</svg>
