<svg width="40" height="40" viewBox="0 0 40 40" fill="none" xmlns="http://www.w3.org/2000/svg">
<g clip-path="url(#clip0_368_31)">
<rect width="40" height="40" fill="#5C6370"/>
<path d="M0 0H40V40H0V0Z" fill="#5C6370"/>
<path d="M7.12945 25.5555C6.84664 25.5555 6.60628 25.4613 6.40836 25.2728C6.21044 25.0795 6.11143 24.8499 6.11133 24.5841C6.11133 24.3134 6.21029 24.0815 6.4082 23.8881C6.60622 23.6948 6.84664 23.5981 7.12945 23.5981C7.41695 23.5981 7.65971 23.6948 7.85773 23.8881C8.06055 24.0815 8.1619 24.3134 8.1618 24.5841C8.1618 24.8498 8.06044 25.0794 7.85773 25.2728C7.65982 25.4614 7.41711 25.5556 7.12961 25.5556M18.4359 25.3961H16.5976L11.7541 17.7547C11.6333 17.5646 11.5315 17.3631 11.4501 17.1531H11.4076C11.4453 17.3754 11.4641 17.8515 11.4641 18.5812V25.3959H9.83789V15H11.7965L16.4773 22.4598C16.6753 22.7692 16.8026 22.9819 16.8591 23.098H16.8874C16.8403 22.8226 16.8168 22.3561 16.8168 21.6987V15H18.4359V25.3961ZM26.3554 25.3961H20.6635V15H26.1291V16.4645H22.3463V19.4078H25.8323V20.865H22.3463V23.9389H26.3554V25.3961ZM34.4448 16.4645H31.5315V25.3961H29.8487V16.4645H26.9424V15H34.4446L34.4448 16.4645Z" fill="white"/>
</g>
<defs>
<clipPath id="clip0_368_31">
<rect width="40" height="40" fill="white"/>
</clipPath>
</defs>
</svg>
