<svg width="52" height="31" viewBox="0 0 52 31" fill="none" xmlns="http://www.w3.org/2000/svg">
<path fill-rule="evenodd" clip-rule="evenodd" d="M14.4218 11.1142C14.4218 11.7454 14.49 12.2551 14.6094 12.6282C14.7459 13.0035 14.9165 13.413 15.1553 13.8565C15.2406 13.9909 15.2748 14.1273 15.2748 14.2468C15.2748 14.4173 15.1724 14.5879 14.9506 14.7585L13.878 15.4729C13.7484 15.5664 13.5942 15.6198 13.4345 15.6264C13.2639 15.6264 13.0933 15.5411 12.9248 15.3876C12.6958 15.1412 12.4908 14.8734 12.3128 14.5879C12.1222 14.2609 11.9457 13.9258 11.784 13.5836C10.4576 15.1488 8.78791 15.9314 6.77916 15.9314C5.35044 15.9314 4.20959 15.5241 3.37581 14.7074C2.54416 13.8885 2.11768 12.801 2.11768 11.4383C2.11768 9.99256 2.62946 8.81546 3.66582 7.93264C4.70431 7.04768 6.08186 6.60413 7.83472 6.60413C8.41474 6.60413 9.00969 6.65531 9.63875 6.74061C10.27 6.8259 10.9182 6.96238 11.5963 7.11591V5.87271C11.5963 4.57832 11.3255 3.67631 10.7967 3.1496C10.2529 2.62076 9.33381 2.367 8.0245 2.367C7.42742 2.367 6.81328 2.4331 6.18422 2.58664C5.55515 2.74017 4.94101 2.92782 4.34606 3.16666C4.15183 3.25291 3.95242 3.32697 3.74898 3.38843C3.66128 3.4167 3.57021 3.43319 3.47817 3.43747C3.23933 3.43747 3.11992 3.26688 3.11992 2.91076V2.07699C3.11992 1.80403 3.15404 1.59932 3.23933 1.4799C3.36814 1.32509 3.53185 1.20304 3.717 1.12379C4.39897 0.785181 5.11823 0.527537 5.86009 0.356115C6.72803 0.133915 7.6212 0.0256725 8.51709 0.0341184C10.5429 0.0341184 12.0228 0.494724 12.976 1.4138C13.9143 2.33074 14.3877 3.72749 14.3877 5.59976V11.1142H14.4218ZM7.51272 13.703C8.07355 13.703 8.65144 13.6006 9.26558 13.3959C9.88981 13.1802 10.447 12.8053 10.882 12.3084C11.1569 11.994 11.3554 11.6204 11.462 11.2166C11.5622 10.8093 11.6326 10.3146 11.6326 9.73667V9.02231C11.116 8.89637 10.5927 8.79955 10.0652 8.7323C9.53478 8.6649 9.00063 8.63072 8.46592 8.62994C7.32507 8.62994 6.49129 8.85171 5.92833 9.31232C5.3675 9.77079 5.09668 10.4169 5.09668 11.2678C5.09668 12.0674 5.29926 12.6645 5.72574 13.0718C6.13304 13.4983 6.72799 13.703 7.51272 13.703ZM21.1816 15.5411C20.8745 15.5411 20.6698 15.49 20.5333 15.3705C20.3969 15.2682 20.2774 15.0294 20.1751 14.7074L16.1768 1.54814C16.099 1.3275 16.0475 1.09846 16.0232 0.865766C16.0232 0.592815 16.1597 0.43928 16.4305 0.43928H18.1002C18.4222 0.43928 18.644 0.492591 18.7613 0.609874C18.8999 0.712231 19.0022 0.951063 19.1025 1.27519L21.9642 12.5429L24.6191 1.27519C24.7044 0.934004 24.8067 0.712231 24.9411 0.609874C25.1457 0.484408 25.3839 0.424854 25.6234 0.43928H26.9839C27.3081 0.43928 27.5298 0.492591 27.6663 0.609874C27.8006 0.712231 27.9222 0.951063 27.9883 1.27519L30.6773 12.6794L33.6222 1.27519C33.7245 0.934004 33.8439 0.712231 33.9634 0.609874C34.1609 0.484466 34.393 0.424753 34.6266 0.43928H36.2109C36.4818 0.43928 36.6374 0.577888 36.6374 0.865766C36.6374 0.951063 36.6182 1.03636 36.6012 1.13872C36.5745 1.28422 36.5345 1.42698 36.4818 1.5652L32.3811 14.7223C32.2787 15.0635 32.1593 15.2831 32.0229 15.3855C31.8307 15.5087 31.6047 15.5684 31.3767 15.5561H29.9118C29.5919 15.5561 29.368 15.5049 29.2294 15.3855C29.095 15.2661 28.9756 15.0443 28.9095 14.7031L26.2717 3.72535L23.6488 14.686C23.5635 15.0272 23.4633 15.249 23.3289 15.3684C23.1903 15.4878 22.9515 15.539 22.6466 15.539L21.1837 15.5411H21.1816ZM43.0518 15.9996C42.1668 15.9996 41.2819 15.8973 40.431 15.6947C39.5802 15.49 38.917 15.2682 38.4735 15.0123C38.2005 14.8609 38.015 14.6903 37.9467 14.5368C37.8802 14.3862 37.8454 14.2237 37.8444 14.0591V13.1912C37.8444 12.8351 37.9809 12.6645 38.2346 12.6645C38.337 12.6645 38.4393 12.6816 38.5417 12.7157C38.644 12.7498 38.7976 12.818 38.9682 12.8863C39.5461 13.1422 40.1751 13.3447 40.8404 13.4812C41.5228 13.6177 42.1839 13.6859 42.8663 13.6859C43.9367 13.6859 44.7726 13.4983 45.3505 13.123C45.6276 12.9556 45.8554 12.7179 46.0108 12.434C46.1662 12.1501 46.2437 11.8301 46.2355 11.5066C46.2417 11.2874 46.2044 11.0692 46.1257 10.8646C46.047 10.66 45.9285 10.473 45.777 10.3146C45.4699 9.99256 44.8899 9.70255 44.0561 9.4296L41.5889 8.66193C40.3457 8.27169 39.4266 7.6938 38.8658 6.92826C38.3169 6.22175 38.017 5.35357 38.0128 4.45891C38.0128 3.74454 38.1685 3.11548 38.4735 2.56958C38.7805 2.02581 39.1878 1.54814 39.6996 1.17497C40.2114 0.782602 40.7871 0.492591 41.4695 0.290011C42.1519 0.0852975 42.8663 0 43.6147 0C43.9879 0 44.3824 0.0170596 44.7556 0.0682379C45.1458 0.119416 45.5019 0.187653 45.8602 0.255891C46.2014 0.341188 46.5255 0.426486 46.8304 0.52671C47.1375 0.629067 47.3763 0.731423 47.5469 0.833779C47.7479 0.934944 47.923 1.08085 48.0587 1.26027C48.1686 1.42586 48.2218 1.62268 48.2101 1.82109V2.62076C48.2101 2.979 48.0736 3.16666 47.8178 3.16666C47.5912 3.14068 47.3718 3.07117 47.1716 2.96194C46.1433 2.50767 45.0288 2.28143 43.9047 2.29876C42.9345 2.29876 42.1668 2.45016 41.6401 2.77429C41.1113 3.09842 40.8404 3.59101 40.8404 4.28831C40.8404 4.76598 41.011 5.1754 41.3522 5.4974C41.6934 5.82153 42.3204 6.14566 43.2224 6.43567L45.6405 7.19908C46.8646 7.59145 47.7516 8.13735 48.2784 8.83465C48.8051 9.53196 49.061 10.3316 49.061 11.2166C49.061 11.948 48.9074 12.6133 48.6195 13.1912C48.3169 13.7739 47.893 14.2851 47.3763 14.6903C46.8475 15.1168 46.2184 15.4217 45.487 15.6435C44.7193 15.8802 43.9218 15.9996 43.0518 15.9996Z" fill="white"/>
<path fill-rule="evenodd" clip-rule="evenodd" d="M0.806314 20.2109C8.02245 24.3969 16.9275 26.9344 26.1332 26.9344C32.3471 26.9344 39.1708 25.6401 45.453 22.9852C46.3912 22.5587 47.1888 23.5972 46.2697 24.2796C40.6699 28.4165 32.5326 30.6108 25.5382 30.6108C15.7333 30.6108 6.9008 26.9856 0.226294 20.9594C-0.300416 20.4839 0.175115 19.8356 0.806314 20.2109ZM50.9845 19.7844C51.5965 20.5521 50.8139 25.8107 47.8178 28.3291C47.3594 28.7214 46.9158 28.5167 47.1205 28.0071L47.4937 27.0709C48.2251 25.1944 49.2039 22.3838 48.6026 21.6226C47.8861 20.7056 43.8686 21.1812 42.0475 21.4029C41.5037 21.4712 41.4184 20.9935 41.9131 20.6353C45.1118 18.3898 50.3725 19.0359 50.9845 19.7844Z" fill="white"/>
</svg>
