<svg width="37" height="28" viewBox="0 0 37 28" fill="none" xmlns="http://www.w3.org/2000/svg">
<path d="M16.7236 26.5048C19.5655 26.0037 22.407 25.5008 25.2482 24.9961L25.3283 24.979L20.9434 19.7634C18.5319 16.8949 16.5587 14.5368 16.5587 14.5234C16.5587 14.4977 21.0863 2.02944 21.1118 1.98499C21.1203 1.9703 24.2015 7.28986 28.5808 14.8803C32.6808 21.9864 36.0611 27.8454 36.0925 27.9003L36.1496 28L22.2146 27.9982L8.27936 27.9963L16.7236 26.5048ZM0 24.9142C0 24.9069 2.06607 21.3204 4.59132 16.9441L9.18263 8.98731L14.5332 4.4972C17.4759 2.0276 19.8917 0.00377399 19.9015 0.000100642C19.911 -0.0035727 19.8724 0.093771 19.8153 0.216461C19.7584 0.339334 17.1439 5.94707 14.0054 12.6783L8.29883 24.917L4.14941 24.9223C1.86735 24.9252 0 24.9216 0 24.9142Z" fill="white"/>
</svg>
