<svg width="46" height="32" viewBox="0 0 46 32" fill="none" xmlns="http://www.w3.org/2000/svg">
<path d="M13.6732 10.2804C13.5238 10.2804 13.4035 10.1637 13.4035 10.0143V10.0107C13.3998 8.31247 12.026 6.93495 10.3241 6.9313C10.1747 6.9313 10.0544 6.81104 10.0544 6.66163C10.0544 6.51222 10.1747 6.39196 10.3241 6.39196C12.0223 6.38831 13.3998 5.01079 13.4035 3.31258C13.4035 3.16317 13.5238 3.04291 13.6695 3.04291H13.6732C13.8226 3.04291 13.9428 3.15952 13.9428 3.30894V3.31258C13.9465 5.01079 15.3204 6.38831 17.0222 6.39196C17.1716 6.39196 17.2919 6.50857 17.2919 6.65799V6.66163C17.2919 6.81104 17.1716 6.9313 17.0259 6.9313H17.0186C15.3204 6.9313 13.9428 8.30882 13.9392 10.0107C13.9428 10.1564 13.8226 10.2767 13.6732 10.2804Z" fill="#999999"/>
<path d="M33.0642 28.957C32.9439 28.957 32.8492 28.8623 32.8492 28.742C32.8492 27.3827 31.745 26.2822 30.3857 26.2785C30.2654 26.2785 30.1707 26.1838 30.1707 26.0635C30.1707 25.9433 30.2654 25.8485 30.3857 25.8485C31.745 25.8485 32.8455 24.748 32.8455 23.3887C32.8455 23.2684 32.9439 23.1736 33.0605 23.1736C33.1808 23.1736 33.2755 23.272 33.2755 23.3887C33.2755 24.748 34.3797 25.8485 35.739 25.8522C35.8593 25.8522 35.954 25.9469 35.954 26.0672C35.954 26.1874 35.8593 26.2822 35.739 26.2822C34.3797 26.2822 33.2792 27.3864 33.2755 28.7457C33.2792 28.8586 33.1844 28.957 33.0642 28.957Z" fill="#999999"/>
<path d="M32.0837 13.7497C33.2899 18.8006 30.1705 23.8734 25.1232 25.0796C20.076 26.2859 14.9959 23.17 13.7897 18.1191C12.5834 13.0682 15.6992 7.99547 20.7501 6.78923C25.801 5.58299 30.8738 8.6988 32.0837 13.7497Z" fill="url(#paint0_radial_389_70)"/>
<mask id="mask0_389_70" style="mask-type:luminance" maskUnits="userSpaceOnUse" x="13" y="6" width="20" height="20">
<path d="M32.0837 13.7497C33.2899 18.8006 30.1705 23.8734 25.1232 25.0796C20.076 26.2859 14.9959 23.17 13.7897 18.1191C12.5834 13.0682 15.6992 7.99547 20.7501 6.78923C25.801 5.58299 30.8738 8.6988 32.0837 13.7497Z" fill="white"/>
</mask>
<g mask="url(#mask0_389_70)">
<path d="M17.8931 22.3064C19.2779 22.3501 20.4368 21.2641 20.4842 19.8793C20.5279 18.4945 19.4419 17.3356 18.0571 17.2883C18.0462 17.2883 18.0352 17.2883 18.0243 17.2883C17.9842 17.2883 17.9405 17.2883 17.9004 17.2883C17.9077 17.2154 17.9113 17.1461 17.9113 17.0732C17.9004 15.6775 16.7597 14.5587 15.3677 14.566H13.4836C13.1119 17.3794 14.0047 20.2146 15.9289 22.3064H17.8931Z" fill="#E8E8E8"/>
<path d="M32.1968 14.1834C32.2005 14.1615 32.1968 14.136 32.1859 14.1141C31.8834 12.4742 31.1363 10.9473 30.0321 9.70098C28.5307 9.09968 26.8216 9.82853 26.2203 11.33C26.202 11.3737 26.1875 11.4211 26.1693 11.4648C26.1073 11.6762 26.0745 11.8912 26.0672 12.1098C25.9652 12.0989 25.8631 12.0916 25.7611 12.0916C24.2925 12.088 23.0972 13.276 23.0935 14.7446C23.0899 15.8743 23.8041 16.8874 24.8719 17.2628C25.1343 17.3648 25.4185 17.4195 25.7028 17.4158H28.8113C30.0576 16.472 31.1946 15.3896 32.1968 14.1834Z" fill="#E8E8E8"/>
</g>
<path d="M35.4837 8.08288C34.518 6.47942 32.2659 5.85261 29.1173 6.32272C28.0386 6.47578 26.9708 6.70536 25.9286 7.01512C26.7558 7.30302 27.5466 7.6966 28.2682 8.18857C28.6362 8.10839 29.0079 8.01 29.3651 7.95534C29.9226 7.86787 30.4875 7.82414 31.056 7.8205C32.1784 7.66015 33.3081 8.0756 34.0588 8.93199C34.6456 9.90864 34.1499 11.5813 32.7032 13.5274C30.6879 16.0346 28.2208 18.141 25.4257 19.7335C22.6961 21.439 19.6678 22.6124 16.5009 23.1992C14.103 23.5563 12.3902 23.1992 11.8035 22.2262C11.2168 21.2531 11.7124 19.5768 13.1628 17.6381C13.3414 17.3975 13.3851 17.2809 13.5892 17.0368C13.4944 16.2059 13.5054 15.3677 13.6293 14.5405C12.977 15.1928 12.3793 15.8961 11.8363 16.6432C9.93766 19.1796 9.42383 21.4645 10.3859 23.068C11.4209 24.4528 13.1118 25.1816 14.8282 24.9812C15.4696 24.9775 16.111 24.9265 16.7451 24.8281C20.1233 24.2123 23.3557 22.9659 26.2748 21.1511C29.2521 19.4456 31.8832 17.1935 34.0297 14.515C35.932 11.9713 36.4458 9.68635 35.4837 8.08288Z" fill="#BBBBBB"/>
<defs>
<radialGradient id="paint0_radial_389_70" cx="0" cy="0" r="1" gradientUnits="userSpaceOnUse" gradientTransform="translate(22.8987 15.8886) scale(9.49218 9.4009)">
<stop offset="0.18" stop-color="#A9ADB2"/>
<stop offset="1" stop-color="#7D8288"/>
</radialGradient>
</defs>
</svg>
