<svg width="29" height="32" viewBox="0 0 29 32" fill="none" xmlns="http://www.w3.org/2000/svg">
<path d="M16.893 28H17.2092L22.3696 25.4195L22.4555 25.2981V4.70039L22.3696 4.57836L17.2092 2H16.8892L16.893 28Z" fill="#8D95A3"/>
<path d="M10.1777 28H9.85717L4.70117 25.4195L4.59654 25.2395L4.54346 4.80529L4.70117 4.57836L9.85717 2H10.1817L10.1777 28Z" fill="#8D95A3"/>
<path d="M9.86621 2H17.2044V28H9.86621V2Z" fill="#222222"/>
<path d="M25.071 14.4159L24.8966 14.3772L22.4067 14.1451L22.3698 14.1635L17.2048 13.9569H9.86621L4.70111 14.1635V10.2248L4.6957 10.2277L4.70111 10.2162L9.86621 9.01935H17.2048L22.3698 10.2162L24.2685 11.2254V10.5766L25.071 10.4888L24.9879 10.3267L22.4472 8.50999L22.3698 8.53513L17.2048 6.93467H9.86621L4.70111 8.53513V4.57837L2 7.74279V10.5064L2.02091 10.4913L2.80244 10.5766V11.2388L2 11.6682V14.4181L2.02091 14.4159L2.80244 14.4274V15.5816L2.12815 15.5917L2 15.5794V18.3304L2.80244 18.7619V19.4318L2.03362 19.5166L2 19.4914V22.2546L4.70111 25.4195V21.4631L9.86621 23.0635H17.2048L22.385 21.4584L22.4539 21.4886L24.9611 19.6986L25.071 19.5203L24.2685 19.4318V18.7753L24.1634 18.7333L22.4472 19.6584L22.385 19.7882L17.2048 20.9781V20.9795H9.86621V20.9781L4.70111 19.7831V15.8301L9.86621 16.0359V16.0409H17.2048L22.3698 15.8301L22.4874 15.8841L24.9007 15.6763L25.071 15.5931L24.2685 15.5816V14.4274L25.071 14.4159Z" fill="#3A3A3A"/>
<path d="M22.3696 21.4631V25.4195L25.0708 22.2546V19.5095L22.3852 21.4584L22.3696 21.4631Z" fill="#222222"/>
<path d="M22.3696 19.7918L22.3852 19.7882L25.0708 18.3437V15.5816L22.3696 15.8301V19.7918Z" fill="#222222"/>
<path d="M22.3852 10.2197L22.3696 10.2161V14.1634L25.0708 14.4159V11.6551L22.3852 10.2197Z" fill="#222222"/>
<path d="M22.3852 8.55063L25.0708 10.4888V7.74351L22.3696 4.57837V8.53513L22.3852 8.54054V8.55063Z" fill="#222222"/>
</svg>
