<svg width="29" height="32" viewBox="0 0 29 32" fill="none" xmlns="http://www.w3.org/2000/svg">
<g clip-path="url(#clip0_389_37)">
<path d="M18.2985 31.9447H18.6869L25.0272 28.7742L25.1327 28.625V3.31781L25.0272 3.16789L18.6869 0H18.2937L18.2985 31.9447Z" fill="#888888"/>
<path d="M10.0475 31.9447H9.65366L3.31877 28.7742L3.19022 28.5531L3.125 3.4467L3.31877 3.16789L9.65366 0H10.0524L10.0475 31.9447Z" fill="#444444"/>
<path d="M9.66479 0H18.6808V31.9447H9.66479V0Z" fill="#666666"/>
<path d="M28.346 15.2547L28.1318 15.2072L25.0726 14.922L25.0272 14.9446L18.6812 14.6908H9.66478L3.3187 14.9446V10.1054L3.31206 10.1089L3.3187 10.0947L9.66478 8.6243H18.6812L25.0272 10.0947L27.3601 11.3348V10.5375L28.346 10.4297L28.2439 10.2306L25.1223 7.99847L25.0272 8.02936L18.6812 6.06297H9.66478L3.3187 8.02936V3.16791L0 7.05585V10.4514L0.0256886 10.4328L0.98591 10.5375V11.3512L0 11.8788V15.2574L0.0256886 15.2547L0.98591 15.2689V16.687L0.157453 16.6994L0 16.6843V20.0642L0.98591 20.5944V21.4174L0.041301 21.5217L0 21.4907V24.8857L3.3187 28.7742V23.9132L9.66478 25.8796H18.6812L25.0459 23.9075L25.1305 23.9445L28.211 21.7453L28.346 21.5262L27.3601 21.4174V20.6109L27.2309 20.5593L25.1223 21.6959L25.0459 21.8554L18.6812 23.3173V23.3191H9.66478V23.3173L3.3187 21.8492V16.9922L9.66478 17.2451V17.2513H18.6812L25.0272 16.9922L25.1717 17.0587L28.1369 16.8033L28.346 16.7011L27.3601 16.687V15.2689L28.346 15.2547Z" fill="#2A2A2A"/>
<path d="M25.0273 23.9132V28.7742L28.3462 24.8857V21.5129L25.0465 23.9075L25.0273 23.9132Z" fill="#666666"/>
<path d="M25.0273 21.8598L25.0465 21.8553L28.3462 20.0806V16.687L25.0273 16.9922V21.8598Z" fill="#666666"/>
<path d="M25.0465 10.0992L25.0273 10.0947V14.9446L28.3462 15.2547V11.8627L25.0465 10.0992Z" fill="#666666"/>
<path d="M25.0465 8.04841L28.3462 10.4297V7.05674L25.0273 3.16791V8.02936L25.0465 8.036V8.04841Z" fill="#666666"/>
</g>
<defs>
<clipPath id="clip0_389_37">
<rect width="28.346" height="32" fill="white"/>
</clipPath>
</defs>
</svg>
