<svg width="29" height="32" viewBox="0 0 29 32" fill="none" xmlns="http://www.w3.org/2000/svg">
<g clip-path="url(#clip0_399_8699)">
<path d="M18.2987 31.9447H18.6871L25.0275 28.7742L25.133 28.625V3.31781L25.0275 3.16789L18.6871 0H18.2939L18.2987 31.9447Z" fill="#E6E6E6"/>
<path d="M10.0475 31.9447H9.65366L3.31877 28.7742L3.19022 28.5531L3.125 3.4467L3.31877 3.16789L9.65366 0H10.0524L10.0475 31.9447Z" fill="#E6E6E6"/>
<path d="M9.66504 0H18.6811V31.9447H9.66504V0Z" fill="white"/>
<path d="M0 7.05585L3.3187 3.16791V28.7742L0 24.8857V21.4907L0.041301 21.5217L0.98591 21.4174V20.5944L0 20.0642V16.6843L0.157453 16.6994L0.98591 16.687V15.2689L0.0256886 15.2547L0 15.2574V11.8788L0.98591 11.3512V10.5375L0.0256886 10.4328L0 10.4514V7.05585Z" fill="white"/>
<path d="M25.0273 23.9132V28.7742L28.3462 24.8857V21.5129L25.0465 23.9075L25.0273 23.9132Z" fill="white"/>
<path d="M25.0273 21.8598L25.0465 21.8553L28.3462 20.0806V16.687L25.0273 16.9922V21.8598Z" fill="white"/>
<path d="M25.0465 10.0992L25.0273 10.0947V14.9446L28.3462 15.2547V11.8627L25.0465 10.0992Z" fill="white"/>
<path d="M25.0465 8.04841L28.3462 10.4297V7.05674L25.0273 3.16791V8.02936L25.0465 8.036V8.04841Z" fill="white"/>
<path d="M29 15.7447L28.7808 15.6946L25.6511 15.3938L25.6046 15.4176L19.1122 15.15H9.88775L3.39527 15.4176V10.3151L3.38847 10.3188L3.39527 10.3038L9.88775 8.75337H19.1122L25.6046 10.3038L27.9913 11.6114V10.7707L29 10.657L28.8956 10.4471L25.7019 8.09348L25.6046 8.12605L19.1122 6.05263H9.88775L3.39527 8.12605V3L0 7.09956V10.6799L0.0262812 10.6603L1.00866 10.7707V11.6286L0 12.185V15.7475L0.0262812 15.7447L1.00866 15.7596V17.2549L0.161086 17.2679L0 17.2521V20.816L1.00866 21.375V22.2428L0.0422539 22.3528L0 22.3201V25.8999L3.39527 30V24.8744L9.88775 26.9478H19.1122L25.6238 24.8683L25.7103 24.9075L28.8619 22.5885L29 22.3575L27.9913 22.2428V21.3924L27.8591 21.338L25.7019 22.5364L25.6238 22.7046L19.1122 24.2461V24.2479H9.88775V24.2461L3.39527 22.698V17.5768L9.88775 17.8434V17.85H19.1122L25.6046 17.5768L25.7525 17.6468L28.786 17.3776L29 17.2698L27.9913 17.2549V15.7596L29 15.7447Z" fill="#3A3A3A"/>
</g>
<defs>
<clipPath id="clip0_399_8699">
<rect width="28.346" height="32" fill="white"/>
</clipPath>
</defs>
</svg>
