<svg width="32" height="32" viewBox="0 0 32 32" fill="none" xmlns="http://www.w3.org/2000/svg">
<g clip-path="url(#clip0_389_120)">
<path d="M31.995 16.7991C31.995 14.109 30.3234 11.7845 27.8421 10.8704C27.9472 10.3018 27.9996 9.72471 27.9988 9.14649C27.9988 4.15787 23.9505 0.109619 18.9619 0.109619C16.0628 0.109619 13.3465 1.49387 11.6488 3.87062C10.813 3.21762 9.79438 2.87812 8.7235 2.87812C6.0855 2.87812 3.91775 5.01974 3.91775 7.68387C3.91775 8.25849 4.02225 8.83312 4.205 9.35549C1.69775 10.2174 0 12.6202 0 15.2842C0 17.9745 1.67162 20.3251 4.17887 21.2392C4.0745 21.7877 4.02225 22.3624 4.02225 22.963C4.02225 27.9255 8.0705 31.9739 13.033 31.9739C15.9583 31.9739 18.6485 30.5635 20.3461 28.2129C21.1819 28.8657 22.2266 29.2315 23.2975 29.2315C25.9355 29.2315 28.1033 27.0897 28.1033 24.4257C28.1033 23.8511 27.9988 23.2765 27.816 22.7541C30.271 21.8661 31.9949 19.4632 31.9949 16.7991H31.995Z" fill="white"/>
<path d="M12.5107 13.7955L19.6411 17.0604L26.8497 10.7397C26.9548 10.2152 27.0073 9.68146 27.0063 9.14649C27.0063 4.70649 23.4021 1.10211 18.962 1.10211C16.2978 1.10211 13.8167 2.40799 12.328 4.60186L11.1265 10.8181L12.5107 13.7955Z" fill="#CCCCCC"/>
<path d="M5.11903 21.3438C5.01465 21.8661 4.9624 22.4146 4.9624 22.9631C4.9624 27.4031 8.59278 31.0336 13.0329 31.0336C15.7232 31.0336 18.2044 29.7016 19.7192 27.5076L20.8945 21.2915L19.3013 18.2618L12.1449 14.997L5.11903 21.3438Z" fill="#CCCCCC"/>
<path d="M5.06691 8.98974L9.95104 10.139L11.0479 4.57574C10.3689 4.05336 9.55916 3.79224 8.69729 3.79224C6.58166 3.79224 4.83179 5.51599 4.83179 7.65774C4.83179 8.10174 4.91029 8.57186 5.06691 8.98974Z" fill="#DEDEDE"/>
<path d="M4.64894 10.165C2.45506 10.8702 0.940186 12.9859 0.940186 15.2842C0.940186 17.5305 2.32444 19.5416 4.41394 20.3251L11.2831 14.1089L10.0293 11.4189L4.64894 10.165Z" fill="#EDEDED"/>
<path d="M20.9729 27.4815C21.6519 28.004 22.4617 28.2913 23.2974 28.2913C25.413 28.2913 27.1629 26.5675 27.1629 24.4258C27.1629 23.9556 27.0845 23.5115 26.9279 23.0936L22.0438 21.9445L20.9729 27.4815Z" fill="#CCCCCC"/>
<path d="M21.9656 20.6646L27.3459 21.9184C29.5398 21.1871 31.0547 19.0976 31.0547 16.7991C31.0547 14.5529 29.6704 12.568 27.5809 11.7584L20.5291 17.9222L21.9656 20.6646Z" fill="#E6E6E6"/>
</g>
<defs>
<clipPath id="clip0_389_120">
<rect width="32" height="32" fill="white"/>
</clipPath>
</defs>
</svg>
