<svg width="37" height="30" viewBox="0 0 37 30" fill="none" xmlns="http://www.w3.org/2000/svg">
<path d="M22.9826 8.02662H24.087L27.235 4.87857L27.3894 3.54152C21.5303 -1.6306 12.5883 -1.07186 7.41621 4.78726C5.97915 6.41346 4.93777 8.35056 4.36816 10.4464C4.71819 10.3029 5.10735 10.279 5.47259 10.3811L11.7687 9.34194C11.7687 9.34194 12.0883 8.81146 12.2557 8.84407C15.0559 5.76776 19.7693 5.40904 23.0043 8.02662H22.9826Z" fill="#5C6370"/>
<path d="M31.7195 10.4459C30.9955 7.78053 29.5107 5.38471 27.4453 3.55414L23.0276 7.97185C24.8929 9.49587 25.956 11.7939 25.9104 14.2027V14.9876C28.0823 14.9876 29.8433 16.7486 29.8433 18.9205C29.8433 21.0924 28.0823 22.8534 25.9104 22.8534H18.0446L17.2598 23.6491V28.3668L18.0446 29.1516H25.9104C31.5586 29.1951 36.1742 24.6513 36.2177 19.0031C36.2438 15.5724 34.5545 12.3635 31.7195 10.4459Z" fill="#5C6370"/>
<path d="M10.1685 29.1021H18.0343V22.806H10.1685C9.60759 22.806 9.05538 22.6842 8.54447 22.4516L7.44004 22.7951L4.27025 25.9432L3.99414 27.0476C5.77036 28.3912 7.94008 29.113 10.1685 29.1021Z" fill="#5C6370"/>
<path d="M10.1683 8.67468C4.51789 8.70729 -0.0324369 13.3141 0.000174196 18.9646C0.0197408 22.1191 1.49159 25.0889 3.99394 27.0108L8.55514 22.4496C6.57674 21.556 5.69624 19.2254 6.58978 17.247C7.48333 15.2686 9.81393 14.3881 11.7923 15.2817C12.6641 15.6752 13.362 16.3752 13.7577 17.247L18.3189 12.6858C16.3796 10.1465 13.362 8.66163 10.1683 8.67468Z" fill="#5C6370"/>
</svg>
