<svg width="65" height="24" viewBox="0 0 65 24" fill="none" xmlns="http://www.w3.org/2000/svg">
<path d="M4.8265 7.32435C4.7378 7.32435 4.6491 7.23565 4.7378 7.14695L5.35869 6.26C5.44739 6.1713 5.53609 6.0826 5.71349 6.0826H16.8896C16.9783 6.0826 17.067 6.1713 16.9783 6.26L16.4461 7.05826C16.3574 7.14695 16.2687 7.23565 16.0913 7.23565L4.8265 7.32435ZM0.12544 10.1626C0.0367407 10.1626 -0.0519589 10.0739 0.0367403 9.98522L0.657635 9.09826C0.746335 9.00957 0.835034 8.92087 1.01243 8.92087H15.293C15.3817 8.92087 15.4704 9.00957 15.4704 9.09826L15.2043 9.98522C15.2043 10.0739 15.0269 10.1626 14.9382 10.1626H0.12544ZM7.66487 13.0896C7.57617 13.0896 7.48747 13.0009 7.57617 12.9122L8.01967 12.1139C8.10837 12.0252 8.19707 11.9365 8.37446 11.9365H14.5834C14.6721 11.9365 14.7608 12.0252 14.7608 12.1139L14.6721 12.8235C14.6721 12.9122 14.5834 13.0009 14.4947 13.0009L7.66487 13.0896ZM40.1288 6.70347L34.8955 8.03391C34.452 8.12261 34.3633 8.2113 34.0085 7.67913C33.565 7.14695 33.2102 6.79217 32.5006 6.52608C30.5493 5.55043 28.5979 5.81652 26.8239 6.96956C24.6951 8.3 23.6307 10.34 23.6307 12.9122C23.6307 15.3957 25.4047 17.4357 27.8883 17.7905C30.0171 18.0565 31.7911 17.347 33.2102 15.7504C33.4763 15.3957 33.7424 15.0409 34.0972 14.5974H28.0657C27.4448 14.5974 27.2674 14.1539 27.4448 13.6217C27.8883 12.6461 28.5979 11.0496 29.0414 10.2513C29.1301 10.0739 29.3962 9.71913 29.8397 9.71913H41.1932C41.1045 10.6061 41.1045 11.4044 41.0158 12.2913C40.661 14.5087 39.8627 16.6374 38.4435 18.4113C36.226 21.3383 33.2989 23.2009 29.5736 23.7331C26.4691 24.1766 23.6307 23.5557 21.1472 21.6931C18.841 19.9192 17.5105 17.6131 17.1557 14.7748C16.7122 11.4044 17.7766 8.3 19.8167 5.63912C22.0341 2.71216 24.9612 0.849551 28.5979 0.22868C31.525 -0.303495 34.3633 0.0512871 36.8469 1.73651C38.5322 2.80086 39.6853 4.30869 40.4836 6.1713C40.5723 6.52608 40.4836 6.61478 40.1288 6.70347Z" fill="#5C6370"/>
<path d="M50.4177 24C47.5793 23.9113 45.0071 23.113 42.7896 21.2504C40.9269 19.6539 39.7738 17.6139 39.419 15.2191C38.8868 11.6713 39.8625 8.56691 41.9913 5.81734C44.2975 2.80168 47.0471 1.29385 50.7725 0.584288C53.9657 0.0521131 56.9815 0.3182 59.6424 2.18081C62.126 3.86603 63.6339 6.17212 64.0774 9.18778C64.6096 13.4452 63.3678 16.8156 60.5294 19.7426C58.4893 21.8713 55.9171 23.113 53.0787 23.7339C52.103 23.9113 51.216 23.9113 50.4177 24ZM57.8684 11.4052C57.8684 10.9617 57.8684 10.6956 57.7797 10.3408C57.2476 7.23648 54.4092 5.46256 51.3934 6.17212C48.4663 6.793 46.6036 8.65561 45.8941 11.5826C45.3619 13.9774 46.515 16.4608 48.7324 17.5252C50.4177 18.2348 52.1917 18.1461 53.7883 17.3478C56.3606 16.1061 57.691 14.0661 57.8684 11.4052Z" fill="#5C6370"/>
</svg>
