<svg width="40" height="17" viewBox="0 0 40 17" fill="none" xmlns="http://www.w3.org/2000/svg">
<g clip-path="url(#clip0_394_8464)">
<path d="M4.48124 14.004C4.77722 14.3978 5.16186 14.7162 5.60394 14.9335C6.082 15.1704 6.60955 15.2901 7.14303 15.2829C7.57437 15.2941 8.00374 15.2209 8.40697 15.0673C8.72941 14.9405 9.01729 14.7392 9.24705 14.4799C9.46265 14.2272 9.62006 13.9302 9.70812 13.6099C9.80402 13.2638 9.85155 12.906 9.84935 12.5468V11.2977H9.81969C9.54007 11.7409 9.13678 12.0924 8.65961 12.3089C8.20464 12.5069 7.71349 12.6082 7.21731 12.6064C6.73109 12.61 6.2488 12.5191 5.79726 12.3387C5.36973 12.1689 4.97854 11.9191 4.64474 11.6025C4.31354 11.2846 4.05045 10.9026 3.87146 10.4798C3.68101 10.0334 3.58484 9.55242 3.589 9.06711C3.58497 8.58325 3.67594 8.1033 3.85675 7.65447C4.02765 7.2298 4.27737 6.8413 4.59273 6.5095C4.90793 6.18028 5.2876 5.91956 5.70804 5.74361C6.15787 5.5566 6.64103 5.46301 7.12816 5.46854C7.34997 5.46987 7.57124 5.48972 7.78979 5.52795C8.03007 5.56997 8.26463 5.63986 8.48872 5.73622C9.0207 5.96678 9.48054 6.33673 9.81969 6.80699H9.84927V5.64691H10.8309V12.5468C10.8275 12.9522 10.7801 13.3561 10.6896 13.7512C10.5948 14.1785 10.407 14.5796 10.1394 14.926C9.83494 15.308 9.44538 15.6137 9.0018 15.8184C8.51597 16.0561 7.88148 16.175 7.09834 16.175C6.46217 16.1859 5.83024 16.0697 5.23957 15.8331C4.67446 15.591 4.16754 15.231 3.75265 14.7773L4.48124 14.004ZM4.65961 9.03752C4.65714 9.3919 4.72543 9.74321 4.86048 10.0708C4.98924 10.3853 5.17582 10.6728 5.41055 10.9184C5.64399 11.1618 5.92154 11.3586 6.22844 11.4984C6.54816 11.6438 6.89584 11.7174 7.24705 11.7141C7.94259 11.7166 8.6128 11.4533 9.12068 10.978C9.37016 10.7427 9.56553 10.456 9.69325 10.1377C9.83089 9.78784 9.89421 9.41313 9.87917 9.03745C9.88172 8.68505 9.82129 8.33503 9.70072 8.00389C9.58613 7.68916 9.40906 7.40086 9.18017 7.15633C8.9449 6.90844 8.66157 6.7111 8.34748 6.57637C7.99972 6.42854 7.62488 6.35507 7.24705 6.36071C6.89584 6.35738 6.54816 6.43099 6.22844 6.57637C5.92164 6.71632 5.64412 6.91311 5.41055 7.15633C5.17591 7.40208 4.98929 7.68954 4.86033 8.00389C4.7254 8.33165 4.65716 8.68309 4.65961 9.03752ZM14.8307 12.6063H13.7602V2.07801H17.0019C18.0725 2.07801 18.9176 2.31098 19.5372 2.77693C20.1567 3.24304 20.4665 3.9469 20.4667 4.8885C20.4855 5.572 20.2375 6.23596 19.7752 6.7398C19.3142 7.24058 18.6475 7.53054 17.7752 7.6097L20.8087 12.6064H19.5L16.6154 7.71395H14.8309L14.8307 12.6063ZM14.8307 6.7324H16.7342C17.1432 6.74098 17.5513 6.6909 17.9461 6.58369C18.2349 6.50652 18.5053 6.37259 18.7418 6.18973C18.9324 6.0362 19.0808 5.8366 19.1729 5.60978C19.2634 5.38014 19.3089 5.13524 19.3068 4.88843C19.3079 4.64663 19.2624 4.40688 19.1728 4.18226C19.0798 3.95386 18.9317 3.75203 18.7418 3.59475C18.5076 3.40822 18.2363 3.27385 17.9461 3.20063C17.5504 3.09879 17.1427 3.0513 16.7342 3.05948H14.8307V6.7324ZM22.6524 2.07801H25.7157C26.7863 2.07801 27.6314 2.31101 28.251 2.77701C28.8705 3.24312 29.1803 3.947 29.1805 4.88866C29.1805 5.83058 28.8707 6.53687 28.251 7.00755C27.6314 7.47859 26.7863 7.71405 25.7157 7.71395H23.7231V12.6064H22.6524V2.07801ZM23.7233 6.73263H25.4482C25.8572 6.74118 26.2654 6.69108 26.6602 6.58385C26.9489 6.50666 27.2193 6.37274 27.4557 6.18989C27.6464 6.03635 27.7948 5.83675 27.8869 5.60993C27.9774 5.38033 28.0229 5.13545 28.0208 4.88866C28.0219 4.64683 27.9764 4.40706 27.8869 4.18242C27.7938 3.95401 27.6457 3.75217 27.4557 3.5949C27.2216 3.40842 26.9504 3.27408 26.6602 3.20087C26.2645 3.09899 25.8567 3.05148 25.4482 3.05963H23.7231L23.7233 6.73263ZM39.9314 10.9408C39.743 11.2199 39.5208 11.4746 39.2699 11.6992C38.9982 11.9433 38.6957 12.1508 38.3701 12.3163C38.0226 12.4937 37.6559 12.6309 37.2773 12.7253C36.8711 12.826 36.4539 12.876 36.0354 12.874C35.2889 12.8811 34.5484 12.7395 33.8571 12.4576C33.2045 12.194 32.612 11.8012 32.115 11.3029C31.618 10.8047 31.2267 10.2111 30.9647 9.55792C30.6814 8.85394 30.5399 8.10092 30.5484 7.3421C30.5399 6.58334 30.6814 5.83037 30.9647 5.12644C31.2267 4.47322 31.6179 3.87967 32.115 3.3814C32.612 2.88314 33.2046 2.49044 33.8571 2.22687C34.5484 1.945 35.2889 1.80346 36.0354 1.81049C36.7083 1.81415 37.3743 1.9453 37.9984 2.19698C38.6639 2.46335 39.2446 2.90539 39.6786 3.47594L38.742 4.17486C38.6161 3.98743 38.466 3.8174 38.2957 3.66918C38.0989 3.49493 37.8818 3.34516 37.649 3.22314C37.4003 3.09224 37.1386 2.98761 36.8682 2.91093C36.5975 2.8326 36.3172 2.79253 36.0354 2.79188C35.4108 2.78176 34.7916 2.90866 34.2214 3.16365C33.704 3.39833 33.2408 3.7375 32.8608 4.15984C32.4847 4.58338 32.1943 5.0758 32.0055 5.60985C31.6091 6.73071 31.6091 7.95365 32.0055 9.07451C32.1943 9.6085 32.4847 10.1009 32.8607 10.5244C33.2406 10.9468 33.7038 11.286 34.2213 11.5206C34.7914 11.7759 35.4107 11.9029 36.0354 11.8926C36.3121 11.8927 36.5883 11.8677 36.8606 11.8181C37.1377 11.7672 37.4074 11.6823 37.6637 11.5654C37.9339 11.4415 38.1844 11.2786 38.4073 11.0819C38.6577 10.8583 38.8754 10.6006 39.054 10.3163L39.9314 10.9408Z" fill="#A6ADB9"/>
<path d="M2.84131 5.52509L0.0684745 2.77279L2.82077 -4.28158e-05L5.5936 2.75225L2.84131 5.52509Z" fill="#8D95A3"/>
<path d="M10.3862 4.35028L8.75983 2.73593L10.3742 1.10953L12.0006 2.72388L10.3862 4.35028Z" fill="#7A8190"/>
<path d="M2.94208 1.09213L1.27539 2.77136L2.95454 4.43805L4.37505 4.43283L2.8854 2.9551L10.2411 2.92785L9.59647 3.57687L10.3068 3.5743L11.1402 2.73469L10.3005 1.90138L9.59025 1.90395L10.2398 2.54837L2.88408 2.57562L4.36259 1.08691L2.94208 1.09213Z" fill="#A6ADB9"/>
</g>
<defs>
<clipPath id="clip0_394_8464">
<rect width="40" height="16.1943" fill="white"/>
</clipPath>
</defs>
</svg>
