<svg width="40" height="40" viewBox="0 0 40 40" fill="none" xmlns="http://www.w3.org/2000/svg">
<g clip-path="url(#clip0_399_8642)">
<circle cx="20" cy="20" r="20" fill="white"/>
<g clip-path="url(#clip1_399_8642)">
<path d="M9.36069 24.503C9.58267 24.7983 9.87115 25.0372 10.2027 25.2001C10.5613 25.3778 10.9569 25.4676 11.357 25.4621C11.6805 25.4705 12.0026 25.4156 12.305 25.3004C12.5468 25.2054 12.7627 25.0544 12.935 24.8599C13.0967 24.6704 13.2148 24.4476 13.2808 24.2074C13.3528 23.9478 13.3884 23.6795 13.3868 23.4101V22.4733H13.3645C13.1548 22.8056 12.8523 23.0693 12.4945 23.2317C12.1532 23.3802 11.7849 23.4561 11.4127 23.4547C11.0481 23.4575 10.6864 23.3893 10.3477 23.254C10.0271 23.1267 9.73366 22.9393 9.48331 22.7019C9.23491 22.4634 9.0376 22.1769 8.90335 21.8598C8.76051 21.525 8.68839 21.1643 8.6915 20.8003C8.68848 20.4374 8.75671 20.0775 8.89232 19.7408C9.02049 19.4223 9.20778 19.131 9.44431 18.8821C9.6807 18.6352 9.96545 18.4397 10.2808 18.3077C10.6182 18.1674 10.9805 18.0972 11.3459 18.1014C11.5122 18.1024 11.6782 18.1173 11.8421 18.1459C12.0223 18.1775 12.1982 18.2299 12.3663 18.3021C12.7653 18.4751 13.1102 18.7525 13.3645 19.1052H13.3867V18.2352H14.1229V23.4101C14.1204 23.7141 14.0848 24.017 14.0169 24.3134C13.9459 24.6339 13.805 24.9347 13.6043 25.1945C13.376 25.481 13.0838 25.7102 12.7511 25.8638C12.3867 26.0421 11.9109 26.1313 11.3235 26.1313C10.8464 26.1394 10.3724 26.0522 9.92944 25.8748C9.5056 25.6932 9.12541 25.4233 8.81425 25.083L9.36069 24.503ZM9.49447 20.7781C9.49261 21.0439 9.54383 21.3074 9.64512 21.5531C9.74168 21.7889 9.88162 22.0046 10.0577 22.1888C10.2327 22.3713 10.4409 22.519 10.6711 22.6238C10.9109 22.7329 11.1716 22.7881 11.435 22.7856C11.9567 22.7874 12.4594 22.5899 12.8403 22.2335C13.0274 22.057 13.1739 21.842 13.2697 21.6033C13.3729 21.3409 13.4204 21.0598 13.4091 20.7781C13.411 20.5138 13.3657 20.2513 13.2753 20.0029C13.1894 19.7669 13.0566 19.5506 12.8849 19.3672C12.7084 19.1813 12.4959 19.0333 12.2604 18.9323C11.9995 18.8214 11.7184 18.7663 11.435 18.7705C11.1716 18.768 10.9109 18.8232 10.6711 18.9323C10.441 19.0372 10.2328 19.1848 10.0577 19.3672C9.88168 19.5515 9.74172 19.7671 9.645 20.0029C9.54381 20.2487 9.49263 20.5123 9.49447 20.7781ZM17.1228 23.4547H16.3199V15.5585H18.7512C19.5541 15.5585 20.188 15.7332 20.6527 16.0827C21.1173 16.4323 21.3497 16.9602 21.3498 17.6664C21.3638 18.179 21.1779 18.677 20.8312 19.0548C20.4854 19.4304 19.9854 19.6479 19.3311 19.7073L21.6063 23.4547H20.6248L18.4613 19.7854H17.1229L17.1228 23.4547ZM17.1228 19.0493H18.5504C18.8572 19.0557 19.1633 19.0182 19.4594 18.9378C19.6759 18.8799 19.8788 18.7794 20.0561 18.6423C20.1991 18.5271 20.3104 18.3774 20.3795 18.2073C20.4473 18.0351 20.4814 17.8514 20.4798 17.6663C20.4806 17.485 20.4465 17.3051 20.3794 17.1367C20.3096 16.9654 20.1985 16.814 20.0561 16.696C19.8805 16.5561 19.677 16.4554 19.4593 16.4005C19.1625 16.3241 18.8568 16.2885 18.5504 16.2946H17.1228V19.0493ZM22.989 15.5585H25.2866C26.0895 15.5585 26.7233 15.7332 27.188 16.0827C27.6526 16.4323 27.885 16.9602 27.8851 17.6665C27.8851 18.3729 27.6528 18.9026 27.188 19.2556C26.7233 19.6089 26.0895 19.7855 25.2866 19.7854H23.7921V23.4547H22.989V15.5585ZM23.7922 19.0495H25.0859C25.3927 19.0559 25.6988 19.0183 25.9949 18.9379C26.2114 18.88 26.4142 18.7795 26.5915 18.6424C26.7345 18.5272 26.8458 18.3775 26.9149 18.2074C26.9828 18.0352 27.0169 17.8516 27.0154 17.6665C27.0162 17.4851 26.9821 17.3053 26.9149 17.1368C26.8451 16.9655 26.734 16.8141 26.5915 16.6962C26.416 16.5563 26.2125 16.4555 25.9949 16.4006C25.6981 16.3242 25.3923 16.2886 25.0859 16.2947H23.7921L23.7922 19.0495ZM35.9483 22.2056C35.807 22.4149 35.6403 22.606 35.4522 22.7744C35.2484 22.9575 35.0215 23.1131 34.7774 23.2372C34.5167 23.3702 34.2417 23.4732 33.9577 23.544C33.653 23.6195 33.3402 23.657 33.0263 23.6555C32.4664 23.6608 31.911 23.5546 31.3925 23.3432C30.9032 23.1455 30.4588 22.8509 30.086 22.4772C29.7132 22.1035 29.4198 21.6583 29.2233 21.1684C29.0108 20.6404 28.9047 20.0757 28.9111 19.5066C28.9047 18.9375 29.0108 18.3728 29.2233 17.8448C29.4198 17.3549 29.7132 16.9097 30.086 16.536C30.4587 16.1623 30.9032 15.8678 31.3926 15.6701C31.9111 15.4587 32.4664 15.3526 33.0263 15.3579C33.531 15.3606 34.0305 15.459 34.4985 15.6477C34.9977 15.8475 35.4332 16.179 35.7587 16.6069L35.0562 17.1311C34.9618 16.9906 34.8493 16.863 34.7215 16.7519C34.574 16.6212 34.4111 16.5089 34.2365 16.4173C34.05 16.3192 33.8537 16.2407 33.6509 16.1832C33.4479 16.1244 33.2377 16.0944 33.0263 16.0939C32.5579 16.0863 32.0935 16.1815 31.6658 16.3727C31.2777 16.5487 30.9303 16.8031 30.6454 17.1199C30.3633 17.4375 30.1454 17.8068 30.0039 18.2074C29.7065 19.048 29.7065 19.9652 30.0039 20.8059C30.1454 21.2064 30.3633 21.5756 30.6453 21.8933C30.9302 22.2101 31.2776 22.4645 31.6657 22.6405C32.0933 22.8319 32.5578 22.9271 33.0263 22.9194C33.2339 22.9195 33.441 22.9008 33.6452 22.8636C33.853 22.8254 34.0553 22.7617 34.2476 22.674C34.4502 22.5811 34.6381 22.4589 34.8052 22.3114C34.993 22.1437 35.1563 21.9504 35.2903 21.7372L35.9483 22.2056Z" fill="#244C5A"/>
<path d="M8.13086 18.1438L6.05123 16.0796L8.11545 14L10.1951 16.0642L8.13086 18.1438Z" fill="white"/>
<path d="M13.7896 17.2627L12.5698 16.0519L13.7805 14.8321L15.0003 16.0429L13.7896 17.2627Z" fill="white"/>
<path d="M8.20656 14.8191L6.95654 16.0785L8.21591 17.3285L9.28129 17.3246L8.16405 16.2163L13.6809 16.1959L13.1974 16.6827L13.7301 16.6807L14.3551 16.051L13.7254 15.426L13.1927 15.428L13.6799 15.9113L8.16306 15.9317L9.27194 14.8152L8.20656 14.8191Z" fill="#244C5A"/>
</g>
</g>
<defs>
<clipPath id="clip0_399_8642">
<rect width="40" height="40" fill="white"/>
</clipPath>
<clipPath id="clip1_399_8642">
<rect width="30" height="12.1457" fill="white" transform="translate(6 14)"/>
</clipPath>
</defs>
</svg>
