<svg width="41" height="32" viewBox="0 0 41 32" fill="none" xmlns="http://www.w3.org/2000/svg">
<g clip-path="url(#clip0_389_82)">
<path d="M23.2566 19.0296C22.2143 19.0508 21.1713 19.0361 20.1286 19.0361V19.0774C19.1431 19.0774 18.1575 19.0804 17.172 19.0766C16.1252 19.0725 15.312 19.54 14.6787 20.3362C13.7651 21.4849 13.0481 22.8122 11.6583 23.5181C11.5046 23.5962 11.3812 23.9002 11.3979 24.0857C11.4078 24.1992 11.7003 24.3259 11.8855 24.3796C13.5343 24.8582 15.2089 24.9276 16.8879 24.5893C19.2657 24.1104 21.4096 23.1715 22.9543 21.2092C23.3084 20.7593 23.5518 20.2045 23.7622 19.6651C23.9108 19.2843 23.7472 19.0196 23.2566 19.0296ZM3.70757 16.0331C3.46139 15.6944 3.19367 15.3345 2.93498 14.9681C2.73157 14.6799 2.53989 14.6147 2.24666 14.8862C1.01371 16.0274 0.572522 18.9179 1.40294 20.3641C2.17379 18.9157 2.9543 17.4487 3.70757 16.0331ZM36.8206 16.6502C36.2227 16.5328 36.1652 16.2852 35.9056 15.9634C34.5494 14.2825 33.542 12.7243 31.7627 10.9838C28.8992 7.99733 25.3402 6.45357 21.187 6.22355C18.9336 6.09888 16.7119 6.29008 14.4985 6.62688C13.4341 6.78878 12.7362 6.37389 12.2215 5.51971C12.0271 5.19717 11.8199 4.85563 11.7397 4.49587C11.4438 3.16755 11.1864 1.8302 10.9407 0.491432C10.8518 0.00731274 10.7143 -0.105479 10.2642 0.0931741C9.52349 0.420303 9.03304 1.00264 8.81173 1.75496C8.62116 2.40304 8.45054 3.0904 8.46084 3.75733C8.4846 5.29159 8.60135 6.82569 8.72539 8.35614C8.7943 9.20779 8.67391 9.94616 8.08428 10.625C7.41387 11.3969 6.83692 12.2498 6.2145 13.0641C3.96579 16.0062 2.09379 19.158 0.879532 22.6733C0.262185 24.4599 -0.211795 26.2687 0.0969576 28.1917C0.201829 28.8447 0.254898 29.5059 0.33268 30.1634C0.426146 30.9542 1.5105 31.9043 2.3067 31.891C3.2206 31.876 4.01268 31.4956 4.70369 30.9557C5.92381 30.0026 7.27114 29.2851 8.65046 28.6039C10.2928 27.7928 11.8012 26.7805 13.0745 25.4465C13.1683 25.3481 13.2429 25.2316 13.3389 25.1074C12.6891 24.9505 12.0917 24.835 11.5127 24.6592C10.8816 24.4675 10.7564 23.9951 11.1818 23.4823C11.3242 23.3106 11.5273 23.1904 11.6951 23.0381C12.1831 22.5954 12.7026 22.18 13.143 21.6936C13.561 21.2319 13.8804 20.6825 14.2688 20.192C14.9659 19.3117 15.8723 18.8154 17.0101 18.7931C17.6932 18.7797 18.377 18.7688 19.06 18.7843C19.6 18.7965 20.0317 18.6231 20.4564 18.275C21.4966 17.4228 22.3834 16.5694 23.4974 15.8202C25.264 14.8325 26.5893 14.4095 28.288 14.5801C31.3388 14.8867 33.6154 16.5016 35.4593 18.8395C35.5273 18.9255 35.585 19.0456 35.5724 19.1691C35.5599 19.2927 35.3819 19.2333 35.3819 19.2333C35.3819 19.2333 33.9004 17.6832 33.2056 16.9581C32.8236 17.4895 32.6248 17.8533 32.3094 18.2395C31.8788 18.7668 31.3503 19.2247 30.9811 19.7889C30.3815 20.7047 30.6368 22.071 31.4476 22.6022C31.5167 22.496 31.6306 22.3964 31.6467 22.2828C31.7093 21.8437 31.745 21.5126 32.2658 21.4787C32.5022 21.4633 32.3333 21.1878 32.7816 21.1637C32.9215 21.1745 32.9107 21.293 33.0506 21.2822C33.1637 21.2661 33.2139 21.0714 33.3359 21.0185C33.5781 20.9135 33.9002 20.9264 34.1386 20.9363C34.5806 20.9545 34.7918 20.7222 34.8493 20.4388C34.8873 20.2521 34.9046 20.1052 34.9961 19.7773C35.2078 20.6224 35.7578 20.8775 36.4402 20.8715C36.7629 20.8686 37.0948 20.8015 37.4059 20.8571C38.164 20.9054 38.2981 21.0754 38.7252 21.2377C39.3838 21.4877 39.9821 21.7892 40.2094 22.5686C40.2768 22.5475 40.4086 22.5309 40.4786 22.3964C40.5484 22.2617 40.5469 22.0792 40.5524 21.85C40.615 19.2596 39.3069 17.4242 36.8206 16.6502ZM10.0681 20.6963C10.6669 20.6866 10.7572 20.8239 10.5054 21.3456C10.4491 21.4619 10.3929 21.5893 10.3829 21.7152C10.3031 22.7259 9.80642 23.4489 8.92959 23.9492C8.48634 24.202 8.09807 24.5518 7.65213 24.7988C7.40753 24.9342 7.0267 25.079 6.83232 24.9782C6.72761 24.9241 6.66852 24.7815 6.61941 24.6196C6.52547 24.3083 6.50155 23.9752 6.57537 23.6585C6.94607 22.0691 8.46005 20.7226 10.0681 20.6963ZM6.46147 26.1046C6.46781 25.9696 7.09007 25.4342 7.24769 25.4595C7.40516 25.4847 7.39628 25.5962 7.39692 25.7583C7.39755 25.9202 6.77403 26.4788 6.47383 26.2921C6.40381 26.2321 6.44389 26.1307 6.46147 26.1046ZM12.3534 25.5641C11.5621 26.2961 10.679 26.8824 9.82036 27.4237C9.14947 27.8465 8.41791 28.1722 7.73656 28.58C6.6991 29.2008 5.68048 29.8533 4.65585 30.4959C3.89244 30.9748 3.15026 31.5064 2.16793 31.4814C2.18329 31.3998 2.18123 31.3421 2.19723 31.3364C3.23058 30.9738 3.99272 30.2887 4.69799 29.4586C5.12381 28.9575 5.76191 28.6112 6.35264 28.2814C7.5886 27.5915 8.58995 26.6809 9.35288 25.4842C9.89735 24.6304 9.91858 24.6644 10.8211 25.0587C11.2854 25.2617 11.6835 25.3337 12.3534 25.5641ZM26.8971 13.4513C28.0816 13.4267 28.624 13.5644 29.4639 13.7608C30.1293 13.9221 30.5942 14.3671 30.8661 14.7268C29.8066 14.4027 29.2707 14.2283 28.2219 14.1348C25.968 13.8657 23.9894 14.5694 22.2543 15.9872C21.5205 16.5868 20.7929 17.2026 20.1315 17.8785C19.7405 18.278 19.7328 18.3826 18.793 18.3232C19.6241 17.0373 20.3818 15.7348 21.124 14.4447C23.5244 10.2719 29.5571 10.9865 31.6301 13.4063C31.7147 13.5051 31.8432 13.7672 31.8432 13.7672C31.8432 13.7672 29.8814 12.7176 28.4385 12.7176C27.5694 12.7176 27.3516 12.7818 26.8144 12.8742C26.6726 12.8986 26.4356 13.0213 26.4375 13.2289C26.4396 13.4365 26.7366 13.4285 26.8971 13.4513ZM39.5503 21.0405C38.9204 20.0651 37.9686 20.2763 37.0776 20.2723C36.812 20.2711 36.5464 20.2863 36.2807 20.2959C35.8322 20.3121 35.4539 20.2072 35.2583 19.7458C35.2079 19.6271 35.0817 19.4435 34.9768 19.4248C34.8745 19.4529 34.8404 19.5196 34.8222 19.5584C34.4178 20.4186 33.6331 20.5545 32.8185 20.5717C32.3474 20.5817 31.9615 20.647 31.7297 21.1148C31.6849 21.2056 31.4557 21.3098 31.4161 21.2778C31.3156 21.197 31.1924 21.0142 31.2239 20.9222C31.3442 20.5717 31.4717 20.2041 31.6882 19.9102C32.2375 19.1649 32.8363 18.4559 33.4661 17.6689C33.763 17.9818 34.0887 18.3332 34.4235 18.6755C34.6878 18.9459 34.935 19.2485 35.2453 19.4524C35.409 19.5599 35.7629 19.5764 35.8983 19.4682C36.0152 19.3749 36.0298 19.0009 35.939 18.8319C35.7537 18.4864 35.4608 18.1999 35.2244 17.8803C35.0479 17.6417 34.8908 17.389 34.6807 17.0768C36.8021 16.6982 39.9526 19.274 39.5503 21.0405Z" fill="#707070"/>
</g>
<defs>
<clipPath id="clip0_389_82">
<rect width="40.5545" height="32" fill="white"/>
</clipPath>
</defs>
</svg>
