<svg width="48" height="48" viewBox="0 0 48 48" fill="none" xmlns="http://www.w3.org/2000/svg">
<path fill-rule="evenodd" clip-rule="evenodd" d="M20.0141 25.3314C20.0141 25.3314 18.8676 25.9985 20.8308 26.2239C23.21 26.4956 24.4252 26.4565 27.0461 25.9607C27.0461 25.9607 27.7362 26.3927 28.6994 26.7665C22.8223 29.2848 15.3985 26.6208 20.0141 25.3314ZM19.2956 22.0451C19.2956 22.0451 18.0095 22.9971 19.9745 23.2003C22.516 23.4627 24.5221 23.4842 27.9956 22.8158C27.9956 22.8158 28.4752 23.3026 29.23 23.5686C22.1252 25.6466 14.2124 23.7322 19.2956 22.0451Z" fill="white"/>
<path fill-rule="evenodd" clip-rule="evenodd" d="M25.3494 16.4698C26.7982 18.1375 24.9696 19.6373 24.9696 19.6373C24.9696 19.6373 28.6466 17.7396 26.9578 15.3622C25.381 13.1462 24.1715 12.0452 30.7185 8.24869C30.7185 8.24869 20.4414 10.8143 25.3494 16.4698Z" fill="white"/>
<path fill-rule="evenodd" clip-rule="evenodd" d="M33.1219 27.7623C33.1219 27.7623 33.9706 28.4621 32.1871 29.0032C28.7957 30.0304 18.0692 30.3402 15.0897 29.044C14.0194 28.5779 16.0275 27.9317 16.6592 27.7952C17.3181 27.6528 17.6941 27.6787 17.6941 27.6787C16.5031 26.84 9.99546 29.3259 14.3892 30.0391C26.37 31.9817 36.2292 29.1646 33.1219 27.7623ZM20.5656 18.6398C20.5656 18.6398 15.1101 19.9359 18.6339 20.4071C20.1223 20.606 23.0872 20.5602 25.851 20.3284C28.1091 20.1389 30.3757 19.7335 30.3757 19.7335C30.3757 19.7335 29.5801 20.0749 29.0036 20.4678C23.4627 21.9253 12.7603 21.2465 15.8417 19.7566C18.4469 18.4963 20.5656 18.6398 20.5656 18.6398ZM30.3531 24.11C35.9851 21.184 33.3811 18.3716 31.563 18.7506C31.1185 18.8435 30.9191 18.9236 30.9191 18.9236C30.9191 18.9236 31.0849 18.6642 31.4002 18.5526C34.9963 17.2888 37.7614 22.2809 30.2407 24.2579C30.2405 24.2579 30.3272 24.1797 30.3531 24.11Z" fill="white"/>
<path fill-rule="evenodd" clip-rule="evenodd" d="M26.9577 2.11658C26.9577 2.11658 30.0762 5.23704 23.9991 10.0339C19.1256 13.8832 22.888 16.0774 23.9976 18.5852C21.1523 16.0186 19.0653 13.7587 20.4653 11.656C22.5207 8.56942 28.216 7.07256 26.9577 2.11658Z" fill="white"/>
<path fill-rule="evenodd" clip-rule="evenodd" d="M21.1198 32.0412C26.525 32.3869 34.827 31.8493 35.024 29.2911C35.024 29.2911 34.646 30.2608 30.5564 31.03C25.9423 31.8986 20.2504 31.7975 16.8757 31.2404C16.8757 31.2404 17.5673 31.8126 21.1198 32.0412Z" fill="white"/>
<path fill-rule="evenodd" clip-rule="evenodd" d="M34.7744 36.6287H34.61V36.5365H35.0535V36.6287H34.8892V37.0888H34.7744V36.6287ZM35.6594 36.6516H35.6574L35.494 37.0886H35.4191L35.2567 36.6516H35.2547V37.0886H35.1457V36.5363H35.3058L35.4562 36.927L35.6066 36.5363H35.7652V37.0886H35.6596L35.6594 36.6516ZM20.2341 41.8145C19.7244 42.2562 19.1855 42.5048 18.7016 42.5048C18.0124 42.5048 17.6383 42.0906 17.6383 41.428C17.6383 40.7106 18.0388 40.1856 19.6414 40.1856H20.2339L20.2341 41.8145ZM21.6411 43.4017V38.4881C21.6411 37.2323 20.9249 36.4035 19.1984 36.4035C18.1912 36.4035 17.3081 36.6523 16.5902 36.9693L16.7969 37.8396C17.3624 37.632 18.0935 37.4395 18.8112 37.4395C19.8058 37.4395 20.2339 37.8396 20.2339 38.6681V39.2894H19.7368C17.3208 39.2894 16.2306 40.2267 16.2306 41.6359C16.2306 42.8502 16.9491 43.5404 18.3015 43.5404C19.1708 43.5404 19.8202 43.1816 20.4266 42.6564L20.5369 43.4017H21.6411ZM26.3368 43.4017H24.5825L22.4701 36.5285H24.0025L25.3136 40.7522L25.6055 42.0212C26.2669 40.1856 26.7363 38.3222 26.9711 36.5285H28.4612C28.0623 38.7916 27.3436 41.2764 26.3368 43.4017ZM33.0696 41.8145C32.5583 42.2562 32.0195 42.5048 31.5366 42.5048C30.8473 42.5048 30.4738 42.0906 30.4738 41.428C30.4738 40.7106 30.8745 40.1856 32.4762 40.1856H33.0696V41.8145ZM34.477 43.4017V38.4881C34.477 37.2323 33.7586 36.4035 32.0339 36.4035C31.0256 36.4035 30.1429 36.6523 29.4249 36.9693L29.6316 37.8396C30.1971 37.632 30.9298 37.4395 31.6477 37.4395C32.6408 37.4395 33.0693 37.8396 33.0693 38.6681V39.2894H32.5723C30.156 39.2894 29.0666 40.2267 29.0666 41.6359C29.0666 42.8502 29.7835 43.5404 31.1362 43.5404C32.0063 43.5404 32.6547 43.1816 33.2626 42.6564L33.3734 43.4017H34.477ZM14.688 44.5696C14.287 45.1556 13.6386 45.6195 12.9296 45.8812L12.2349 45.0629C12.775 44.7858 13.2377 44.3383 13.4531 43.9219C13.6386 43.5509 13.716 43.0738 13.716 41.9318V34.0839H15.2114V41.8234C15.2114 43.3509 15.0894 43.9683 14.688 44.5696Z" fill="white"/>
</svg>
