<svg width="48" height="48" viewBox="0 0 48 48" fill="none" xmlns="http://www.w3.org/2000/svg">
<path fill-rule="evenodd" clip-rule="evenodd" d="M20.0141 25.3314C20.0141 25.3314 18.8676 25.9985 20.8308 26.2239C23.21 26.4956 24.4252 26.4565 27.0461 25.9607C27.0461 25.9607 27.7362 26.3927 28.6994 26.7665C22.8223 29.2848 15.3985 26.6208 20.0141 25.3314ZM19.2956 22.0451C19.2956 22.0451 18.0095 22.9971 19.9745 23.2003C22.516 23.4628 24.5221 23.4842 27.9956 22.8158C27.9956 22.8158 28.4752 23.3027 29.23 23.5686C22.1252 25.6467 14.2124 23.7322 19.2956 22.0451Z" fill="white"/>
<path fill-rule="evenodd" clip-rule="evenodd" d="M25.3494 16.4698C26.7982 18.1375 24.9696 19.6374 24.9696 19.6374C24.9696 19.6374 28.6466 17.7396 26.9578 15.3622C25.381 13.1462 24.1715 12.0453 30.7185 8.24872C30.7185 8.24872 20.4414 10.8144 25.3494 16.4698Z" fill="white"/>
<path fill-rule="evenodd" clip-rule="evenodd" d="M33.1219 27.7624C33.1219 27.7624 33.9706 28.4621 32.1871 29.0032C28.7957 30.0304 18.0692 30.3402 15.0897 29.0441C14.0194 28.5779 16.0275 27.9317 16.6592 27.7952C17.3181 27.6528 17.6941 27.6787 17.6941 27.6787C16.5031 26.84 9.99546 29.326 14.3892 30.0392C26.37 31.9818 36.2292 29.1646 33.1219 27.7624ZM20.5656 18.6398C20.5656 18.6398 15.1101 19.9359 18.6339 20.4071C20.1223 20.6061 23.0872 20.5602 25.851 20.3284C28.1091 20.1389 30.3757 19.7335 30.3757 19.7335C30.3757 19.7335 29.5801 20.0749 29.0036 20.4678C23.4627 21.9254 12.7603 21.2465 15.8417 19.7566C18.4469 18.4964 20.5656 18.6398 20.5656 18.6398ZM30.3531 24.11C35.9851 21.184 33.3811 18.3716 31.563 18.7506C31.1185 18.8435 30.9191 18.9237 30.9191 18.9237C30.9191 18.9237 31.0849 18.6642 31.4002 18.5526C34.9963 17.2889 37.7614 22.281 30.2407 24.2579C30.2405 24.2579 30.3272 24.1797 30.3531 24.11Z" fill="white"/>
<path fill-rule="evenodd" clip-rule="evenodd" d="M26.9577 2.11664C26.9577 2.11664 30.0762 5.2371 23.9991 10.034C19.1256 13.8833 22.888 16.0774 23.9976 18.5853C21.1523 16.0186 19.0653 13.7588 20.4653 11.6561C22.5207 8.56948 28.216 7.07262 26.9577 2.11664Z" fill="white"/>
<path fill-rule="evenodd" clip-rule="evenodd" d="M21.1195 32.0412C26.5247 32.3869 34.8268 31.8493 35.0238 29.2911C35.0238 29.2911 34.6458 30.2608 30.5561 31.03C25.942 31.8986 20.2502 31.7975 16.8755 31.2404C16.8755 31.2404 17.567 31.8126 21.1195 32.0412Z" fill="white"/>
<path fill-rule="evenodd" clip-rule="evenodd" d="M34.7744 36.6287H34.61V36.5366H35.0535V36.6287H34.8892V37.0889H34.7744V36.6287ZM35.6594 36.6516H35.6574L35.494 37.0887H35.4191L35.2567 36.6516H35.2547V37.0887H35.1457V36.5363H35.3058L35.4562 36.927L35.6066 36.5363H35.7652V37.0887H35.6596L35.6594 36.6516ZM20.2341 41.8145C19.7244 42.2563 19.1855 42.5048 18.7016 42.5048C18.0124 42.5048 17.6383 42.0907 17.6383 41.4281C17.6383 40.7106 18.0388 40.1857 19.6414 40.1857H20.2339L20.2341 41.8145ZM21.6411 43.4018V38.4881C21.6411 37.2323 20.9249 36.4036 19.1984 36.4036C18.1912 36.4036 17.3081 36.6524 16.5902 36.9694L16.7969 37.8397C17.3624 37.632 18.0935 37.4395 18.8112 37.4395C19.8058 37.4395 20.2339 37.8397 20.2339 38.6682V39.2895H19.7368C17.3208 39.2895 16.2306 40.2268 16.2306 41.636C16.2306 42.8502 16.9491 43.5405 18.3015 43.5405C19.1708 43.5405 19.8202 43.1817 20.4266 42.6565L20.5369 43.4018H21.6411ZM26.3368 43.4018H24.5825L22.4701 36.5286H24.0025L25.3136 40.7522L25.6055 42.0212C26.2669 40.1857 26.7363 38.3223 26.9711 36.5286H28.4612C28.0623 38.7917 27.3436 41.2764 26.3368 43.4018ZM33.0696 41.8145C32.5583 42.2563 32.0195 42.5048 31.5366 42.5048C30.8473 42.5048 30.4738 42.0907 30.4738 41.4281C30.4738 40.7106 30.8745 40.1857 32.4762 40.1857H33.0696V41.8145ZM34.477 43.4018V38.4881C34.477 37.2323 33.7586 36.4036 32.0339 36.4036C31.0256 36.4036 30.1429 36.6524 29.4249 36.9694L29.6316 37.8397C30.1971 37.632 30.9298 37.4395 31.6477 37.4395C32.6408 37.4395 33.0693 37.8397 33.0693 38.6682V39.2895H32.5723C30.156 39.2895 29.0666 40.2268 29.0666 41.636C29.0666 42.8502 29.7835 43.5405 31.1362 43.5405C32.0063 43.5405 32.6547 43.1817 33.2626 42.6565L33.3734 43.4018H34.477ZM14.688 44.5697C14.287 45.1556 13.6386 45.6196 12.9296 45.8813L12.2349 45.063C12.775 44.7858 13.2377 44.3384 13.4531 43.922C13.6386 43.551 13.716 43.0738 13.716 41.9318V34.084H15.2114V41.8235C15.2114 43.351 15.0894 43.9683 14.688 44.5697Z" fill="white"/>
</svg>
