<svg width="40" height="40" viewBox="0 0 40 40" fill="none" xmlns="http://www.w3.org/2000/svg">
<g clip-path="url(#clip0_394_8453)">
<path d="M19.8612 0.597509C19.5076 0.615449 19.1613 0.703206 18.8424 0.855634L4.93585 7.50001C4.57595 7.6719 4.25972 7.922 4.01064 8.23172C3.76157 8.54145 3.58604 8.90284 3.4971 9.28907L0.0667892 24.2141C-0.0124079 24.5579 -0.0212707 24.914 0.0407253 25.2613C0.102721 25.6086 0.234317 25.94 0.427727 26.2359C0.474658 26.3084 0.525135 26.3784 0.578977 26.4459L10.204 38.4134C10.4531 38.7231 10.7694 38.9731 11.1293 39.145C11.4893 39.3168 11.8836 39.406 12.283 39.4059L27.7187 39.4022C28.118 39.4025 28.5122 39.3136 28.8721 39.1421C29.232 38.9706 29.5484 38.7209 29.7977 38.4116L39.4193 26.4425C39.6686 26.1327 39.8442 25.7712 39.9332 25.3848C40.0222 24.9984 40.0223 24.5971 39.9334 24.2106L36.4971 9.28563C36.4082 8.89935 36.2327 8.53789 35.9836 8.22811C35.7345 7.91833 35.4183 7.66819 35.0584 7.49626L21.1505 0.855634C20.7493 0.663869 20.306 0.575113 19.8612 0.597509Z" fill="#3D4249"/>
<path d="M19.9924 5.66968V5.6728C19.5324 5.67718 19.1599 6.0903 19.1599 6.60155C19.1599 6.6103 19.1614 6.6178 19.1614 6.62468C19.1608 6.69405 19.1577 6.7778 19.1599 6.83843C19.1708 7.13405 19.2349 7.35968 19.2739 7.63062C19.3271 8.07437 19.3411 8.42655 19.3439 8.7828L19.3552 8.73155C19.3502 8.48187 19.3379 8.23239 19.3183 7.98343C19.3618 8.36718 19.3933 8.72218 19.3764 9.04343C19.3718 8.94187 19.3574 8.83187 19.3558 8.73655L19.3446 8.7878C19.3455 8.89624 19.3746 9.03468 19.3661 9.13874C19.3471 9.22937 19.2752 9.29343 19.2202 9.37062L19.2124 9.40843C19.2664 9.33749 19.323 9.26968 19.3561 9.18999C19.3143 9.32218 19.2249 9.43874 19.1352 9.53187C19.1602 9.49312 19.1808 9.44999 19.2102 9.41155L19.2183 9.37405C19.173 9.43749 19.1474 9.51687 19.098 9.56468L19.0961 9.56655L19.0761 9.91655C18.5717 9.95844 18.0708 10.0353 17.5771 10.1466C15.4962 10.6173 13.6031 11.6983 12.1402 13.2512C12.0477 13.1881 11.8902 13.0762 11.8433 13.0412L11.8418 13.0397L11.8386 13.0403C11.6893 13.0603 11.5418 13.105 11.348 12.9925C10.9771 12.7425 10.6383 12.3966 10.228 11.98C10.0402 11.7809 9.90394 11.5906 9.67988 11.3984C9.62894 11.3544 9.55176 11.2953 9.49488 11.2506C9.3286 11.1167 9.12382 11.0395 8.91051 11.0303C8.65269 11.0216 8.40426 11.1222 8.24176 11.3262C7.95269 11.6887 8.04551 12.2428 8.44738 12.5637L8.45988 12.5719C8.51426 12.6166 8.58176 12.6737 8.63238 12.7112C8.87051 12.8866 9.08769 12.9766 9.32301 13.1153C9.82113 13.4228 10.2324 13.6772 10.5593 13.9837C10.6849 14.1172 10.7074 14.3556 10.7249 14.4603V14.4628L10.9896 14.6984C9.56426 16.8466 8.90363 19.4984 9.29207 22.2003L8.94738 22.3016L8.94613 22.3034C8.85394 22.4225 8.72363 22.6072 8.59144 22.6619C8.16457 22.7962 7.68269 22.8456 7.10082 22.9066C6.82832 22.9294 6.59269 22.9162 6.30207 22.9712C6.23801 22.9837 6.14894 23.0062 6.07926 23.0225L6.07207 23.0244L6.05957 23.0278C5.56582 23.1475 5.24707 23.6019 5.35019 24.0503C5.45238 24.4987 5.93551 24.7709 6.43269 24.6637L6.44488 24.6619H6.44551C6.45176 24.6603 6.45738 24.6572 6.46113 24.6562C6.52988 24.6412 6.61613 24.6247 6.67676 24.6081C6.96207 24.5316 7.16863 24.4197 7.42457 24.3219C7.97457 24.1244 8.43019 23.9594 8.87363 23.8953C9.05551 23.8809 9.24988 24.0084 9.34769 24.0631L9.35019 24.0644L9.71019 24.0028C10.5458 26.5884 12.2933 28.6778 14.5058 29.9909L14.3558 30.3509L14.3568 30.3541C14.4111 30.4947 14.4705 30.6844 14.4308 30.8203C14.2696 31.2378 13.9933 31.6794 13.6783 32.1722C13.5258 32.3997 13.3689 32.5769 13.2314 32.8381C13.198 32.9009 13.1564 32.9966 13.1246 33.0622C12.9089 33.5231 13.0671 34.055 13.4818 34.2547C13.8989 34.4556 14.4161 34.2434 14.6402 33.7819L14.6424 33.7794V33.7762C14.6736 33.7116 14.718 33.6269 14.7452 33.5656C14.8633 33.295 14.903 33.0634 14.9858 32.8028H14.9849C15.2055 32.2487 15.3268 31.6694 15.6283 31.3097C15.7096 31.2128 15.8433 31.1747 15.9833 31.1372L15.9864 31.1359L16.1739 30.7972C18.6426 31.7463 21.3743 31.7532 23.8477 30.8166C23.9014 30.9112 23.9971 31.0869 24.0236 31.1322L24.0249 31.1341L24.0274 31.1353C24.1705 31.1819 24.3236 31.205 24.4493 31.3903C24.6749 31.7769 24.8299 32.235 25.0186 32.7887C25.1014 33.0487 25.1427 33.2809 25.2608 33.5516C25.288 33.6141 25.3327 33.7 25.3639 33.7653C25.5874 34.2284 26.1061 34.4412 26.5243 34.2403C26.9386 34.0403 27.0968 33.5091 26.8814 33.0481C26.8496 32.9825 26.8055 32.8862 26.7727 32.8234C26.6349 32.5622 26.478 32.3869 26.3258 32.1594C26.0102 31.6666 25.7499 31.2578 25.5883 30.84C25.5218 30.6259 25.5996 30.495 25.6527 30.3541L25.6546 30.3497L25.6514 30.3466C25.6404 30.33 25.631 30.3124 25.6233 30.2941C25.61 30.2642 25.5975 30.234 25.5858 30.2034C25.5608 30.1378 25.5358 30.0653 25.5158 30.0172C27.8152 28.6578 29.5114 26.4906 30.3096 23.9875C30.418 24.0044 30.6002 24.0359 30.6596 24.0478L30.6627 24.0484L30.6655 24.0472C30.7911 23.9644 30.903 23.8578 31.1264 23.8756C31.5699 23.9397 32.0252 24.105 32.5758 24.3025C32.8311 24.4 33.038 24.5141 33.3236 24.5903C33.3843 24.6066 33.4705 24.6219 33.5393 24.6369C33.543 24.6378 33.5483 24.6406 33.5549 24.6422H33.5555L33.568 24.6434C34.0649 24.75 34.5483 24.4784 34.6505 24.03C34.7527 23.5816 34.4346 23.1275 33.9405 23.0084C33.8696 22.9922 33.7683 22.9644 33.6983 22.9509C33.4077 22.8959 33.1724 22.9097 32.8993 22.8869C32.318 22.8259 31.8361 22.7766 31.4086 22.6422C31.2377 22.5756 31.1143 22.3697 31.053 22.2834L31.0511 22.2816L30.718 22.1847C30.8961 20.8905 30.8368 19.5748 30.543 18.3019C30.2486 17.0162 29.7208 15.7955 28.9858 14.7003C29.0727 14.6216 29.2311 14.4812 29.2771 14.4391L29.2793 14.4372V14.4341C29.293 14.2841 29.2811 14.1309 29.4339 13.9672C29.7605 13.6609 30.1727 13.4056 30.6705 13.0987C30.9061 12.96 31.1249 12.8703 31.3624 12.6947C31.4168 12.6547 31.4899 12.5922 31.5461 12.5469C31.948 12.2262 32.0411 11.6725 31.7518 11.3097C31.4627 10.9472 30.9024 10.9137 30.5008 11.2341C30.4439 11.2794 30.3664 11.3378 30.3152 11.3819C30.0911 11.575 29.9527 11.765 29.7652 11.9641C29.3549 12.3812 29.0158 12.7284 28.6446 12.9784C28.4861 13.0703 28.2514 13.0387 28.1436 13.0322H28.1411L27.8274 13.2569C26.0227 11.3669 23.568 10.1581 20.9243 9.92187C20.9165 9.79964 20.9098 9.67734 20.9043 9.55499V9.55249L20.9024 9.55062C20.793 9.44655 20.6649 9.35999 20.6324 9.13874V9.13812C20.5964 8.69187 20.6564 8.21093 20.7261 7.63062C20.7652 7.35968 20.8299 7.13374 20.8405 6.83843C20.8433 6.77093 20.8389 6.67374 20.8389 6.60155C20.8389 6.08749 20.463 5.66968 19.9989 5.66968H19.9924ZM9.00019 11.0553C9.04436 11.0616 9.0879 11.0705 9.13082 11.0822C9.08797 11.0701 9.04432 11.0611 9.00019 11.0553ZM18.9496 12.1412L18.7036 16.4944L18.6858 16.5034L18.6852 16.5075C18.6846 16.5231 18.6808 16.5372 18.6789 16.5522C18.6686 16.6458 18.6407 16.7367 18.5968 16.82C18.5853 16.8421 18.5727 16.8636 18.5589 16.8847C18.502 16.9677 18.4286 17.0381 18.3433 17.0916C18.3214 17.1056 18.2974 17.1166 18.2739 17.1284C18.1883 17.169 18.0957 17.193 18.0011 17.1991C17.9871 17.2 17.9736 17.2034 17.9596 17.2034C17.9439 17.2034 17.9302 17.1966 17.9149 17.1953C17.8109 17.1854 17.7104 17.153 17.6202 17.1003C17.6061 17.0922 17.5908 17.0875 17.5774 17.0787L17.5755 17.0856L17.5768 17.0787C17.563 17.0703 17.5449 17.0737 17.5318 17.0641L17.528 17.0609L17.5211 17.0653L13.9521 14.535C13.9811 14.5066 14.0121 14.4806 14.0418 14.4525C14.3568 14.1528 14.6943 13.8775 15.0511 13.6291C15.1252 13.5775 15.1989 13.5253 15.2746 13.4759C15.6543 13.2282 16.053 13.0111 16.4671 12.8266C16.5421 12.7931 16.6193 12.7628 16.6952 12.7312C17.1052 12.562 17.5277 12.425 17.9589 12.3212C17.9964 12.3119 18.0333 12.3003 18.0714 12.2919C18.2514 12.2512 18.4346 12.2275 18.6168 12.1984L18.6186 12.1906H18.6199L18.618 12.1984C18.7289 12.1809 18.8383 12.1547 18.9496 12.1412ZM21.0514 12.1419C21.113 12.1494 21.1733 12.1631 21.2346 12.1722C21.5674 12.2215 21.8971 12.2899 22.2221 12.3772C22.3508 12.4118 22.4784 12.4493 22.6049 12.4897C22.9276 12.5929 23.2441 12.7148 23.5527 12.8547C23.6698 12.9078 23.7856 12.9635 23.9002 13.0219C24.2049 13.1775 24.5002 13.351 24.7846 13.5412C24.8917 13.6133 24.9974 13.688 25.1018 13.7653C25.3741 13.9661 25.6345 14.1825 25.8818 14.4134C25.9268 14.4553 25.9746 14.4937 26.0186 14.5369L22.473 17.0506L22.4605 17.0459L22.4574 17.0484C22.4433 17.0584 22.428 17.0625 22.4136 17.0716C22.3298 17.1246 22.236 17.1601 22.138 17.1759C22.1139 17.1797 22.0902 17.1853 22.0661 17.1862C21.9602 17.1904 21.8547 17.1717 21.7568 17.1312C21.7282 17.1201 21.7005 17.1068 21.6739 17.0916C21.5827 17.0412 21.5032 16.9719 21.4408 16.8884C21.4252 16.8669 21.4133 16.8428 21.4002 16.8197C21.3524 16.7341 21.3218 16.6399 21.3102 16.5425C21.3083 16.5253 21.3021 16.5103 21.3008 16.4928V16.4894L21.2974 16.4875L21.0514 12.1419ZM29.6989 15.9619C29.8514 16.2725 29.9886 16.5897 30.1105 16.9134C29.9884 16.5899 29.8511 16.2724 29.6989 15.9619ZM12.6439 16.1775L15.9033 19.0925L15.8996 19.11L15.9027 19.1125C16.1964 19.3678 16.2371 19.8094 15.9943 20.1134C15.9855 20.1244 15.973 20.1312 15.9636 20.1416C15.8799 20.2344 15.7738 20.3043 15.6555 20.3447C15.6421 20.3494 15.6311 20.3581 15.6177 20.3619L15.6133 20.3625L15.6096 20.3772L11.4324 21.5834C11.4261 21.5256 11.4261 21.4678 11.4208 21.41C11.3896 21.0626 11.38 20.7136 11.3921 20.365C11.396 20.2442 11.4026 20.1235 11.4118 20.0031C11.438 19.656 11.4857 19.3109 11.5546 18.9697C11.5798 18.8426 11.6082 18.716 11.6399 18.59C11.7227 18.2546 11.826 17.9246 11.9493 17.6019C11.993 17.4864 12.0397 17.3722 12.0893 17.2591C12.2271 16.9384 12.3847 16.6267 12.5611 16.3256C12.5893 16.2769 12.6143 16.2256 12.6439 16.1775ZM27.3321 16.1797C27.3624 16.2291 27.3871 16.2809 27.4164 16.3306C27.5946 16.6343 27.7543 16.9484 27.8946 17.2712C27.9414 17.3794 27.9877 17.4881 28.0302 17.5981C28.1595 17.9336 28.2681 18.2768 28.3552 18.6256C28.3693 18.6803 28.3877 18.7337 28.4002 18.7891C28.6158 19.7272 28.6689 20.6637 28.5808 21.5691L24.3827 20.3597L24.3793 20.3419L24.3749 20.3406C24.3608 20.3369 24.3486 20.33 24.3352 20.3253C24.2446 20.2941 24.1608 20.2458 24.0883 20.1831C24.07 20.1673 24.0523 20.1506 24.0352 20.1331C23.9669 20.0587 23.9147 19.9711 23.8818 19.8756C23.8733 19.8512 23.868 19.8262 23.8621 19.8009C23.8415 19.7094 23.8384 19.6149 23.8527 19.5222C23.8555 19.5069 23.8558 19.4922 23.8589 19.4769C23.8621 19.4628 23.8708 19.4506 23.8746 19.4366C23.9093 19.3185 23.9737 19.2113 24.0618 19.1253C24.0724 19.115 24.0786 19.1016 24.0899 19.0919L24.093 19.0887L24.0911 19.0794L27.3321 16.1797ZM30.2158 17.2125C30.3194 17.5142 30.4094 17.8202 30.4858 18.1306C30.4093 17.8208 30.3192 17.5144 30.2158 17.2125ZM19.3333 19.3225H20.6652L21.4933 20.3581L21.1964 21.6497L19.9996 22.2247L18.8005 21.6472L18.5027 20.3559L19.3333 19.3225ZM23.623 22.8834C23.6793 22.8803 23.7346 22.8859 23.7896 22.8959L23.7939 22.8969L23.8011 22.8875L28.1224 23.6181C28.1024 23.6744 28.0764 23.7278 28.0552 23.7837C27.9322 24.1055 27.7903 24.4197 27.6302 24.7247C27.571 24.838 27.5093 24.9499 27.4449 25.0603C27.2692 25.3599 27.0758 25.6487 26.8658 25.9253C26.79 26.0253 26.7121 26.1233 26.6321 26.2194C26.4089 26.4867 26.1699 26.7405 25.9164 26.9794C25.8256 27.0648 25.7327 27.1481 25.6377 27.2294C25.3754 27.4551 25.0999 27.665 24.8127 27.8581C24.7627 27.8916 24.7158 27.9284 24.6655 27.9609L22.9889 23.9087L22.9936 23.9019L22.9924 23.8984C22.9861 23.8844 22.9843 23.8697 22.9789 23.8556C22.9475 23.7665 22.9332 23.6722 22.9368 23.5778C22.938 23.5525 22.9386 23.5272 22.9424 23.5022C22.9579 23.4033 22.9934 23.3087 23.0468 23.2241C23.0608 23.2016 23.0774 23.1812 23.0936 23.1603C23.1525 23.0873 23.2246 23.0261 23.3061 22.9797C23.3196 22.9722 23.3308 22.9625 23.3446 22.9559C23.4349 22.9125 23.5293 22.8878 23.623 22.8834ZM16.3386 22.9009L16.3427 22.9016C16.3521 22.9016 16.3614 22.9041 16.3714 22.9047C16.5097 22.914 16.6425 22.9622 16.7546 23.0437C16.776 23.0592 16.7964 23.0756 16.8158 23.0931C16.9187 23.1857 16.9934 23.3055 17.0311 23.4387C17.0336 23.4481 17.038 23.4572 17.0405 23.4669C17.0749 23.6166 17.0608 23.7731 16.9999 23.9141L16.9983 23.9178L17.0108 23.9334L15.3514 27.945C15.303 27.9137 15.2577 27.8787 15.2105 27.8466C14.9233 27.6536 14.6478 27.4437 14.3855 27.2181C14.2909 27.1365 14.1981 27.0528 14.1071 26.9672C13.8558 26.7306 13.6187 26.4793 13.3971 26.2147C13.3158 26.1172 13.2367 26.0181 13.1596 25.9175C12.9537 25.6471 12.7638 25.365 12.5908 25.0725C12.5227 24.9571 12.4574 24.8401 12.3949 24.7216C12.237 24.423 12.0966 24.1155 11.9743 23.8006C11.9524 23.7441 11.9261 23.6894 11.9055 23.6322L16.1889 22.9053L16.1961 22.9147L16.2005 22.9131C16.2463 22.9048 16.2922 22.9007 16.3386 22.9009ZM19.973 24.6637C19.9911 24.6631 20.0086 24.6678 20.0268 24.6684C20.1073 24.6717 20.1868 24.6885 20.2618 24.7181C20.2786 24.7247 20.2968 24.7275 20.313 24.7356V24.7362C20.4519 24.8019 20.5662 24.9103 20.6389 25.0456L20.6408 25.0494H20.6574L22.7689 28.8659C22.6827 28.8947 22.5949 28.92 22.5077 28.9459C22.4045 28.9767 22.3007 29.0056 22.1964 29.0325C22.108 29.0556 22.0202 29.0794 21.9308 29.0997C21.8921 29.1087 21.8527 29.1141 21.8133 29.1222C21.383 29.214 20.9463 29.2726 20.5071 29.2975C20.4196 29.3025 20.3327 29.3084 20.2452 29.3109C19.7941 29.3232 19.3427 29.2999 18.8952 29.2412C18.8077 29.23 18.7202 29.2147 18.6333 29.2006C18.2038 29.1313 17.7802 29.0294 17.3661 28.8959C17.3264 28.8831 17.2858 28.8734 17.2461 28.86L19.353 25.0512H19.3561L19.3583 25.0475C19.3664 25.0325 19.3786 25.0209 19.3877 25.0069C19.4377 24.9283 19.5019 24.8597 19.5771 24.8047C19.6027 24.7859 19.6298 24.7688 19.6583 24.7534C19.741 24.7098 19.8311 24.6821 19.9239 24.6716C19.9408 24.67 19.9561 24.6644 19.973 24.6637ZM23.6508 30.8687C23.3164 30.9879 22.9771 31.0903 22.6327 31.1759C22.9768 31.0901 23.3166 30.9876 23.6508 30.8687Z" fill="#8D95A3"/>
</g>
<defs>
<clipPath id="clip0_394_8453">
<rect width="40" height="40" fill="white"/>
</clipPath>
</defs>
</svg>
