<svg width="32" height="32" viewBox="0 0 32 32" fill="none" xmlns="http://www.w3.org/2000/svg">
<g clip-path="url(#clip0_389_128)">
<path d="M31.2999 5.375C30.8062 5.39375 30.9625 5.53125 29.8937 5.79375C28.8125 6.05625 27.4937 5.975 26.3375 6.4625C22.8687 7.91875 22.1749 12.8875 19.0187 14.6687C16.6624 16 14.2812 16.1062 12.1437 16.775C10.7375 17.2125 9.19995 18.1187 7.9312 19.2188C6.9437 20.0688 6.9187 20.8188 5.88745 21.8875C4.7812 23.0312 1.49995 21.9062 0.0124512 23.6562C0.493701 24.1437 0.699951 24.275 1.64995 24.15C1.4562 24.5187 0.299951 24.8313 0.524951 25.3813C0.762451 25.9563 3.54995 26.3438 6.08745 24.8125C7.2687 24.1 8.2062 23.075 10.05 22.825C12.4312 22.5063 15.1687 23.0312 17.9249 23.425C17.5187 24.6437 16.6937 25.45 16.0375 26.425C15.8312 26.6437 16.4437 26.6688 17.1437 26.5375C18.4 26.225 19.3062 25.975 20.25 25.425C21.4125 24.75 21.5937 23.0063 23.0187 22.6313C23.8125 23.8563 25.9812 24.1438 27.325 23.1625C26.1437 22.8313 25.8187 20.3187 26.2187 19.2125C26.5937 18.1687 26.9687 16.4937 27.35 15.1062C27.7562 13.6187 27.9062 11.75 28.4 10.9937C29.1437 9.85625 29.9625 9.4625 30.6749 8.825C31.3874 8.18125 32.0374 7.55625 32.0187 6.0875C31.9937 5.625 31.75 5.3625 31.2999 5.375Z" fill="white"/>
<path d="M30.2375 6.24377C30.3562 6.65002 30.5438 6.83127 31.3438 6.90627C31.225 7.92502 30.55 8.48127 29.7875 9.01252C29.1187 9.48127 28.3875 9.93127 27.9125 10.6688C27.4312 11.4188 27.125 13.9875 26.375 16.525C25.7313 18.7188 24.75 20.8875 23.05 21.8375C22.8687 21.3875 23.075 20.5625 22.7188 20.2875C22.4875 20.9438 22.2312 21.5625 21.925 22.1438C20.925 24.0563 19.4438 25.4875 16.9688 25.925C18.1437 24.3375 19.2688 22.6938 19.2938 19.9563C18.4688 20.1375 18.4875 22.0875 17.6375 22.6125C17.0938 22.6688 16.5438 22.6688 15.9875 22.6375C13.7063 22.5 11.3687 21.8125 9.2375 22.5C7.7875 22.9688 6.6 24.0688 5.36875 24.6C3.925 25.225 2.83125 25.4875 1.03125 25.225C0.8 24.9188 2.35 24.5188 2.25625 23.85C1.55 23.775 1.14375 23.9438 0.53125 23.6625C0.6 23.5375 0.7 23.4313 0.825 23.35C1.95 22.575 5.1375 23.1688 5.9875 22.3313C6.5125 21.8125 6.8625 21.275 7.21875 20.75C7.5625 20.2375 7.925 19.7438 8.46875 19.3C8.66875 19.1375 8.8875 18.975 9.125 18.8125C10.0562 18.175 11.2063 17.6 12.3438 17.2C13.8875 16.6563 15.45 16.6125 17.1 15.9813C18.1187 15.5938 19.225 15.1125 20.125 14.4438C20.3375 14.2813 20.5438 14.1125 20.7313 13.9313C23.3063 11.425 23.8125 7.00002 27.8312 6.58752C28.3187 6.53752 28.7125 6.55627 29.075 6.54377C29.4688 6.51877 29.8375 6.47502 30.2375 6.24377ZM25.3438 20.4063C25.3937 21.175 25.8375 22.6938 26.2313 23.0625C25.4625 23.25 24.1375 22.9375 23.7938 22.4C23.9688 21.6188 24.8813 20.9 25.3438 20.4063Z" fill="#CCCCCC"/>
<path d="M30.525 7.10627C30.3687 7.43127 30.075 7.85002 30.075 8.67502C30.075 8.81877 29.9687 8.91252 29.9625 8.69377C29.9687 7.88752 30.1813 7.53752 30.4125 7.08127C30.5188 6.89377 30.5875 6.96877 30.525 7.10627ZM30.3687 6.98127C30.1875 7.29377 29.7437 7.85627 29.675 8.68127C29.6625 8.82502 29.5438 8.91252 29.5625 8.69377C29.6437 7.88752 29.9938 7.38752 30.2625 6.95002C30.3813 6.76877 30.4437 6.85002 30.3687 6.98127ZM30.2313 6.81877C30.025 7.11252 29.3437 7.78752 29.2062 8.60627C29.1812 8.74377 29.0563 8.82502 29.0938 8.60627C29.2375 7.81252 29.825 7.18752 30.125 6.77502C30.2625 6.60627 30.3063 6.69377 30.2313 6.81877ZM30.1 6.63752L30.0312 6.71252C29.7313 7.03752 29.025 7.82502 28.7938 8.55002C28.75 8.68752 28.6187 8.74377 28.6812 8.53752C28.9375 7.76877 29.6437 6.95002 30 6.58127C30.1625 6.43127 30.2 6.52502 30.1 6.63752ZM26.4688 8.28127C26.625 7.60627 27.15 7.30002 28.05 7.37502C28.275 8.38127 27.0562 8.78127 26.4688 8.28127Z" fill="white"/>
</g>
<defs>
<clipPath id="clip0_389_128">
<rect width="32" height="32" fill="white"/>
</clipPath>
</defs>
</svg>
