<svg width="21" height="32" viewBox="0 0 21 32" fill="none" xmlns="http://www.w3.org/2000/svg">
<path d="M16.9402 13.2533C15.4469 6.69333 12.3536 4.98667 11.5536 3.70667C11.2336 3.17333 10.9136 2.58667 10.7002 2C10.6469 2.58667 10.5936 2.96 10.1136 3.38667C9.10023 4.29333 4.8869 7.76 4.51357 15.1733C4.19357 22.1067 9.63357 26.3733 10.3269 26.8533C10.8602 27.12 11.5536 26.8533 11.8736 26.5867C14.5402 24.8267 18.1136 20.0267 16.9402 13.2533Z" fill="#484848"/>
<path d="M10.9133 23.1733C10.7533 24.88 10.7 25.8933 10.3267 26.8533C10.3267 26.8533 10.54 28.5067 10.7 30.2133H11.2867C11.4467 28.9867 11.6067 27.76 11.9267 26.5867C11.18 26.2133 10.9667 24.6667 10.9133 23.1733Z" fill="#AAAAAA"/>
<path d="M11.9268 26.5866C11.1801 26.2666 10.9668 24.6666 10.9134 23.1733C11.0734 20.72 11.1268 18.2133 11.0734 15.76C11.0201 14.48 11.0734 3.75998 10.7534 2.21332C10.9668 2.74665 11.2334 3.27998 11.5534 3.75998C12.3534 4.98665 15.4468 6.74665 16.9401 13.3067C18.1134 20.0267 14.5401 24.7733 11.9268 26.5866Z" fill="#333333"/>
</svg>
