<svg width="33" height="32" viewBox="0 0 33 32" fill="none" xmlns="http://www.w3.org/2000/svg">
<g clip-path="url(#clip0_389_86)">
<path d="M29.9234 24.6618C28.156 24.6177 26.7862 24.7946 25.6374 25.2805C25.306 25.413 24.7757 25.4131 24.7315 25.8328C24.9083 26.0097 24.9304 26.2969 25.085 26.5398C25.3503 26.9815 25.8141 27.5782 26.2339 27.8876C26.6978 28.241 27.1618 28.5944 27.6477 28.9038C28.5094 29.434 29.4816 29.7433 30.3211 30.2735C30.8073 30.5826 31.293 30.9805 31.7791 31.3119C32.0222 31.4885 32.1768 31.7758 32.4861 31.8863V31.82C32.3314 31.6211 32.2872 31.334 32.1327 31.113C31.9119 30.8921 31.6908 30.6932 31.4699 30.4723C30.8292 29.6108 30.0339 28.8596 29.1722 28.241C28.4654 27.7549 26.9187 27.0921 26.6315 26.2747C26.6315 26.2747 26.6094 26.2526 26.5873 26.2306C27.0734 26.1864 27.6478 26.0097 28.1118 25.877C28.863 25.6781 29.5478 25.7224 30.3211 25.5236C30.6745 25.4352 31.0281 25.3247 31.3815 25.2142V25.0155C30.984 24.6177 30.6967 24.0876 30.2768 23.712C29.1502 22.7397 27.9129 21.7899 26.6315 20.9946C25.9466 20.5527 25.0629 20.2654 24.3338 19.8899C24.0688 19.7572 23.6268 19.6911 23.4723 19.4701C23.0745 18.9841 22.8536 18.3435 22.5664 17.769C21.926 16.5537 21.3071 15.2063 20.7548 13.9249C20.3573 13.0632 20.1142 12.2016 19.6281 11.4063C17.3526 7.65053 14.8782 5.375 11.0782 3.14355C10.2608 2.67966 9.28876 2.48077 8.25037 2.2378C7.69819 2.21563 7.14573 2.17155 6.59341 2.14938C6.23998 1.9947 5.88642 1.57502 5.57706 1.37613C4.31803 0.580711 1.07022 -1.14236 0.142305 1.13317C-0.454227 2.5692 1.02601 3.98304 1.53411 4.71221C1.90986 5.22032 2.39579 5.79467 2.66093 6.36917C2.8156 6.7445 2.85968 7.14242 3.01435 7.54006C3.36792 8.51192 3.69917 9.59465 4.1632 10.5005C4.40631 10.9644 4.67131 11.4505 4.98066 11.8702C5.15738 12.1131 5.46659 12.2237 5.53298 12.6214C5.22377 13.0632 5.20159 13.726 5.02474 14.2783C4.22945 16.7748 4.53881 19.8678 5.66548 21.7014C6.01891 22.2536 6.85854 23.469 7.98522 23.005C8.9794 22.6073 8.75847 21.348 9.04565 20.2434C9.11204 19.9781 9.06782 19.8015 9.20032 19.6248C9.20044 19.6468 9.20032 19.669 9.20032 19.669C9.50968 20.2876 9.81889 20.8841 10.1061 21.5027C10.791 22.5851 11.984 23.712 12.9781 24.4632C13.5085 24.8607 13.9282 25.5456 14.591 25.7887V25.7223H14.5468C14.4141 25.5235 14.2154 25.4352 14.0387 25.2805C13.641 24.8829 13.199 24.3968 12.8898 23.9549C11.9621 22.7176 11.1445 21.348 10.4154 19.934C10.062 19.2492 9.75264 18.498 9.46546 17.8132C9.33282 17.5479 9.33282 17.1504 9.1119 17.0179C8.78051 17.5038 8.29458 17.9236 8.05147 18.5202C7.63194 19.4701 7.58758 20.641 7.4329 21.8561C7.34462 21.8783 7.38869 21.8561 7.34448 21.9003C6.63762 21.7235 6.39452 20.9946 6.12937 20.3759C5.46659 18.8074 5.35613 16.2887 5.93062 14.4772C6.0853 14.0132 6.74808 12.5551 6.48294 12.1133C6.35044 11.6935 5.90844 11.4505 5.66548 11.1191C5.3783 10.6993 5.06895 10.1692 4.8702 9.70512C4.33992 8.46798 4.07478 7.09821 3.50042 5.86093C3.23528 5.28643 2.77139 4.69004 2.39579 4.1599C1.97611 3.56337 1.51208 3.14355 1.18068 2.43655C1.07036 2.19359 0.91554 1.79595 1.09225 1.53081C1.13647 1.35409 1.22475 1.28784 1.40161 1.24363C1.68879 1.00052 2.50625 1.30988 2.79342 1.44238C3.61088 1.77363 4.2957 2.08312 4.98065 2.54702C5.28987 2.76794 5.62126 3.18776 6.0189 3.29823H6.48293C7.18993 3.45276 7.98521 3.34244 8.64799 3.54119C9.81902 3.91665 10.8793 4.46911 11.8294 5.06564C14.7236 6.89931 17.1095 9.50636 18.7224 12.6214C18.9875 13.1294 19.0978 13.5935 19.3409 14.1237C19.805 15.2063 20.3793 16.3109 20.8432 17.3713C21.3071 18.4096 21.749 19.4701 22.4117 20.3318C22.7433 20.7956 24.0687 21.0387 24.6652 21.2818C25.1071 21.4805 25.792 21.6574 26.1897 21.9003C26.9408 22.3641 27.692 22.8945 28.399 23.4026C28.7525 23.6676 29.857 24.2201 29.9234 24.6618Z" fill="white"/>
<path d="M7.38866 5.46313C7.01305 5.46313 6.74805 5.50749 6.48291 5.57374C6.48291 5.57374 6.48291 5.59592 6.48291 5.61795H6.52712C6.70398 5.97138 7.01305 6.21449 7.23398 6.5237C7.41083 6.87713 7.56537 7.23069 7.74222 7.58426C7.76426 7.56208 7.7863 7.54005 7.7863 7.54005C8.09579 7.31898 8.25033 6.96555 8.25033 6.43541C8.11769 6.28073 8.09565 6.12606 7.98519 5.97138C7.85269 5.75031 7.56537 5.63999 7.38866 5.46313Z" fill="white"/>
</g>
<defs>
<clipPath id="clip0_389_86">
<rect width="32.5079" height="32" fill="white"/>
</clipPath>
</defs>
</svg>
