<svg width="34" height="35" viewBox="0 0 34 35" fill="none" xmlns="http://www.w3.org/2000/svg">
<g clip-path="url(#clip0_399_8619)">
<path d="M33.808 20.9583C33.6045 20.3421 33.0714 19.9128 32.382 19.8097C32.0569 19.7612 31.6846 19.7819 31.2441 19.8727C30.4763 20.0311 29.9066 20.0914 29.4909 20.1031C31.0601 17.4536 32.3361 14.4321 33.0707 11.588C34.2585 6.98913 33.6238 4.89406 32.8821 3.94635C30.9191 1.43812 28.0551 0.0905807 24.5998 0.0492734C22.7567 0.0267778 21.1385 0.390705 20.2945 0.652344C19.5085 0.513765 18.6634 0.436324 17.7767 0.42198C16.1148 0.395487 14.6462 0.757768 13.3914 1.5024C12.6965 1.26756 11.5817 0.936401 10.2941 0.725004C7.26575 0.227828 4.82509 0.61527 3.03986 1.87644C0.878085 3.40347 -0.124107 6.05655 0.061266 9.76205C0.120053 10.9386 0.778226 14.518 1.81444 17.9128C2.40998 19.864 3.04503 21.4844 3.70195 22.7293C4.63352 24.4945 5.63031 25.5341 6.74937 25.9073C7.37666 26.1164 8.51625 26.2626 9.71495 25.2645C9.86685 25.4484 10.0695 25.6313 10.3386 25.801C10.6801 26.0165 11.0979 26.1926 11.5151 26.2969C13.0187 26.6728 14.427 26.5787 15.6286 26.0519C15.6359 26.2656 15.6416 26.4698 15.6465 26.6461C15.6545 26.9321 15.6623 27.2125 15.6728 27.4747C15.744 29.2478 15.8646 30.6265 16.2221 31.591C16.2417 31.6442 16.2681 31.725 16.296 31.8107C16.4742 32.3567 16.7725 33.2706 17.531 33.9865C18.3166 34.7279 19.2667 34.9554 20.1369 34.9553C20.5734 34.9553 20.9898 34.8981 21.355 34.8198C22.657 34.5408 24.1356 34.1156 25.2052 32.5927C26.2164 31.1529 26.708 28.9844 26.797 25.5674C26.8085 25.4708 26.8191 25.3786 26.8294 25.2906C26.8363 25.2313 26.8434 25.1706 26.8505 25.1101L27.0888 25.131L27.1502 25.1352C28.4762 25.1956 30.0976 24.9144 31.0934 24.4519C31.8803 24.0867 34.4017 22.7556 33.808 20.9583Z" fill="#1A1A1A"/>
<path d="M31.5404 21.3079C27.5976 22.1212 27.3265 20.7863 27.3265 20.7863C31.4895 14.6091 33.2297 6.7682 31.7279 4.84917C27.6309 -0.38557 20.5387 2.09013 20.4204 2.1544L20.3823 2.16122C19.6033 1.99952 18.7316 1.90318 17.7518 1.88719C15.9677 1.85796 14.6145 2.3549 13.5876 3.13362C13.5876 3.13362 0.935887 -2.07838 1.5243 9.68871C1.64948 12.1921 5.11231 28.6303 9.24265 23.6652C10.7523 21.8496 12.2109 20.3145 12.2109 20.3145C12.9354 20.7957 13.8027 21.0412 14.7119 20.9531L14.7825 20.8931C14.7606 21.1185 14.7706 21.339 14.8108 21.6C13.7468 22.7888 14.0595 22.9976 11.9324 23.4354C9.78012 23.879 11.0445 24.6687 11.87 24.8751C12.8708 25.1253 15.1861 25.4799 16.7505 23.2899L16.6882 23.5397C17.1051 23.8737 17.3978 25.7118 17.3488 27.378C17.2997 29.0444 17.2669 30.1883 17.5954 31.0819C17.9239 31.9754 18.2513 33.9859 21.0475 33.3868C23.384 32.8861 24.5948 31.5886 24.7632 29.4242C24.8828 27.8855 25.1533 28.1129 25.1703 26.7373L25.3873 26.086C25.6375 24.0002 25.427 23.3273 26.8665 23.6402L27.2163 23.671C28.2758 23.7192 29.6625 23.5006 30.4763 23.1223C32.2288 22.309 33.2683 20.9511 31.5404 21.3079Z" fill="#222222"/>
<path d="M14.3284 10.8082C13.9732 10.7588 13.6514 10.8045 13.4886 10.9278C13.3969 10.9971 13.3687 11.0775 13.361 11.1328C13.3406 11.2793 13.4433 11.4412 13.5063 11.5248C13.6847 11.7613 13.9454 11.9238 14.2034 11.9597C14.2408 11.9648 14.278 11.9673 14.315 11.9673C14.7453 11.9673 15.1364 11.6323 15.1709 11.385C15.214 11.0753 14.7644 10.8689 14.3284 10.8082Z" fill="white"/>
<path d="M26.0988 10.818C26.0649 10.5753 25.6328 10.5061 25.2229 10.563C24.8135 10.6201 24.4165 10.8048 24.4497 11.0481C24.4763 11.2374 24.8179 11.5604 25.2223 11.5603C25.2564 11.5603 25.2909 11.558 25.3256 11.5532C25.5956 11.5158 25.7936 11.3443 25.8877 11.2455C26.0311 11.095 26.1139 10.9271 26.0988 10.818Z" fill="white"/>
<path d="M32.8527 21.2155C32.7024 20.7609 32.2185 20.6145 31.4145 20.7806C29.0275 21.2732 28.1727 20.932 27.8919 20.7253C29.7474 17.8987 31.2737 14.4821 32.0971 11.2942C32.4872 9.78417 32.7027 8.38183 32.7202 7.23887C32.7397 5.98413 32.5261 5.06228 32.0853 4.4991C30.3085 2.22869 27.7008 1.01087 24.5441 0.977402C22.374 0.953025 20.5405 1.50844 20.1851 1.66458C19.4365 1.47842 18.6205 1.36414 17.7322 1.34956C16.103 1.32322 14.6949 1.71325 13.529 2.5082C13.0225 2.31977 11.7137 1.87049 10.1132 1.61269C7.34603 1.16709 5.14718 1.50468 3.57797 2.61637C1.70558 3.94291 0.841184 6.31412 1.00869 9.66401C1.06504 10.7911 1.70715 14.2582 2.72063 17.5786C4.05461 21.9488 5.5046 24.4229 7.03038 24.9317C7.20894 24.9913 7.41492 25.033 7.64192 25.033C8.19851 25.033 8.88082 24.7821 9.59081 23.9286C10.7701 22.5099 11.8711 21.3211 12.277 20.8891C12.8767 21.2111 13.5355 21.3908 14.2095 21.4088C14.2107 21.4265 14.2125 21.4441 14.2141 21.4617C14.0789 21.622 13.968 21.7626 13.8734 21.8826C13.4065 22.4753 13.3093 22.5987 11.8063 22.9082C11.3788 22.9964 10.2431 23.2304 10.2266 24.0264C10.2085 24.8961 11.5688 25.2613 11.7238 25.3C12.2639 25.4352 12.7842 25.5019 13.2805 25.5019C14.4874 25.5019 15.5494 25.1053 16.3982 24.3378C16.372 27.4382 16.5014 30.4933 16.8736 31.4242C17.1784 32.1861 17.9233 34.0485 20.2761 34.0483C20.6212 34.0483 21.0013 34.0082 21.4193 33.9186C23.8747 33.3921 24.9409 32.3069 25.3534 29.9144C25.5741 28.6357 25.953 25.5823 26.1311 23.9445C26.507 24.0618 26.9911 24.1154 27.5144 24.1154C28.6058 24.1154 29.8651 23.8835 30.6549 23.5169C31.542 23.1049 33.143 22.0938 32.8527 21.2155ZM27.0053 10.1479C26.9972 10.6315 26.9306 11.0704 26.8601 11.5286C26.7842 12.0214 26.7057 12.5309 26.6859 13.1494C26.6664 13.7513 26.7416 14.3771 26.8143 14.9822C26.9612 16.2045 27.1119 17.4629 26.5284 18.7047C26.4377 18.5436 26.3501 18.3679 26.2699 18.1732C26.1974 17.9974 26.0399 17.715 25.8219 17.3241C24.9735 15.8027 22.9868 12.24 24.0038 10.7861C24.3067 10.3533 25.0755 9.90848 27.0053 10.1479ZM24.6662 1.95655C27.4945 2.01902 29.7318 3.0771 31.3159 5.10123C32.5308 6.65382 31.193 13.7184 27.32 19.813C27.2818 19.7644 27.2428 19.7153 27.2025 19.665C27.1865 19.6449 27.1701 19.6244 27.1535 19.6037C28.1543 17.9509 27.9586 16.3156 27.7844 14.8657C27.7129 14.2707 27.6453 13.7087 27.6625 13.1808C27.6803 12.6212 27.7543 12.1414 27.8257 11.6774C27.9138 11.1055 28.0032 10.5139 27.9785 9.81638C27.9969 9.74325 28.0044 9.6568 27.9947 9.55419C27.9317 8.88528 27.1681 6.88364 25.6116 5.07168C24.7603 4.08078 23.5187 2.97175 21.8234 2.22375C22.5526 2.07263 23.5498 1.9317 24.6662 1.95655ZM8.83952 23.3039C8.05734 24.2443 7.51713 24.0641 7.33952 24.0049C6.18205 23.6188 4.83913 21.1726 3.6551 17.2934C2.63057 13.9368 2.03181 10.5616 1.98446 9.61517C1.83483 6.62192 2.56041 4.53579 4.14114 3.41477C6.71364 1.59043 10.9431 2.68237 12.6426 3.23621C12.6182 3.26028 12.5928 3.28285 12.5685 3.30731C9.77979 6.12381 9.84594 10.9358 9.85276 11.2299C9.85252 11.3434 9.86201 11.5041 9.8751 11.7251C9.92307 12.5344 10.0123 14.0408 9.77383 15.7467C9.55209 17.3319 10.0407 18.8834 11.1142 20.0035C11.2254 20.1195 11.3414 20.2283 11.4612 20.3308C10.9833 20.8425 9.94486 21.9741 8.83952 23.3039ZM11.8197 19.3275C10.9544 18.4248 10.5615 17.169 10.7415 15.882C10.9934 14.0799 10.9003 12.5104 10.8504 11.6673C10.8434 11.5493 10.8372 11.4459 10.8336 11.3643C11.241 11.0032 13.129 9.99149 14.4753 10.3C15.0899 10.4408 15.4641 10.8591 15.6198 11.5788C16.4254 15.3045 15.7265 16.8574 15.1649 18.1053C15.0491 18.3624 14.9397 18.6054 14.8463 18.8568L14.774 19.0511C14.5907 19.5425 14.4202 19.9993 14.3146 20.4331C13.3948 20.4303 12.5 20.0375 11.8197 19.3275ZM11.9608 24.3522C11.6923 24.2851 11.4507 24.1685 11.309 24.0719C11.4274 24.0161 11.6381 23.9404 12.0034 23.8652C13.7716 23.5011 14.0446 23.2442 14.641 22.4871C14.7777 22.3135 14.9327 22.1167 15.1473 21.877L15.1475 21.8767C15.4673 21.5188 15.6134 21.5795 15.8786 21.6894C16.0935 21.7784 16.3028 22.0477 16.3877 22.3442C16.4278 22.4842 16.473 22.75 16.3254 22.9566C15.0797 24.7008 13.2645 24.6784 11.9608 24.3522ZM21.2145 32.9633C19.0514 33.4268 18.2855 32.3231 17.7808 31.0613C17.455 30.2467 17.295 26.5735 17.4085 22.5172C17.41 22.4632 17.4024 22.411 17.3875 22.362C17.3745 22.2674 17.3546 22.1717 17.327 22.0754C17.158 21.4852 16.7465 20.9915 16.2526 20.7868C16.0565 20.7055 15.6963 20.5564 15.2635 20.667C15.3559 20.2868 15.5159 19.8575 15.6894 19.3925L15.7622 19.1969C15.8442 18.9764 15.947 18.748 16.0558 18.5063C16.6435 17.2006 17.4484 15.4123 16.5748 11.3723C16.2476 9.8591 15.1549 9.12019 13.4985 9.29177C12.5054 9.39453 11.5969 9.79522 11.1438 10.025C11.0464 10.0743 10.9572 10.122 10.874 10.1685C11.0004 8.64379 11.4783 5.79452 13.2657 3.99182C14.3911 2.85684 15.8899 2.29634 17.716 2.32651C21.3142 2.38546 23.6215 4.23198 24.9237 5.77069C26.0457 7.09668 26.6533 8.43231 26.8958 9.15264C25.0723 8.96727 23.832 9.32728 23.2032 10.2261C21.8355 12.1812 23.9516 15.9762 24.9686 17.8C25.155 18.1343 25.316 18.4231 25.3667 18.5459C25.6978 19.3485 26.1266 19.8843 26.4396 20.2755C26.5356 20.3954 26.6287 20.5116 26.6995 20.6131C26.1472 20.7724 25.1551 21.1402 25.2455 22.9791C25.1726 23.9019 24.654 28.222 24.3907 29.7484C24.043 31.7648 23.3009 32.516 21.2145 32.9633ZM30.2434 22.6307C29.6787 22.8929 28.7336 23.0896 27.8357 23.1318C26.844 23.1782 26.3392 23.0207 26.2205 22.9238C26.1647 21.7779 26.5913 21.6581 27.0427 21.5313C27.1136 21.5114 27.1829 21.492 27.2496 21.4686C27.2912 21.5024 27.3366 21.536 27.3864 21.5688C28.1835 22.0949 29.6052 22.1517 31.6121 21.7374C31.6195 21.7358 31.6269 21.7344 31.6342 21.7329C31.3635 21.986 30.9003 22.3258 30.2434 22.6307Z" fill="#F0F0F0"/>
</g>
<defs>
<clipPath id="clip0_399_8619">
<rect width="33.9394" height="35" fill="white"/>
</clipPath>
</defs>
</svg>
