<svg width="40" height="40" viewBox="0 0 40 40" fill="none" xmlns="http://www.w3.org/2000/svg">
<path d="M19.8098 3.82749C18.4904 3.83374 17.231 3.94593 16.1223 4.14218C12.8566 4.71905 12.2641 5.92655 12.2641 8.15374V11.0947H19.9807V12.075H9.36788C7.12538 12.075 5.16163 13.4228 4.54725 15.9878C3.8385 18.9269 3.80725 20.7612 4.54725 23.8303C5.09569 26.115 6.40569 27.7425 8.6485 27.7425H11.3019V24.2169C11.3019 21.6697 13.5054 19.4231 16.1226 19.4231H23.8304C25.976 19.4231 27.6885 17.6562 27.6885 15.5019V8.15405C27.6885 6.06249 25.9241 4.49155 23.8304 4.14249C22.5041 3.92186 21.1288 3.82155 19.8098 3.82749ZM15.6366 6.1928C16.4335 6.1928 17.0848 6.85436 17.0848 7.66811C17.0848 8.47843 16.4338 9.13374 15.6366 9.13374C14.8366 9.13374 14.1888 8.47843 14.1888 7.66811C14.1885 6.85436 14.8366 6.1928 15.6366 6.1928Z" fill="#5C6370"/>
<path d="M28.6507 12.075V15.5019C28.6507 18.1581 26.3982 20.3941 23.8301 20.3941H16.1223C14.011 20.3941 12.2642 22.2012 12.2642 24.3156V31.6641C12.2642 33.755 14.0823 34.9853 16.1223 35.585C18.5648 36.3028 20.9073 36.4328 23.8301 35.585C25.7726 35.0222 27.6882 33.8903 27.6882 31.6641V28.7228H19.9807V27.7422H31.547C33.7895 27.7422 34.6257 26.1781 35.4057 23.83C36.2113 21.4128 36.1767 19.0881 35.4057 15.9875C34.8513 13.7547 33.7929 12.0747 31.547 12.0747L28.6507 12.075ZM24.3154 30.6834C25.1157 30.6834 25.7635 31.3387 25.7635 32.1497C25.7635 32.9628 25.1154 33.6244 24.3154 33.6244C23.5185 33.6244 22.8676 32.9628 22.8676 32.1497C22.8676 31.3387 23.5185 30.6834 24.3154 30.6834Z" fill="#5C6370"/>
</svg>
