<svg width="32" height="34" viewBox="0 0 32 34" fill="none" xmlns="http://www.w3.org/2000/svg">
<g clip-path="url(#clip0_394_8506)">
<path d="M30.68 13.5385H20.0437C19.5102 13.5385 19.0769 13.1052 19.0769 12.5717V1.48677C19.0769 0.665846 18.4111 0 17.5908 0H13.7938C12.9729 0 12.3077 0.665846 12.3077 1.48677V12.5046C12.3077 13.0763 11.8455 13.5409 11.2738 13.5434L7.78831 13.56C7.21169 13.5631 6.74338 13.0954 6.74462 12.5194L6.76615 1.48923C6.768 0.667077 6.10215 0 5.28 0H1.48615C0.665231 0 0 0.665846 0 1.48677V32.5262C0 33.2554 0.590769 33.8462 1.31938 33.8462H30.68C31.4092 33.8462 32 33.2554 32 32.5262V14.8585C32 14.1292 31.4092 13.5385 30.68 13.5385ZM25.6923 25.1926C25.6923 26.1483 24.9175 26.9231 23.9618 26.9231H20.9612C20.0055 26.9231 19.2308 26.1483 19.2308 25.1926V22.192C19.2308 21.2363 20.0055 20.4615 20.9612 20.4615H23.9618C24.9175 20.4615 25.6923 21.2363 25.6923 22.192V25.1926Z" fill="white"/>
</g>
<defs>
<clipPath id="clip0_394_8506">
<rect width="32" height="33.875" fill="white"/>
</clipPath>
</defs>
</svg>
