<svg width="32" height="28" viewBox="0 0 32 28" fill="none" xmlns="http://www.w3.org/2000/svg">
<g clip-path="url(#clip0_399_8579)">
<path d="M30.75 21.125C29.0375 22 20.1875 25.65 18.3125 26.625C16.425 27.6125 15.375 27.6 13.8875 26.8875C12.4 26.175 3 22.375 1.2875 21.5625C0.45 21.1625 0 20.8125 0 20.5V17.25C0 17.25 12.25 14.5875 14.2375 13.875C16.2125 13.175 16.9 13.15 18.5875 13.7625C20.2625 14.3875 30.3375 16.2 32 16.8V20C32 20.3125 31.625 20.6625 30.75 21.125Z" fill="#1E1E1E"/>
<path d="M30.7498 17.9C29.0373 18.7875 20.1873 22.425 18.3123 23.4C16.4248 24.4 15.3748 24.3875 13.8873 23.675C12.3998 22.9625 2.98729 19.1625 1.28729 18.35C-0.400208 17.5375 -0.437708 16.975 1.22479 16.325C2.89979 15.675 12.2498 12 14.2248 11.2875C16.2248 10.5875 16.8998 10.5625 18.5873 11.1625C20.2623 11.7875 29.0623 15.2875 30.7248 15.9C32.3873 16.5125 32.4498 17.0125 30.7498 17.9Z" fill="#3A3A3A"/>
<path d="M30.75 15.875C29.0375 16.775 20.1875 20.4125 18.3125 21.4C16.425 22.375 15.375 22.3625 13.8875 21.65C12.4 20.95 2.9875 17.15 1.2875 16.325C0.45 15.925 0 15.575 0 15.2625V12.025C0 12.025 12.25 9.36252 14.2375 8.65002C16.2125 7.93752 16.9 7.91252 18.5875 8.52502C20.2625 9.15002 30.3375 10.9625 32 11.575V14.75C32 15.0625 31.625 15.425 30.75 15.875Z" fill="#1E1E1E"/>
<path d="M30.7498 12.675C29.0373 13.55 20.1873 17.2 18.3123 18.175C16.4248 19.1625 15.3748 19.15 13.8873 18.4375C12.3998 17.725 2.99979 13.925 1.28729 13.125C-0.400208 12.3125 -0.437708 11.75 1.22479 11.1125C2.89979 10.4375 12.2498 6.75 14.2248 6.0625C16.2248 5.35 16.8998 5.3125 18.5873 5.9375C20.2623 6.5625 29.0623 10.0625 30.7248 10.6625C32.3873 11.2875 32.4498 11.7875 30.7498 12.6625" fill="#3A3A3A"/>
<path d="M30.75 10.4625C29.0375 11.3375 20.1875 14.9875 18.3125 15.9625C16.425 16.95 15.375 16.9375 13.8875 16.225C12.4 15.5125 3 11.7125 1.2875 10.9C0.45 10.5 0 10.15 0 9.83751V6.58751C0 6.58751 12.25 3.92501 14.2375 3.21251C16.2125 2.51251 16.9 2.48751 18.5875 3.10001C20.2625 3.72501 30.3375 5.53751 32 6.15001V9.33751C32 9.65001 31.625 10 30.75 10.4625Z" fill="#1E1E1E"/>
<path d="M30.7498 7.24998C29.0373 8.12498 20.1873 11.7625 18.3123 12.75C16.4248 13.7375 15.3748 13.725 13.8873 13C12.3998 12.3125 2.99979 8.49998 1.28729 7.69998C-0.400208 6.88748 -0.437708 6.32498 1.22479 5.67498C2.89979 5.01248 12.2498 1.33748 14.2248 0.624984C16.2248 -0.075016 16.8998 -0.100016 18.5873 0.512484C20.2623 1.13748 29.0623 4.63748 30.7248 5.23748C32.3873 5.84998 32.4498 6.36248 30.7498 7.23748" fill="#3A3A3A"/>
<path d="M19.9127 4.1L17.1627 4.375L16.5377 5.8625L15.5377 4.2125L12.3752 3.925L14.7502 3.0625L14.0252 1.75L16.2502 2.625L18.3377 1.9375L17.7752 3.3L19.9002 4.1M16.3752 11.2875L11.2502 9.1625L18.6002 8.025L16.3752 11.275M9.2502 4.9125C11.4377 4.9125 13.1877 5.6 13.1877 6.4375C13.1877 7.2875 11.4377 7.9625 9.2627 7.9625C7.0877 7.9625 5.3252 7.2875 5.3252 6.4375C5.3252 5.6 7.0877 4.9125 9.2627 4.9125" fill="#F0F0F0"/>
<path d="M23.1624 4.5L27.4999 6.225L23.1499 7.9375V4.5" fill="#1E1E1E"/>
<path d="M18.3501 6.4L23.1626 4.5V7.9375L22.6876 8.125L18.3501 6.4Z" fill="#2A2A2A"/>
</g>
<defs>
<clipPath id="clip0_399_8579">
<rect width="32" height="27.5" fill="white"/>
</clipPath>
</defs>
</svg>