<svg width="40" height="40" viewBox="0 0 40 40" fill="none" xmlns="http://www.w3.org/2000/svg">
<path d="M16.8803 31.124L14.0443 30.332L11.3643 27.276L14.3523 27.524L16.8803 31.124Z" fill="#B8852E"/>
<path d="M16.8798 31.124L18.9078 26.876L17.0118 26.608L14.3518 27.524L16.8798 31.124Z" fill="#D9A741"/>
<path d="M10.3236 29.112L8.73159 28.664L6.97559 26.66L8.83959 26.952L10.3236 29.112Z" fill="#B8852E"/>
<path d="M10.3238 29.112L11.4678 26.72L10.3998 26.568L8.83984 26.952L10.3238 29.112Z" fill="#D9A741"/>
<path d="M6.27979 26.728L7.90779 27.06L15.8838 20.124L7.90779 12.356L6.27979 13.176V26.728Z" fill="#876929"/>
<path d="M14.2037 13.724V26.476L7.90771 27.06V12.356L14.2037 13.724Z" fill="#D9A741"/>
<path d="M9.91992 27.492L12.7119 28.056L20.4239 19.124L12.7119 9.92799L9.91992 11.34V27.492Z" fill="#876929"/>
<path d="M28.6559 14.992V26.004L12.7119 28.056V9.92799L28.6559 14.992Z" fill="#D9A741"/>
<path d="M25.7718 33.748L21.7438 32.62L17.9358 28.276L22.1838 28.632L25.7718 33.748Z" fill="#B8852E"/>
<path d="M25.7718 33.748L28.6558 27.712L25.9598 27.328L22.1838 28.632L25.7718 33.748Z" fill="#D9A741"/>
<path d="M15.8838 28.652L19.9918 29.444L25.5638 17.848L19.9918 6.252L15.8838 8.328V28.652Z" fill="#876929"/>
<path d="M19.9922 29.444L33.7202 26.696V13.116L19.9922 6.252V29.444Z" fill="#D9A741"/>
</svg>
