<svg width="40" height="40" viewBox="0 0 40 40" fill="none" xmlns="http://www.w3.org/2000/svg">
<path d="M16.8803 31.124L14.0443 30.332L11.3643 27.276L14.3523 27.524L16.8803 31.124Z" fill="white"/>
<path d="M16.8796 31.124L18.9076 26.876L17.0116 26.608L14.3516 27.524L16.8796 31.124Z" fill="#E6E6E6"/>
<path d="M10.3236 29.112L8.73159 28.664L6.97559 26.66L8.83959 26.952L10.3236 29.112Z" fill="white"/>
<path d="M10.3238 29.112L11.4678 26.72L10.3998 26.568L8.83984 26.952L10.3238 29.112Z" fill="#E6E6E6"/>
<path d="M6.27979 26.728L7.90779 27.06L15.8838 20.124L7.90779 12.356L6.27979 13.176V26.728Z" fill="white"/>
<path d="M14.2037 13.724V26.476L7.90771 27.06V12.356L14.2037 13.724Z" fill="#E6E6E6"/>
<path d="M9.91992 27.492L12.7119 28.056L20.4239 19.124L12.7119 9.92798L9.91992 11.34V27.492Z" fill="white"/>
<path d="M28.6559 14.992V26.004L12.7119 28.056V9.92798L28.6559 14.992Z" fill="#E6E6E6"/>
<path d="M25.7715 33.748L21.7435 32.62L17.9355 28.276L22.1835 28.632L25.7715 33.748Z" fill="white"/>
<path d="M25.7716 33.748L28.6556 27.712L25.9596 27.328L22.1836 28.632L25.7716 33.748Z" fill="#E6E6E6"/>
<path d="M15.8838 28.652L19.9918 29.444L25.5638 17.848L19.9918 6.25201L15.8838 8.32801V28.652Z" fill="white"/>
<path d="M19.9922 29.444L33.7202 26.696V13.116L19.9922 6.25201V29.444Z" fill="#E6E6E6"/>
</svg>
