<svg width="420" height="395" viewBox="0 0 420 395" fill="none" xmlns="http://www.w3.org/2000/svg">
<path d="M306 96C306 65.8301 306 50.7452 296.627 41.3726C287.255 32 272.17 32 242 32H178C147.83 32 132.745 32 123.373 41.3726C114 50.7452 114 65.8301 114 96V160C114 190.17 114 205.255 123.373 214.627C132.745 224 147.83 224 178 224H242C272.17 224 287.255 224 296.627 214.627C306 205.255 306 190.17 306 160V96Z" fill="black"/>
<rect width="144" height="124" rx="24" transform="matrix(-1 0 0 1 290 48)" fill="white"/>
<path d="M242 80L258 100.513L242 120" stroke="black" stroke-width="14.4"/>
<path d="M210 80L194 100.513L210 120" stroke="black" stroke-width="14.4"/>
<path d="M43.2 334.6V338.1C43.2 343.633 41.55 348.1 38.25 351.5C34.95 354.9 30.5167 356.6 24.95 356.6C19.4167 356.6 14.9833 354.9 11.65 351.5C8.35 348.1 6.7 343.633 6.7 338.1V296.9C6.7 291.333 8.35 286.867 11.65 283.5C14.9833 280.1 19.4167 278.4 24.95 278.4C30.5167 278.4 34.95 280.1 38.25 283.5C41.55 286.867 43.2 291.333 43.2 296.9V300.4H31.7V296.9C31.7 294.8 31.1 293.117 29.9 291.85C28.7 290.55 27.05 289.9 24.95 289.9C22.85 289.9 21.2 290.55 20 291.85C18.8 293.117 18.2 294.8 18.2 296.9V338.1C18.2 340.2 18.8 341.9 20 343.2C21.2 344.467 22.85 345.1 24.95 345.1C27.05 345.1 28.7 344.467 29.9 343.2C31.1 341.9 31.7 340.2 31.7 338.1V334.6H43.2ZM69.0727 356.25C65.5727 356.25 62.5227 355.5 59.9227 354C57.3227 352.467 55.2893 350.333 53.8227 347.6C52.3893 344.867 51.6727 341.683 51.6727 338.05V317.15C51.6727 313.55 52.3893 310.383 53.8227 307.65C55.2893 304.883 57.3227 302.75 59.9227 301.25C62.5227 299.717 65.5727 298.95 69.0727 298.95C74.3393 298.95 78.5393 300.617 81.6727 303.95C84.8393 307.283 86.4227 311.683 86.4227 317.15V338.05C86.4227 343.483 84.8393 347.883 81.6727 351.25C78.5393 354.583 74.3393 356.25 69.0727 356.25ZM69.0727 345.5C71.1393 345.5 72.756 344.883 73.9227 343.65C75.0893 342.417 75.6727 340.8 75.6727 338.8V316.4C75.6727 314.4 75.0893 312.783 73.9227 311.55C72.756 310.317 71.1393 309.7 69.0727 309.7C67.006 309.7 65.3727 310.317 64.1727 311.55C63.006 312.783 62.4227 314.4 62.4227 316.4V338.8C62.4227 340.8 63.006 342.417 64.1727 343.65C65.3727 344.883 67.006 345.5 69.0727 345.5ZM110.461 356.25C108.028 356.25 105.744 355.717 103.611 354.65C101.478 353.55 99.7443 351.733 98.4109 349.2C97.0776 346.667 96.4109 343.2 96.4109 338.8V316.4C96.4109 312.033 97.0776 308.583 98.4109 306.05C99.7443 303.483 101.478 301.667 103.611 300.6C105.744 299.5 108.028 298.95 110.461 298.95C113.294 298.95 115.678 299.55 117.611 300.75C119.578 301.917 121.111 303.567 122.211 305.7L120.361 308.2V280H131.111V355H120.361V347.05L122.211 349.5C121.111 351.633 119.578 353.3 117.611 354.5C115.678 355.667 113.294 356.25 110.461 356.25ZM113.761 345.5C115.861 345.5 117.478 344.9 118.611 343.7C119.778 342.467 120.361 340.833 120.361 338.8V316.4C120.361 314.4 119.778 312.783 118.611 311.55C117.478 310.317 115.861 309.7 113.761 309.7C111.661 309.7 110.028 310.317 108.861 311.55C107.728 312.783 107.161 314.4 107.161 316.4V338.8C107.161 340.8 107.728 342.417 108.861 343.65C110.028 344.883 111.661 345.5 113.761 345.5ZM159.502 356.25C156.002 356.25 152.952 355.5 150.352 354C147.752 352.467 145.719 350.333 144.252 347.6C142.819 344.867 142.102 341.683 142.102 338.05V317.15C142.102 313.55 142.819 310.383 144.252 307.65C145.719 304.883 147.752 302.75 150.352 301.25C152.952 299.717 156.002 298.95 159.502 298.95C164.769 298.95 168.969 300.617 172.102 303.95C175.269 307.283 176.852 311.683 176.852 317.15V330.1H151.302V320.1H166.102V316.4C166.102 314.4 165.519 312.783 164.352 311.55C163.186 310.317 161.569 309.7 159.502 309.7C157.436 309.7 155.802 310.317 154.602 311.55C153.436 312.783 152.852 314.4 152.852 316.4V338.8C152.852 340.8 153.436 342.417 154.602 343.65C155.802 344.883 157.436 345.5 159.502 345.5C161.569 345.5 163.186 344.883 164.352 343.65C165.519 342.417 166.102 340.8 166.102 338.8V337.05H176.852V338.05C176.852 343.483 175.269 347.883 172.102 351.25C168.969 354.583 164.769 356.25 159.502 356.25ZM216.798 355L203.048 319.15L199.648 324.2V305.3L216.798 280H229.198L210.898 307.3L229.148 355H216.798ZM189.148 355V280H200.648V355H189.148ZM247.728 356.25C243.061 356.25 239.478 354.85 236.978 352.05C234.511 349.25 233.278 345.7 233.278 341.4C233.278 338.867 233.678 336.733 234.478 335C235.311 333.267 236.378 331.817 237.678 330.65C239.011 329.483 240.461 328.517 242.028 327.75C243.828 326.817 245.678 326.067 247.578 325.5C249.478 324.9 251.245 324.3 252.878 323.7C254.511 323.067 255.828 322.283 256.828 321.35C257.828 320.383 258.328 319.1 258.328 317.5V316.4C258.328 314.4 257.728 312.783 256.528 311.55C255.361 310.317 253.745 309.7 251.678 309.7C249.578 309.7 247.945 310.317 246.778 311.55C245.645 312.783 245.078 314.4 245.078 316.4V318.9H234.328V317.15C234.328 311.683 235.895 307.283 239.028 303.95C242.195 300.617 246.411 298.95 251.678 298.95C255.178 298.95 258.228 299.717 260.828 301.25C263.428 302.75 265.445 304.867 266.878 307.6C268.345 310.333 269.078 313.517 269.078 317.15V355H258.328V346.75L260.178 349.15C259.078 351.45 257.461 353.217 255.328 354.45C253.195 355.65 250.661 356.25 247.728 356.25ZM250.928 346.3C252.995 346.3 254.745 345.7 256.178 344.5C257.611 343.3 258.328 341.4 258.328 338.8V330.45C257.061 331.383 255.578 332.067 253.878 332.5C252.211 332.933 250.561 333.5 248.928 334.2C247.361 334.833 246.145 335.617 245.278 336.55C244.445 337.483 244.028 338.7 244.028 340.2C244.028 341.867 244.611 343.3 245.778 344.5C246.978 345.7 248.695 346.3 250.928 346.3ZM280.909 355V300.25H291.659V308.85L289.709 306.55C290.876 304.217 292.476 302.467 294.509 301.3C296.543 300.133 298.893 299.55 301.559 299.55H304.009V310.3H298.209C296.176 310.3 294.576 310.85 293.409 311.95C292.243 313.017 291.659 314.55 291.659 316.55V355H280.909ZM310.499 355V300.25H321.249V308.25L319.399 305.8C320.499 303.633 322.033 301.95 323.999 300.75C325.966 299.55 328.349 298.95 331.149 298.95C334.183 298.95 336.983 299.767 339.549 301.4C342.116 303.033 343.816 305.733 344.649 309.5L341.849 308.9C342.783 305.8 344.333 303.367 346.499 301.6C348.666 299.833 351.466 298.95 354.899 298.95C357.333 298.95 359.599 299.467 361.699 300.5C363.799 301.5 365.499 303.117 366.799 305.35C368.099 307.583 368.749 310.517 368.749 314.15V355H357.999V316.4C357.999 314.4 357.416 312.783 356.249 311.55C355.116 310.317 353.549 309.7 351.549 309.7C349.516 309.7 347.916 310.317 346.749 311.55C345.583 312.783 344.999 314.4 344.999 316.4V355H334.249V316.4C334.249 314.4 333.666 312.783 332.499 311.55C331.366 310.317 329.799 309.7 327.799 309.7C325.766 309.7 324.166 310.317 322.999 311.55C321.833 312.783 321.249 314.4 321.249 316.4V355H310.499ZM392.259 356.25C387.593 356.25 384.009 354.85 381.509 352.05C379.043 349.25 377.809 345.7 377.809 341.4C377.809 338.867 378.209 336.733 379.009 335C379.843 333.267 380.909 331.817 382.209 330.65C383.543 329.483 384.993 328.517 386.559 327.75C388.359 326.817 390.209 326.067 392.109 325.5C394.009 324.9 395.776 324.3 397.409 323.7C399.043 323.067 400.359 322.283 401.359 321.35C402.359 320.383 402.859 319.1 402.859 317.5V316.4C402.859 314.4 402.259 312.783 401.059 311.55C399.893 310.317 398.276 309.7 396.209 309.7C394.109 309.7 392.476 310.317 391.309 311.55C390.176 312.783 389.609 314.4 389.609 316.4V318.9H378.859V317.15C378.859 311.683 380.426 307.283 383.559 303.95C386.726 300.617 390.943 298.95 396.209 298.95C399.709 298.95 402.759 299.717 405.359 301.25C407.959 302.75 409.976 304.867 411.409 307.6C412.876 310.333 413.609 313.517 413.609 317.15V355H402.859V346.75L404.709 349.15C403.609 351.45 401.993 353.217 399.859 354.45C397.726 355.65 395.193 356.25 392.259 356.25ZM395.459 346.3C397.526 346.3 399.276 345.7 400.709 344.5C402.143 343.3 402.859 341.4 402.859 338.8V330.45C401.593 331.383 400.109 332.067 398.409 332.5C396.743 332.933 395.093 333.5 393.459 334.2C391.893 334.833 390.676 335.617 389.809 336.55C388.976 337.483 388.559 338.7 388.559 340.2C388.559 341.867 389.143 343.3 390.309 344.5C391.509 345.7 393.226 346.3 395.459 346.3Z" fill="black"/>
</svg>
