<svg width="20" height="20" viewBox="0 0 20 20" fill="none" xmlns="http://www.w3.org/2000/svg">
<path fill-rule="evenodd" clip-rule="evenodd" d="M14 5C14 7.20914 12.2091 9 10 9C7.79086 9 6 7.20914 6 5C6 2.79086 7.79086 1 10 1C12.2091 1 14 2.79086 14 5ZM12.5 5C12.5 6.38071 11.3807 7.5 10 7.5C8.61929 7.5 7.5 6.38071 7.5 5C7.5 3.61929 8.61929 2.5 10 2.5C11.3807 2.5 12.5 3.61929 12.5 5Z" fill="#CED0D6"/>
<path d="M10 10C11.4178 10 12.5676 10.2859 13.5 10.7496V12.4962C12.692 11.9111 11.5783 11.5 10 11.5C7.73231 11.5 6.42364 12.3487 5.60291 13.3429C4.80556 14.3087 4.39292 15.5112 4.18693 16.5H10V18H4.00001C3.17158 18 2.51162 17.327 2.65711 16.5114C3.06992 14.1974 4.56745 10 10 10Z" fill="#CED0D6"/>
<path d="M16.5 12.25C16.5 11.8358 16.1642 11.5 15.75 11.5C15.3358 11.5 15 11.8358 15 12.25V15H12.25C11.8358 15 11.5 15.3358 11.5 15.75C11.5 16.1642 11.8358 16.5 12.25 16.5H15V19.25C15 19.6642 15.3358 20 15.75 20C16.1642 20 16.5 19.6642 16.5 19.25V16.5H19.25C19.6642 16.5 20 16.1642 20 15.75C20 15.3358 19.6642 15 19.25 15H16.5V12.25Z" fill="#CED0D6"/>
</svg>
