<svg width="41" height="890" viewBox="0 0 41 890" fill="none" xmlns="http://www.w3.org/2000/svg">
<rect width="41" height="890" fill="#2B2D30"/>
<rect x="40" width="1" height="890" fill="#1E1F22"/>
<rect width="40" height="200" fill="#2B2D30"/>
<rect x="5" y="5" width="30" height="30" rx="6" fill="#3574F0"/>
<path d="M13.25 13.25H17.6377C17.6961 13.25 17.753 13.2703 17.7979 13.3076L20.5195 15.5762L20.7285 15.75H27C27.6904 15.75 28.25 16.3096 28.25 17V25.167C28.2498 26.0672 27.5529 26.75 26.75 26.75H13.25C12.4471 26.75 11.7502 26.0672 11.75 25.167V14.833C11.7502 13.9328 12.4471 13.25 13.25 13.25Z" stroke="white" stroke-width="1.5"/>
<path fill-rule="evenodd" clip-rule="evenodd" d="M17.25 53.5H14C13.7239 53.5 13.5 53.7239 13.5 54V57.25C13.5 57.5261 13.7239 57.75 14 57.75H17.25C17.5261 57.75 17.75 57.5261 17.75 57.25V54C17.75 53.7239 17.5261 53.5 17.25 53.5ZM14 52C12.8954 52 12 52.8954 12 54V57.25C12 58.3546 12.8954 59.25 14 59.25H17.25C18.3546 59.25 19.25 58.3546 19.25 57.25V54C19.25 52.8954 18.3546 52 17.25 52H14ZM17.25 62.25H14C13.7239 62.25 13.5 62.4739 13.5 62.75V66C13.5 66.2761 13.7239 66.5 14 66.5H17.25C17.5261 66.5 17.75 66.2761 17.75 66V62.75C17.75 62.4739 17.5261 62.25 17.25 62.25ZM14 60.75C12.8954 60.75 12 61.6454 12 62.75V66C12 67.1046 12.8954 68 14 68H17.25C18.3546 68 19.25 67.1046 19.25 66V62.75C19.25 61.6454 18.3546 60.75 17.25 60.75H14ZM22.75 62.25H26C26.2761 62.25 26.5 62.4739 26.5 62.75V66C26.5 66.2761 26.2761 66.5 26 66.5H22.75C22.4739 66.5 22.25 66.2761 22.25 66V62.75C22.25 62.4739 22.4739 62.25 22.75 62.25ZM20.75 62.75C20.75 61.6454 21.6454 60.75 22.75 60.75H26C27.1046 60.75 28 61.6454 28 62.75V66C28 67.1046 27.1046 68 26 68H22.75C21.6454 68 20.75 67.1046 20.75 66V62.75Z" fill="#CED0D6"/>
<path fill-rule="evenodd" clip-rule="evenodd" d="M29.25 99.25C29.6642 99.25 30 99.5858 30 100C30 100.414 29.6642 100.75 29.25 100.75L23.9298 100.75C23.5787 102.601 21.9528 104 20 104C18.0472 104 16.4213 102.601 16.0702 100.75L10.75 100.75C10.3358 100.75 10 100.414 10 100C10 99.5858 10.3358 99.25 10.75 99.25L16.0702 99.25C16.4213 97.3994 18.0472 96 20 96C21.9528 96 23.5787 97.3994 23.9298 99.25L29.25 99.25ZM20 102.5C21.3807 102.5 22.5 101.381 22.5 100C22.5 98.6193 21.3807 97.5 20 97.5C18.6193 97.5 17.5 98.6193 17.5 100C17.5 101.381 18.6193 102.5 20 102.5Z" fill="#CED0D6"/>
<path d="M15.5 132.25H24.5C25.1904 132.25 25.75 132.81 25.75 133.5V147.45C25.7498 147.658 25.5098 147.775 25.3457 147.646L20.4619 143.832L20 143.471L19.5381 143.832L14.6543 147.646C14.4902 147.775 14.2502 147.658 14.25 147.45V133.5C14.25 132.81 14.8096 132.25 15.5 132.25Z" stroke="#CED0D6" stroke-width="1.5"/>
<circle cx="13.5" cy="180" r="1.5" transform="rotate(-90 13.5 180)" fill="#CED0D6"/>
<circle cx="20" cy="180" r="1.5" transform="rotate(-90 20 180)" fill="#CED0D6"/>
<circle cx="26.5" cy="180" r="1.5" transform="rotate(-90 26.5 180)" fill="#CED0D6"/>
<rect width="40" height="160" transform="translate(0 730)" fill="#2B2D30"/>
<path fill-rule="evenodd" clip-rule="evenodd" d="M15.2169 745.623C15.5097 745.33 15.9846 745.33 16.2775 745.623L19.3547 748.7L16.2775 751.777C15.9846 752.07 15.5097 752.07 15.2169 751.777C14.924 751.484 14.924 751.009 15.2169 750.717L17.2334 748.7L15.2169 746.683C14.924 746.391 14.924 745.916 15.2169 745.623Z" fill="#CED0D6"/>
<path fill-rule="evenodd" clip-rule="evenodd" d="M19.25 752.75C19.25 752.336 19.5858 752 20 752H24C24.4142 752 24.75 752.336 24.75 752.75C24.75 753.164 24.4142 753.5 24 753.5H20C19.5858 753.5 19.25 753.164 19.25 752.75Z" fill="#CED0D6"/>
<rect x="11.75" y="742.75" width="16.5" height="14.5" rx="1.25" stroke="#CED0D6" stroke-width="1.5"/>
<path d="M26.125 788.917C26.9583 789.398 26.9583 790.602 26.125 791.083L15.625 797.145C14.7918 797.626 13.7502 797.025 13.75 796.062L13.75 783.937C13.7502 782.975 14.7918 782.374 15.625 782.855L26.125 788.917Z" stroke="#CED0D6" stroke-width="1.5"/>
<path fill-rule="evenodd" clip-rule="evenodd" d="M17.5 824.5C17.5 825.605 16.6046 826.5 15.5 826.5C14.3954 826.5 13.5 825.605 13.5 824.5C13.5 823.395 14.3954 822.5 15.5 822.5C16.6046 822.5 17.5 823.395 17.5 824.5ZM19 824.5C19 826.176 17.8226 827.576 16.25 827.919L16.25 833.25H19.5C20.2092 833.25 20.7035 833.25 21.0904 833.223C21.4706 833.197 21.692 833.149 21.861 833.079C22.4124 832.85 22.8504 832.412 23.0787 831.861C23.1487 831.692 23.1973 831.471 23.2232 831.09C23.244 830.785 23.2487 830.412 23.2497 829.919C21.6773 829.576 20.5 828.175 20.5 826.5C20.5 824.567 22.067 823 24 823C25.933 823 27.5 824.567 27.5 826.5C27.5 828.176 26.3225 829.576 24.7498 829.92C24.7488 830.419 24.7439 830.838 24.7197 831.193C24.6886 831.649 24.6229 832.053 24.4645 832.435C24.0839 833.354 23.3539 834.084 22.4351 834.465C22.0528 834.623 21.6491 834.689 21.1925 834.72C20.7485 834.75 20.203 834.75 19.5266 834.75H19.5H16.25V838C16.25 838.414 15.9142 838.75 15.5 838.75C15.0858 838.75 14.75 838.414 14.75 838L14.75 827.919C13.1774 827.576 12 826.176 12 824.5C12 822.567 13.567 821 15.5 821C17.433 821 19 822.567 19 824.5ZM26 826.5C26 827.605 25.1046 828.5 24 828.5C22.8954 828.5 22 827.605 22 826.5C22 825.395 22.8954 824.5 24 824.5C25.1046 824.5 26 825.395 26 826.5Z" fill="#CED0D6"/>
<circle cx="20" cy="870" r="8.25" stroke="#CED0D6" stroke-width="1.5"/>
<path d="M20 866L20 870" stroke="#CED0D6" stroke-width="2" stroke-linecap="round"/>
<circle cx="20.0008" cy="874" r="1.2" fill="#CED0D6"/>
</svg>
