<svg width="2204" height="1718" viewBox="0 0 2204 1718" fill="none" xmlns="http://www.w3.org/2000/svg">
<rect width="2204" height="1718" fill="black"/>
<path d="M209.6 349V263.8H225.2V344.2L216.68 335.44H265.64V349H209.6ZM302.565 350.44C296.165 350.44 290.605 349.08 285.885 346.36C281.165 343.56 277.525 339.64 274.965 334.6C272.405 329.56 271.125 323.68 271.125 316.96C271.125 310.24 272.405 304.4 274.965 299.44C277.525 294.4 281.125 290.48 285.765 287.68C290.485 284.88 295.965 283.48 302.205 283.48C308.285 283.48 313.605 284.84 318.165 287.56C322.805 290.28 326.365 294.2 328.845 299.32C331.325 304.44 332.565 310.6 332.565 317.8V321.28H287.085C287.405 326.88 288.925 331.12 291.645 334C294.445 336.8 298.125 338.2 302.685 338.2C306.125 338.2 308.965 337.44 311.205 335.92C313.525 334.32 315.125 332.12 316.005 329.32L331.725 330.28C329.965 336.52 326.485 341.44 321.285 345.04C316.165 348.64 309.925 350.44 302.565 350.44ZM287.085 310.96H316.725C316.405 305.76 314.925 301.92 312.285 299.44C309.645 296.88 306.285 295.6 302.205 295.6C298.125 295.6 294.725 296.92 292.005 299.56C289.365 302.2 287.725 306 287.085 310.96ZM371.932 368.44C366.332 368.44 361.532 367.68 357.532 366.16C353.532 364.64 350.292 362.48 347.812 359.68C345.412 356.96 343.732 353.8 342.772 350.2L358.612 349.12C359.412 351.52 360.772 353.4 362.692 354.76C364.692 356.12 367.772 356.8 371.932 356.8C376.652 356.8 380.292 355.72 382.852 353.56C385.412 351.48 386.692 348.2 386.692 343.72V335.56C385.172 338.68 382.732 341.2 379.372 343.12C376.012 344.96 372.252 345.88 368.092 345.88C362.812 345.88 358.092 344.6 353.932 342.04C349.852 339.4 346.652 335.76 344.332 331.12C342.012 326.4 340.852 320.96 340.852 314.8C340.852 308.64 341.972 303.24 344.212 298.6C346.532 293.88 349.732 290.2 353.812 287.56C357.892 284.84 362.572 283.48 367.852 283.48C372.492 283.48 376.492 284.52 379.852 286.6C383.212 288.68 385.652 291.44 387.172 294.88V284.92H402.172V343.36C402.172 348.8 400.892 353.4 398.332 357.16C395.852 360.92 392.332 363.72 387.772 365.56C383.292 367.48 378.012 368.44 371.932 368.44ZM371.692 333.88C376.252 333.88 379.892 332.2 382.612 328.84C385.332 325.4 386.732 320.68 386.812 314.68C386.892 310.68 386.292 307.28 385.012 304.48C383.812 301.6 382.052 299.4 379.732 297.88C377.492 296.28 374.812 295.48 371.692 295.48C366.972 295.48 363.292 297.24 360.652 300.76C358.092 304.2 356.812 308.84 356.812 314.68C356.812 320.52 358.132 325.2 360.772 328.72C363.492 332.16 367.132 333.88 371.692 333.88ZM437.586 350.44C430.866 350.44 425.466 348.92 421.386 345.88C417.306 342.76 415.266 338.44 415.266 332.92C415.266 327.4 416.986 323.08 420.426 319.96C423.866 316.84 429.106 314.6 436.146 313.24L457.386 309.04C457.386 304.48 456.346 301.08 454.266 298.84C452.186 296.52 449.106 295.36 445.026 295.36C441.346 295.36 438.426 296.24 436.266 298C434.186 299.68 432.746 302.12 431.946 305.32L416.346 304.6C417.626 297.8 420.746 292.6 425.706 289C430.666 285.32 437.106 283.48 445.026 283.48C454.146 283.48 461.026 285.8 465.666 290.44C470.386 295 472.746 301.56 472.746 310.12V333.4C472.746 335.08 473.026 336.24 473.586 336.88C474.226 337.52 475.146 337.84 476.346 337.84H478.386V349C477.906 349.16 477.106 349.28 475.986 349.36C474.946 349.44 473.866 349.48 472.746 349.48C470.106 349.48 467.746 349.08 465.666 348.28C463.586 347.4 461.986 345.92 460.866 343.84C459.746 341.68 459.186 338.76 459.186 335.08L460.506 336.04C459.866 338.84 458.466 341.36 456.306 343.6C454.226 345.76 451.586 347.44 448.386 348.64C445.186 349.84 441.586 350.44 437.586 350.44ZM440.706 339.28C444.146 339.28 447.106 338.6 449.586 337.24C452.066 335.88 453.986 334 455.346 331.6C456.706 329.2 457.386 326.36 457.386 323.08V319.48L440.826 322.84C437.386 323.56 434.906 324.64 433.386 326.08C431.946 327.44 431.226 329.24 431.226 331.48C431.226 333.96 432.026 335.88 433.626 337.24C435.306 338.6 437.666 339.28 440.706 339.28ZM515.498 350.44C509.098 350.44 503.538 349.08 498.818 346.36C494.098 343.56 490.418 339.64 487.778 334.6C485.218 329.56 483.938 323.68 483.938 316.96C483.938 310.24 485.218 304.4 487.778 299.44C490.418 294.4 494.098 290.48 498.818 287.68C503.538 284.88 509.098 283.48 515.498 283.48C520.938 283.48 525.778 284.44 530.018 286.36C534.258 288.28 537.698 291.04 540.338 294.64C543.058 298.16 544.738 302.48 545.378 307.6L529.538 308.44C528.898 304.36 527.298 301.28 524.738 299.2C522.258 297.04 519.178 295.96 515.498 295.96C510.538 295.96 506.698 297.84 503.978 301.6C501.258 305.28 499.898 310.4 499.898 316.96C499.898 323.6 501.258 328.76 503.978 332.44C506.698 336.12 510.538 337.96 515.498 337.96C519.258 337.96 522.378 336.88 524.858 334.72C527.418 332.56 528.978 329.2 529.538 324.64L545.378 325.36C544.738 330.48 543.098 334.92 540.458 338.68C537.818 342.44 534.378 345.36 530.138 347.44C525.898 349.44 521.018 350.44 515.498 350.44ZM558.429 367V355.12H566.589C568.669 355.12 570.189 354.8 571.149 354.16C572.189 353.52 572.989 352.44 573.549 350.92L575.349 346.48H570.909L547.989 284.92H563.949L580.029 332.08L595.389 284.92H611.349L586.269 355.72C584.829 359.72 582.789 362.6 580.149 364.36C577.589 366.12 573.989 367 569.349 367H558.429ZM651.866 349V263.8H672.866L696.386 329.8L719.906 263.8H740.906V349H725.306V290.2L703.826 348.88H688.946L667.466 290.2V349H651.866ZM757.072 349V284.92H772.432V349H757.072ZM756.832 276.4V262.72H772.792V276.4H756.832ZM815.487 368.44C809.887 368.44 805.087 367.68 801.087 366.16C797.087 364.64 793.847 362.48 791.367 359.68C788.967 356.96 787.287 353.8 786.327 350.2L802.167 349.12C802.967 351.52 804.327 353.4 806.247 354.76C808.247 356.12 811.327 356.8 815.487 356.8C820.207 356.8 823.847 355.72 826.407 353.56C828.967 351.48 830.247 348.2 830.247 343.72V335.56C828.727 338.68 826.287 341.2 822.927 343.12C819.567 344.96 815.807 345.88 811.647 345.88C806.367 345.88 801.647 344.6 797.487 342.04C793.407 339.4 790.207 335.76 787.887 331.12C785.567 326.4 784.407 320.96 784.407 314.8C784.407 308.64 785.527 303.24 787.767 298.6C790.087 293.88 793.287 290.2 797.367 287.56C801.447 284.84 806.127 283.48 811.407 283.48C816.047 283.48 820.047 284.52 823.407 286.6C826.767 288.68 829.207 291.44 830.727 294.88V284.92H845.727V343.36C845.727 348.8 844.447 353.4 841.887 357.16C839.407 360.92 835.887 363.72 831.327 365.56C826.847 367.48 821.567 368.44 815.487 368.44ZM815.247 333.88C819.807 333.88 823.447 332.2 826.167 328.84C828.887 325.4 830.287 320.68 830.367 314.68C830.447 310.68 829.847 307.28 828.567 304.48C827.367 301.6 825.607 299.4 823.287 297.88C821.047 296.28 818.367 295.48 815.247 295.48C810.527 295.48 806.847 297.24 804.207 300.76C801.647 304.2 800.367 308.84 800.367 314.68C800.367 320.52 801.687 325.2 804.327 328.72C807.047 332.16 810.687 333.88 815.247 333.88ZM862.541 349V284.92H876.941L877.541 302.68L876.221 302.44C877.181 296.28 878.981 291.84 881.621 289.12C884.341 286.32 888.021 284.92 892.661 284.92H898.541V298.12H892.541C889.261 298.12 886.541 298.6 884.381 299.56C882.221 300.52 880.581 302.04 879.461 304.12C878.421 306.12 877.901 308.76 877.901 312.04V349H862.541ZM925.906 350.44C919.186 350.44 913.786 348.92 909.706 345.88C905.626 342.76 903.586 338.44 903.586 332.92C903.586 327.4 905.306 323.08 908.746 319.96C912.186 316.84 917.426 314.6 924.466 313.24L945.706 309.04C945.706 304.48 944.666 301.08 942.586 298.84C940.506 296.52 937.426 295.36 933.346 295.36C929.666 295.36 926.746 296.24 924.586 298C922.506 299.68 921.066 302.12 920.266 305.32L904.666 304.6C905.946 297.8 909.066 292.6 914.026 289C918.986 285.32 925.426 283.48 933.346 283.48C942.466 283.48 949.346 285.8 953.986 290.44C958.706 295 961.066 301.56 961.066 310.12V333.4C961.066 335.08 961.346 336.24 961.906 336.88C962.546 337.52 963.466 337.84 964.666 337.84H966.706V349C966.226 349.16 965.426 349.28 964.306 349.36C963.266 349.44 962.186 349.48 961.066 349.48C958.426 349.48 956.066 349.08 953.986 348.28C951.906 347.4 950.306 345.92 949.186 343.84C948.066 341.68 947.506 338.76 947.506 335.08L948.826 336.04C948.186 338.84 946.786 341.36 944.626 343.6C942.546 345.76 939.906 347.44 936.706 348.64C933.506 349.84 929.906 350.44 925.906 350.44ZM929.026 339.28C932.466 339.28 935.426 338.6 937.906 337.24C940.386 335.88 942.306 334 943.666 331.6C945.026 329.2 945.706 326.36 945.706 323.08V319.48L929.146 322.84C925.706 323.56 923.226 324.64 921.706 326.08C920.266 327.44 919.546 329.24 919.546 331.48C919.546 333.96 920.346 335.88 921.946 337.24C923.626 338.6 925.986 339.28 929.026 339.28ZM999.08 349C992.68 349 987.96 347.52 984.92 344.56C981.96 341.6 980.48 336.96 980.48 330.64V269.92H995.84V329.2C995.84 332.16 996.48 334.24 997.76 335.44C999.04 336.56 1001.04 337.12 1003.76 337.12H1012.76V349H999.08ZM970.4 296.8V284.92H1012.76V296.8H970.4ZM1024.03 349V284.92H1039.39V349H1024.03ZM1023.79 276.4V262.72H1039.75V276.4H1023.79ZM1082.92 350.44C1076.6 350.44 1071.04 349.08 1066.24 346.36C1061.52 343.56 1057.84 339.64 1055.2 334.6C1052.64 329.56 1051.36 323.68 1051.36 316.96C1051.36 310.16 1052.64 304.28 1055.2 299.32C1057.84 294.28 1061.52 290.4 1066.24 287.68C1071.04 284.88 1076.6 283.48 1082.92 283.48C1089.24 283.48 1094.76 284.88 1099.48 287.68C1104.2 290.4 1107.84 294.28 1110.4 299.32C1113.04 304.28 1114.36 310.16 1114.36 316.96C1114.36 323.68 1113.04 329.56 1110.4 334.6C1107.84 339.64 1104.2 343.56 1099.48 346.36C1094.76 349.08 1089.24 350.44 1082.92 350.44ZM1082.92 337.96C1087.88 337.96 1091.68 336.12 1094.32 332.44C1097.04 328.76 1098.4 323.6 1098.4 316.96C1098.4 310.4 1097.04 305.28 1094.32 301.6C1091.68 297.84 1087.88 295.96 1082.92 295.96C1077.96 295.96 1074.12 297.84 1071.4 301.6C1068.68 305.28 1067.32 310.4 1067.32 316.96C1067.32 323.6 1068.68 328.76 1071.4 332.44C1074.12 336.12 1077.96 337.96 1082.92 337.96ZM1126.21 349V284.92H1140.13L1140.73 302.92L1138.93 302.2C1139.57 297.72 1140.89 294.12 1142.89 291.4C1144.89 288.68 1147.33 286.68 1150.21 285.4C1153.09 284.12 1156.25 283.48 1159.69 283.48C1164.41 283.48 1168.37 284.52 1171.57 286.6C1174.85 288.68 1177.33 291.56 1179.01 295.24C1180.69 298.84 1181.53 303.04 1181.53 307.84V349H1166.17V312.76C1166.17 309.16 1165.81 306.12 1165.09 303.64C1164.37 301.16 1163.17 299.28 1161.49 298C1159.89 296.64 1157.73 295.96 1155.01 295.96C1150.93 295.96 1147.65 297.4 1145.17 300.28C1142.77 303.16 1141.57 307.32 1141.57 312.76V349H1126.21ZM1251.84 350.92C1242.48 350.92 1235.28 348.96 1230.24 345.04C1225.2 341.04 1222.68 335.36 1222.68 328C1222.68 324.4 1223.24 321.16 1224.36 318.28C1225.56 315.4 1227.4 312.68 1229.88 310.12C1232.44 307.48 1235.84 304.8 1240.08 302.08C1238.24 299.92 1236.68 297.88 1235.4 295.96C1234.12 293.96 1233.12 291.92 1232.4 289.84C1231.76 287.68 1231.44 285.36 1231.44 282.88C1231.44 276.48 1233.52 271.4 1237.68 267.64C1241.92 263.8 1247.88 261.88 1255.56 261.88C1260.76 261.88 1265.12 262.72 1268.64 264.4C1272.16 266.08 1274.84 268.4 1276.68 271.36C1278.52 274.32 1279.44 277.72 1279.44 281.56C1279.44 286.44 1277.96 290.64 1275 294.16C1272.12 297.68 1267.52 301.36 1261.2 305.2L1276.68 324.52C1278.92 321.32 1280.08 316.52 1280.16 310.12L1295.76 311.56C1295.52 316.2 1294.56 320.68 1292.88 325C1291.28 329.32 1289.2 332.96 1286.64 335.92L1297.68 349H1279.56L1276.08 344.8C1273.6 346.64 1270.24 348.12 1266 349.24C1261.84 350.36 1257.12 350.92 1251.84 350.92ZM1253.28 337.24C1256.32 337.24 1258.88 336.92 1260.96 336.28C1263.12 335.64 1264.76 334.76 1265.88 333.64L1248.48 312.04C1245.04 314.28 1242.56 316.56 1241.04 318.88C1239.6 321.12 1238.88 323.72 1238.88 326.68C1238.88 329.88 1240.04 332.44 1242.36 334.36C1244.76 336.28 1248.4 337.24 1253.28 337.24ZM1253.28 295.72C1255.68 294.2 1257.6 292.8 1259.04 291.52C1260.56 290.24 1261.64 288.88 1262.28 287.44C1263 286 1263.36 284.48 1263.36 282.88C1263.36 280.48 1262.68 278.64 1261.32 277.36C1260.04 276.08 1258.16 275.44 1255.68 275.44C1253.04 275.44 1251 276.16 1249.56 277.6C1248.12 278.96 1247.4 280.88 1247.4 283.36C1247.4 284.64 1247.56 285.92 1247.88 287.2C1248.28 288.48 1248.88 289.8 1249.68 291.16C1250.56 292.44 1251.76 293.96 1253.28 295.72ZM1337.76 349V263.8H1353.36V304.48L1346.16 299.32H1396.32L1389.24 304.48V263.8H1404.84V349H1389.24V307.84L1396.32 312.88H1346.16L1353.36 307.84V349H1337.76ZM1426.2 367V355.12H1434.36C1436.44 355.12 1437.96 354.8 1438.92 354.16C1439.96 353.52 1440.76 352.44 1441.32 350.92L1443.12 346.48H1438.68L1415.76 284.92H1431.72L1447.8 332.08L1463.16 284.92H1479.12L1454.04 355.72C1452.6 359.72 1450.56 362.6 1447.92 364.36C1445.36 366.12 1441.76 367 1437.12 367H1426.2ZM1514.04 368.44C1508.44 368.44 1503.64 367.68 1499.64 366.16C1495.64 364.64 1492.4 362.48 1489.92 359.68C1487.52 356.96 1485.84 353.8 1484.88 350.2L1500.72 349.12C1501.52 351.52 1502.88 353.4 1504.8 354.76C1506.8 356.12 1509.88 356.8 1514.04 356.8C1518.76 356.8 1522.4 355.72 1524.96 353.56C1527.52 351.48 1528.8 348.2 1528.8 343.72V335.56C1527.28 338.68 1524.84 341.2 1521.48 343.12C1518.12 344.96 1514.36 345.88 1510.2 345.88C1504.92 345.88 1500.2 344.6 1496.04 342.04C1491.96 339.4 1488.76 335.76 1486.44 331.12C1484.12 326.4 1482.96 320.96 1482.96 314.8C1482.96 308.64 1484.08 303.24 1486.32 298.6C1488.64 293.88 1491.84 290.2 1495.92 287.56C1500 284.84 1504.68 283.48 1509.96 283.48C1514.6 283.48 1518.6 284.52 1521.96 286.6C1525.32 288.68 1527.76 291.44 1529.28 294.88V284.92H1544.28V343.36C1544.28 348.8 1543 353.4 1540.44 357.16C1537.96 360.92 1534.44 363.72 1529.88 365.56C1525.4 367.48 1520.12 368.44 1514.04 368.44ZM1513.8 333.88C1518.36 333.88 1522 332.2 1524.72 328.84C1527.44 325.4 1528.84 320.68 1528.92 314.68C1529 310.68 1528.4 307.28 1527.12 304.48C1525.92 301.6 1524.16 299.4 1521.84 297.88C1519.6 296.28 1516.92 295.48 1513.8 295.48C1509.08 295.48 1505.4 297.24 1502.76 300.76C1500.2 304.2 1498.92 308.84 1498.92 314.68C1498.92 320.52 1500.24 325.2 1502.88 328.72C1505.6 332.16 1509.24 333.88 1513.8 333.88ZM1559.92 349V284.92H1575.28V349H1559.92ZM1559.68 276.4V262.72H1575.64V276.4H1559.68ZM1618.7 350.44C1612.3 350.44 1606.74 349.08 1602.02 346.36C1597.3 343.56 1593.66 339.64 1591.1 334.6C1588.54 329.56 1587.26 323.68 1587.26 316.96C1587.26 310.24 1588.54 304.4 1591.1 299.44C1593.66 294.4 1597.26 290.48 1601.9 287.68C1606.62 284.88 1612.1 283.48 1618.34 283.48C1624.42 283.48 1629.74 284.84 1634.3 287.56C1638.94 290.28 1642.5 294.2 1644.98 299.32C1647.46 304.44 1648.7 310.6 1648.7 317.8V321.28H1603.22C1603.54 326.88 1605.06 331.12 1607.78 334C1610.58 336.8 1614.26 338.2 1618.82 338.2C1622.26 338.2 1625.1 337.44 1627.34 335.92C1629.66 334.32 1631.26 332.12 1632.14 329.32L1647.86 330.28C1646.1 336.52 1642.62 341.44 1637.42 345.04C1632.3 348.64 1626.06 350.44 1618.7 350.44ZM1603.22 310.96H1632.86C1632.54 305.76 1631.06 301.92 1628.42 299.44C1625.78 296.88 1622.42 295.6 1618.34 295.6C1614.26 295.6 1610.86 296.92 1608.14 299.56C1605.5 302.2 1603.86 306 1603.22 310.96ZM1660.7 349V284.92H1674.62L1675.22 302.92L1673.42 302.2C1674.06 297.72 1675.38 294.12 1677.38 291.4C1679.38 288.68 1681.82 286.68 1684.7 285.4C1687.58 284.12 1690.74 283.48 1694.18 283.48C1698.9 283.48 1702.86 284.52 1706.06 286.6C1709.34 288.68 1711.82 291.56 1713.5 295.24C1715.18 298.84 1716.02 303.04 1716.02 307.84V349H1700.66V312.76C1700.66 309.16 1700.3 306.12 1699.58 303.64C1698.86 301.16 1697.66 299.28 1695.98 298C1694.38 296.64 1692.22 295.96 1689.5 295.96C1685.42 295.96 1682.14 297.4 1679.66 300.28C1677.26 303.16 1676.06 307.32 1676.06 312.76V349H1660.7ZM1758.97 350.44C1752.57 350.44 1747.01 349.08 1742.29 346.36C1737.57 343.56 1733.93 339.64 1731.37 334.6C1728.81 329.56 1727.53 323.68 1727.53 316.96C1727.53 310.24 1728.81 304.4 1731.37 299.44C1733.93 294.4 1737.53 290.48 1742.17 287.68C1746.89 284.88 1752.37 283.48 1758.61 283.48C1764.69 283.48 1770.01 284.84 1774.57 287.56C1779.21 290.28 1782.77 294.2 1785.25 299.32C1787.73 304.44 1788.97 310.6 1788.97 317.8V321.28H1743.49C1743.81 326.88 1745.33 331.12 1748.05 334C1750.85 336.8 1754.53 338.2 1759.09 338.2C1762.53 338.2 1765.37 337.44 1767.61 335.92C1769.93 334.32 1771.53 332.12 1772.41 329.32L1788.13 330.28C1786.37 336.52 1782.89 341.44 1777.69 345.04C1772.57 348.64 1766.33 350.44 1758.97 350.44ZM1743.49 310.96H1773.13C1772.81 305.76 1771.33 301.92 1768.69 299.44C1766.05 296.88 1762.69 295.6 1758.61 295.6C1754.53 295.6 1751.13 296.92 1748.41 299.56C1745.77 302.2 1744.13 306 1743.49 310.96Z" fill="white"/>
<g clip-path="url(#clip0_478_3331)">
<path d="M750.466 1025.42C752.53 1024.55 754.913 1025.52 755.772 1027.59C756.64 1029.66 755.646 1032.04 753.566 1032.89C751.51 1033.72 749.161 1032.74 748.31 1030.69C747.459 1028.64 748.419 1026.29 750.466 1025.42Z" fill="#777776"/>
<path d="M774.352 1025.42C776.415 1024.55 778.799 1025.52 779.658 1027.59C780.526 1029.66 779.532 1032.04 777.451 1032.89C775.396 1033.72 773.046 1032.74 772.196 1030.69C771.345 1028.64 772.305 1026.29 774.352 1025.42Z" fill="#777776"/>
<path d="M798.238 1025.42C800.302 1024.55 802.686 1025.52 803.545 1027.59C804.412 1029.66 803.418 1032.04 801.338 1032.89C799.283 1033.72 796.933 1032.74 796.082 1030.69C795.232 1028.64 796.192 1026.29 798.238 1025.42Z" fill="#777776"/>
<path d="M822.124 1025.42C824.188 1024.55 826.571 1025.52 827.43 1027.59C828.298 1029.66 827.304 1032.04 825.224 1032.89C823.169 1033.72 820.819 1032.74 819.968 1030.69C819.117 1028.64 820.077 1026.29 822.124 1025.42Z" fill="#777776"/>
<path d="M846.01 1025.42C848.073 1024.55 850.457 1025.52 851.316 1027.59C852.184 1029.66 851.19 1032.04 849.109 1032.89C847.054 1033.72 844.704 1032.74 843.854 1030.69C843.003 1028.64 843.963 1026.29 846.01 1025.42Z" fill="#777776"/>
<path d="M872.004 1033.19C870.328 1033.39 868.702 1032.55 867.91 1031.06C867.119 1029.58 867.321 1027.76 868.416 1026.48C869.519 1025.21 871.288 1024.74 872.871 1025.3C874.657 1025.93 875.769 1027.71 875.558 1029.59C875.356 1031.47 873.882 1032.96 872.004 1033.19Z" fill="#777776"/>
<path d="M893.742 1025.5C895.107 1024.89 896.707 1025.09 897.869 1026.03C899.04 1026.96 899.587 1028.48 899.293 1029.94C898.989 1031.41 897.895 1032.59 896.446 1032.99C894.433 1033.55 892.336 1032.46 891.62 1030.5C890.912 1028.54 891.839 1026.36 893.742 1025.5Z" fill="#777776"/>
<path d="M917.341 1025.5C918.697 1024.76 920.356 1024.85 921.628 1025.71C922.908 1026.57 923.607 1028.07 923.43 1029.61C923.262 1031.14 922.243 1032.45 920.803 1033.01C918.764 1033.79 916.473 1032.86 915.555 1030.88C914.637 1028.9 915.421 1026.54 917.341 1025.5Z" fill="#777776"/>
<path d="M941.426 1025.53C942.782 1024.81 944.424 1024.91 945.679 1025.79C946.942 1026.66 947.599 1028.17 947.397 1029.69C947.195 1031.21 946.159 1032.48 944.71 1033C942.697 1033.71 940.465 1032.75 939.606 1030.79C938.739 1028.83 939.539 1026.54 941.426 1025.53Z" fill="#777776"/>
<path d="M1193.05 834.198C1170.37 834.217 1147.67 834.271 1124.99 834.339C1052.08 834.558 1015.62 834.668 993.038 857.304C970.456 879.94 970.435 916.39 970.392 989.29L970.349 1061.41C970.306 1134.44 970.285 1170.95 992.965 1193.63C1015.65 1216.32 1052.16 1216.3 1125.19 1216.28L1191.42 1216.25C1264.36 1216.22 1300.83 1216.21 1323.49 1193.54C1346.14 1170.87 1346.14 1134.41 1346.14 1061.47V1061.47L1346.14 987.937C1346.14 915.611 1346.13 879.448 1323.45 856.779C1300.76 834.109 1264.85 834.139 1193.05 834.198Z" fill="white" fill-opacity="0.12"/>
<path d="M1193.04 831.434C1228.87 831.404 1256.02 831.376 1277.04 834.226C1298.14 837.088 1313.46 842.897 1325.4 854.824C1337.34 866.754 1343.16 882.138 1346.04 903.365C1348.91 924.509 1348.9 951.852 1348.9 987.936L1348.9 1061.47V1061.47C1348.91 1097.86 1348.91 1125.43 1346.05 1146.72C1343.18 1168.1 1337.37 1183.56 1325.44 1195.49C1313.52 1207.43 1298.05 1213.24 1276.68 1216.12C1255.39 1218.99 1227.82 1219 1191.43 1219.01L1125.19 1219.04C1088.75 1219.05 1061.15 1219.07 1039.83 1216.21C1018.43 1213.34 1002.95 1207.53 991.011 1195.59C979.071 1183.65 973.262 1168.17 970.396 1146.77C967.542 1125.45 967.563 1097.84 967.585 1061.41L967.628 989.289C967.649 952.916 967.66 925.36 970.523 904.08C973.398 882.72 979.193 867.269 991.081 855.352C1002.97 843.435 1018.41 837.603 1039.76 834.677C1061.04 831.762 1088.6 831.684 1124.98 831.575C1147.67 831.506 1170.36 831.453 1193.04 831.434Z" stroke="black" stroke-opacity="0.12" stroke-width="5.52776"/>
<path fill-rule="evenodd" clip-rule="evenodd" d="M1277.91 902.728C1290.87 915.987 1290.87 937.326 1290.87 980.005V1070.54C1290.87 1113.22 1290.87 1134.56 1277.91 1147.82C1264.96 1161.08 1244.11 1161.08 1202.42 1161.08H1113.98C1072.28 1161.08 1051.44 1161.08 1038.49 1147.82C1025.53 1134.56 1025.53 1113.22 1025.53 1070.54V980.005C1025.53 937.326 1025.53 915.987 1038.49 902.728C1051.44 889.469 1072.28 889.469 1113.98 889.469H1202.42C1244.11 889.469 1264.96 889.469 1277.91 902.728ZM1259.04 922.047C1268.75 931.991 1268.75 947.996 1268.75 980.005V1025.27C1268.75 1057.28 1268.75 1073.29 1259.04 1083.23C1249.33 1093.17 1233.69 1093.17 1202.42 1093.17H1136.09C1104.82 1093.17 1089.18 1093.17 1079.47 1083.23C1069.76 1073.29 1069.76 1057.28 1069.76 1025.27V980.005C1069.76 947.996 1069.76 931.991 1079.47 922.047C1089.18 912.103 1104.82 912.103 1136.09 912.103H1202.42C1233.69 912.103 1249.33 912.103 1259.04 922.047Z" fill="#CDFF52"/>
<path d="M1202.42 957.37L1224.53 986.388L1202.42 1013.95" stroke="#CDFF52" stroke-width="19.8999"/>
<path d="M1158.2 957.37L1136.09 986.388L1158.2 1013.95" stroke="#CDFF52" stroke-width="19.8999"/>
<path d="M767.398 828.348C741.878 827.263 711.251 827.902 685.334 827.863L685.386 911.03L767.714 910.973C767.83 886.742 769.033 851.369 767.398 828.348Z" fill="#818594"/>
<path d="M272.541 804.743C271.952 837.012 272.256 872.011 272.598 904.279C304.497 905.048 340.262 904.594 372.208 904.243L372.179 804.699L272.541 804.743Z" fill="#FF6969"/>
<path d="M326.862 828.167C323.632 828.118 319.421 827.632 317.351 829.654C316.395 836.946 317.973 854.747 318.508 862.923C321.052 863.759 322.32 863.662 324.321 862.641C327.612 855.106 326.845 837.062 326.862 828.167Z" fill="black"/>
<path d="M326.796 869.942C323.422 869.786 321.13 869.31 318.126 870.797C316.372 873.519 316.974 877.233 317.089 880.675C320.439 880.821 322.782 881.297 325.773 879.839C327.508 877.301 326.895 873.276 326.796 869.942Z" fill="black"/>
<path d="M490.775 1164.03L409.634 1163.62C410.461 1190.64 409.649 1219.67 410.014 1247.07L490.81 1246.92C490.476 1219.46 490.714 1191.51 490.775 1164.03Z" fill="#818594"/>
<path d="M288.141 609.404L207 609C207.827 636.015 207.015 665.05 207.38 692.445L288.176 692.298C287.843 664.842 288.08 636.884 288.141 609.404Z" fill="#818594"/>
<path d="M504.122 673.294C479.339 670.482 456.916 688.158 453.864 712.912C450.812 737.667 468.272 760.259 492.995 763.551C518.059 766.887 541.032 749.135 544.125 724.04C547.219 698.945 529.246 676.145 504.122 673.294Z" fill="#818594"/>
<path d="M755.893 1267.74C758.279 1294.15 738.826 1317.49 712.424 1319.91C686.024 1322.33 662.653 1302.91 660.2 1276.51C657.739 1250.06 677.208 1226.64 703.656 1224.22C730.105 1221.79 753.503 1241.29 755.893 1267.74Z" fill="#FF6969"/>
<path d="M703.325 1247.26C706.533 1247.22 710.214 1246.81 712.658 1248.41C714.065 1255.6 711.834 1272.22 711.038 1280.14C709.379 1281.73 708.059 1281.23 706.251 1280.75C702.727 1275.17 703.274 1254.79 703.325 1247.26Z" fill="black"/>
<path d="M703.521 1286.97C706.624 1286.89 709.327 1286.41 711.954 1287.85C713.581 1290.16 713.03 1294.17 712.984 1297.21C709.83 1297.33 707.026 1297.81 704.291 1296.38C702.644 1293.75 703.336 1290.22 703.521 1286.97Z" fill="black"/>
<path d="M251.818 1040.33C227.811 1036 204.863 1052.03 200.663 1076.06C196.465 1100.08 212.619 1122.95 236.672 1127.01C260.538 1131.04 283.18 1115.05 287.345 1091.21C291.511 1067.36 275.637 1044.63 251.818 1040.33Z" fill="#818594"/>
<path d="M562.818 1360.71C538.811 1356.37 515.863 1372.4 511.663 1396.43C507.465 1420.46 523.619 1443.32 547.672 1447.39C571.538 1451.41 594.18 1435.42 598.345 1411.58C602.511 1387.73 586.637 1365.01 562.818 1360.71Z" fill="#818594"/>
<path d="M670.24 1023.62C661.259 1033.87 631.094 1094.72 622.587 1110.64L667.084 1110.74L717.278 1110.7C701.792 1081.57 686.112 1052.54 670.24 1023.62Z" fill="#818594"/>
<path d="M487.041 925.562C476.267 941.299 450.413 992.415 440.028 1011.73L487.597 1011.76C502.783 1011.91 517.969 1011.84 533.153 1011.54C518.856 983.216 502.292 953.476 487.041 925.562Z" fill="#818594"/>
<path d="M703.012 591C692.238 606.737 666.384 657.854 656 677.166L703.568 677.203C718.755 677.35 733.941 677.276 749.125 676.982C734.828 648.655 718.264 618.915 703.012 591Z" fill="#818594"/>
<path d="M283.276 1291.36C274.426 1301.68 245.104 1360.94 236.53 1376.7C251.982 1376.9 267.438 1376.9 282.891 1376.7C298.368 1376.89 313.847 1376.8 329.321 1376.45C317.304 1351.28 296.957 1316.46 283.276 1291.36Z" fill="#818594"/>
<path d="M1370.47 1025.42C1372.53 1024.55 1374.91 1025.52 1375.77 1027.59C1376.64 1029.66 1375.65 1032.04 1373.57 1032.89C1371.51 1033.72 1369.16 1032.74 1368.31 1030.69C1367.46 1028.64 1368.42 1026.29 1370.47 1025.42Z" fill="#C7F44B"/>
<path d="M1394.35 1025.42C1396.42 1024.55 1398.8 1025.52 1399.66 1027.59C1400.53 1029.66 1399.53 1032.04 1397.45 1032.89C1395.4 1033.72 1393.05 1032.74 1392.2 1030.69C1391.34 1028.64 1392.31 1026.29 1394.35 1025.42Z" fill="#C7F44B"/>
<path d="M1418.24 1025.42C1420.3 1024.55 1422.69 1025.52 1423.54 1027.59C1424.41 1029.66 1423.42 1032.04 1421.34 1032.89C1419.28 1033.72 1416.93 1032.74 1416.08 1030.69C1415.23 1028.64 1416.19 1026.29 1418.24 1025.42Z" fill="#C7F44B"/>
<path d="M1442.12 1025.42C1444.19 1024.55 1446.57 1025.52 1447.43 1027.59C1448.3 1029.66 1447.3 1032.04 1445.22 1032.89C1443.17 1033.72 1440.82 1032.74 1439.97 1030.69C1439.12 1028.64 1440.08 1026.29 1442.12 1025.42Z" fill="#C7F44B"/>
<path d="M1466.01 1025.42C1468.07 1024.55 1470.46 1025.52 1471.32 1027.59C1472.18 1029.66 1471.19 1032.04 1469.11 1032.89C1467.05 1033.72 1464.7 1032.74 1463.85 1030.69C1463 1028.64 1463.96 1026.29 1466.01 1025.42Z" fill="#C7F44B"/>
<path d="M1492 1033.19C1490.33 1033.39 1488.7 1032.55 1487.91 1031.06C1487.12 1029.58 1487.32 1027.76 1488.42 1026.48C1489.52 1025.21 1491.29 1024.74 1492.87 1025.3C1494.66 1025.93 1495.77 1027.71 1495.56 1029.59C1495.36 1031.47 1493.88 1032.96 1492 1033.19Z" fill="#C7F44B"/>
<path d="M1513.74 1025.5C1515.11 1024.89 1516.71 1025.09 1517.87 1026.03C1519.04 1026.96 1519.59 1028.48 1519.29 1029.94C1518.99 1031.41 1517.89 1032.59 1516.45 1032.99C1514.43 1033.55 1512.34 1032.46 1511.62 1030.5C1510.91 1028.54 1511.84 1026.36 1513.74 1025.5Z" fill="#C7F44B"/>
<path d="M1537.34 1025.5C1538.7 1024.76 1540.36 1024.85 1541.63 1025.71C1542.91 1026.57 1543.61 1028.07 1543.43 1029.61C1543.26 1031.14 1542.24 1032.45 1540.8 1033.01C1538.76 1033.79 1536.47 1032.86 1535.56 1030.88C1534.64 1028.9 1535.42 1026.54 1537.34 1025.5Z" fill="#C7F44B"/>
<path d="M1561.43 1025.53C1562.78 1024.81 1564.42 1024.91 1565.68 1025.79C1566.94 1026.66 1567.6 1028.17 1567.4 1029.69C1567.2 1031.21 1566.16 1032.48 1564.71 1033C1562.7 1033.71 1560.47 1032.75 1559.61 1030.79C1558.74 1028.83 1559.54 1026.54 1561.43 1025.53Z" fill="#C7F44B"/>
<path d="M1609.15 815L1692 815.126L1691.95 922.994L1669.19 922.98L1584 923L1584.08 815.402L1609.15 815Z" fill="#C9CCD6"/>
<path d="M1819.21 815.136L1847.9 815.494L1848 923L1769.95 922.993L1740 922.867L1740.05 815.34C1765.33 814.691 1793.72 815.178 1819.21 815.136Z" fill="#C9CCD6"/>
<path d="M1974.27 815L2003.92 815.301L2004 922.883L1926.14 922.819L1896 923C1896.33 887.019 1896.33 851.037 1896.03 815.055C1922.01 815.291 1948.27 815.048 1974.27 815Z" fill="#C9CCD6"/>
<path d="M1584 971.048L1691.53 971C1692.6 1005.17 1691.54 1044.35 1691.35 1078.8C1655.57 1079.06 1619.8 1079.06 1584.03 1078.82L1584 971.048Z" fill="#C2F23D"/>
<path d="M1740.25 971.137L1848 971L1847.85 1079L1740.25 1078.94C1739.69 1043.49 1740.23 1006.71 1740.25 971.137Z" fill="#C2F23D"/>
<path d="M1896.22 971.155C1931.72 970.789 1967.93 971.182 2003.49 971.22C2003.56 1003.84 2004.86 1046.47 2003 1078.5C1968.27 1079.45 1930.93 1078.77 1896.08 1078.7C1895.94 1042.85 1895.99 1007 1896.22 971.155Z" fill="#C2F23D"/>
<path d="M1584.12 1127L1691.88 1127.06C1692.08 1163.02 1692.03 1198.99 1691.72 1234.96L1584 1235L1584.12 1127Z" fill="#C9CCD6"/>
<path d="M1740 1127.07L1847.94 1127C1848.07 1163 1847.99 1199 1847.72 1235L1740.01 1234.95L1740 1127.07Z" fill="#C9CCD6"/>
<path d="M1896.23 1127H2003.49C2003.23 1160.06 2005.05 1202.99 2003.04 1234.98L1896 1235C1897.14 1200.2 1896 1162.19 1896.23 1127Z" fill="#C9CCD6"/>
<path d="M614.01 765.943C613.982 757.196 621.103 750.017 629.851 750.038C638.638 750.059 645.899 757.217 645.98 766.004C645.985 766.527 645.989 767.051 645.992 767.572C646.043 775.896 639.403 781.963 631.078 781.975L630.068 781.976C621.239 781.989 614.039 774.772 614.01 765.943Z" fill="#383A42"/>
<path d="M251 1212.82C250.995 1204.08 257.984 1197 266.716 1197C266.902 1197 267.087 1197 267.273 1197C275.954 1197.01 282.987 1204.09 282.97 1212.77C282.953 1221.64 275.584 1228.78 266.709 1228.82C258.076 1228.86 251.008 1221.97 251.001 1213.34C251 1213.16 251 1212.99 251 1212.82Z" fill="#383A42"/>
<path d="M567.038 905.035C567.017 896.193 574.182 889.004 583.024 889.008C591.848 889.012 598.997 896.179 598.994 905.003C598.991 913.819 591.847 920.978 583.03 920.986C574.215 920.994 567.059 913.85 567.038 905.035Z" fill="#383A42"/>
<path d="M378.001 1079.06C378.013 1070.25 385.17 1063.04 393.979 1063.01C394.11 1063.01 394.24 1063 394.37 1063C403.088 1062.97 409.994 1070.18 409.986 1078.9C409.978 1087.75 402.803 1094.99 393.952 1094.99C385.159 1095 377.99 1087.85 378.001 1079.06Z" fill="#383A42"/>
<path d="M555.026 1196.98C555.04 1188.18 562.176 1181.04 570.981 1181.03C579.821 1181.01 586.996 1188.18 586.992 1197.02C586.988 1205.84 579.838 1212.99 571.018 1212.99C562.178 1213 555.011 1205.82 555.026 1196.98Z" fill="#383A42"/>
<path d="M394.026 1360.98C394.04 1352.18 401.176 1345.04 409.981 1345.03C418.821 1345.01 425.996 1352.18 425.992 1361.02C425.988 1369.84 418.838 1376.99 410.018 1376.99C401.178 1377 394.011 1369.82 394.026 1360.98Z" fill="#383A42"/>
<path d="M670.026 1403.98C670.04 1395.18 677.176 1388.04 685.981 1388.03C694.821 1388.01 701.996 1395.18 701.992 1404.02C701.988 1412.84 694.838 1419.99 686.018 1419.99C677.178 1420 670.011 1412.82 670.026 1403.98Z" fill="#383A42"/>
<path d="M207.026 952.984C207.04 944.178 214.176 937.043 222.981 937.028C231.821 937.012 238.996 944.177 238.992 953.017C238.988 961.837 231.838 968.986 223.018 968.991C214.178 968.996 207.011 961.824 207.026 952.984Z" fill="#383A42"/>
<path d="M340.008 701.872C340.032 693.145 347.081 686.041 355.809 686.01C364.663 685.979 371.944 693.193 371.993 702.048C371.995 702.523 371.997 702.998 371.998 703.471C372.021 711.824 365.341 717.956 356.988 717.971L356.117 717.972C347.222 717.988 339.983 710.767 340.008 701.872Z" fill="#383A42"/>
</g>
<defs>
<clipPath id="clip0_478_3331">
<rect width="1804" height="906" fill="white" transform="translate(200 572)"/>
</clipPath>
</defs>
</svg>
