<svg width="2204" height="1718" viewBox="0 0 2204 1718" fill="none" xmlns="http://www.w3.org/2000/svg">
<rect width="2204" height="1718" fill="black"/>
<path d="M245.72 350.92C237.32 350.92 230.08 349.16 224 345.64C217.92 342.04 213.24 336.92 209.96 330.28C206.76 323.64 205.16 315.72 205.16 306.52C205.16 297.32 206.76 289.4 209.96 282.76C213.24 276.04 217.92 270.88 224 267.28C230.08 263.68 237.32 261.88 245.72 261.88C254.28 261.88 261.56 263.68 267.56 267.28C273.64 270.88 278.28 276.04 281.48 282.76C284.76 289.4 286.4 297.32 286.4 306.52C286.4 315.72 284.76 323.64 281.48 330.28C278.28 336.92 273.64 342.04 267.56 345.64C261.56 349.16 254.28 350.92 245.72 350.92ZM245.72 337.36C250.92 337.36 255.32 336.16 258.92 333.76C262.6 331.28 265.4 327.76 267.32 323.2C269.32 318.56 270.32 313 270.32 306.52C270.32 300.04 269.32 294.48 267.32 289.84C265.4 285.2 262.6 281.64 258.92 279.16C255.32 276.68 250.92 275.44 245.72 275.44C240.68 275.44 236.32 276.68 232.64 279.16C228.96 281.64 226.12 285.2 224.12 289.84C222.2 294.48 221.24 300.04 221.24 306.52C221.24 313 222.2 318.56 224.12 323.2C226.12 327.76 228.96 331.28 232.64 333.76C236.32 336.16 240.68 337.36 245.72 337.36ZM299.923 367V284.92H314.683L315.043 298.6L313.483 297.88C315.083 293.16 317.683 289.6 321.283 287.2C324.963 284.72 329.243 283.48 334.123 283.48C340.203 283.48 345.243 285 349.243 288.04C353.323 291.08 356.363 295.12 358.363 300.16C360.363 305.2 361.363 310.8 361.363 316.96C361.363 323.12 360.323 328.72 358.243 333.76C356.243 338.8 353.203 342.84 349.123 345.88C345.123 348.92 340.083 350.44 334.003 350.44C330.803 350.44 327.803 349.88 325.003 348.76C322.283 347.64 319.923 346.04 317.923 343.96C316.003 341.88 314.643 339.44 313.843 336.64L315.283 335.44V367H299.923ZM330.403 337.96C335.043 337.96 338.683 336.12 341.323 332.44C344.043 328.68 345.403 323.52 345.403 316.96C345.403 310.4 344.043 305.28 341.323 301.6C338.683 297.84 335.043 295.96 330.403 295.96C327.283 295.96 324.603 296.76 322.363 298.36C320.123 299.88 318.363 302.2 317.083 305.32C315.883 308.44 315.283 312.32 315.283 316.96C315.283 321.6 315.883 325.48 317.083 328.6C318.283 331.72 320.003 334.08 322.243 335.68C324.563 337.2 327.283 337.96 330.403 337.96ZM401.003 350.44C394.603 350.44 389.043 349.08 384.323 346.36C379.603 343.56 375.963 339.64 373.403 334.6C370.843 329.56 369.563 323.68 369.563 316.96C369.563 310.24 370.843 304.4 373.403 299.44C375.963 294.4 379.563 290.48 384.203 287.68C388.923 284.88 394.403 283.48 400.643 283.48C406.723 283.48 412.043 284.84 416.603 287.56C421.243 290.28 424.803 294.2 427.283 299.32C429.763 304.44 431.003 310.6 431.003 317.8V321.28H385.523C385.843 326.88 387.363 331.12 390.083 334C392.883 336.8 396.563 338.2 401.123 338.2C404.563 338.2 407.403 337.44 409.643 335.92C411.963 334.32 413.563 332.12 414.443 329.32L430.163 330.28C428.403 336.52 424.923 341.44 419.723 345.04C414.603 348.64 408.363 350.44 401.003 350.44ZM385.523 310.96H415.163C414.843 305.76 413.363 301.92 410.723 299.44C408.083 296.88 404.723 295.6 400.643 295.6C396.563 295.6 393.163 296.92 390.443 299.56C387.803 302.2 386.163 306 385.523 310.96ZM443.009 349V284.92H457.409L458.009 302.68L456.689 302.44C457.649 296.28 459.449 291.84 462.089 289.12C464.809 286.32 468.489 284.92 473.129 284.92H479.009V298.12H473.009C469.729 298.12 467.009 298.6 464.849 299.56C462.689 300.52 461.049 302.04 459.929 304.12C458.889 306.12 458.369 308.76 458.369 312.04V349H443.009ZM506.375 350.44C499.655 350.44 494.255 348.92 490.175 345.88C486.095 342.76 484.055 338.44 484.055 332.92C484.055 327.4 485.775 323.08 489.215 319.96C492.655 316.84 497.895 314.6 504.935 313.24L526.175 309.04C526.175 304.48 525.135 301.08 523.055 298.84C520.975 296.52 517.895 295.36 513.815 295.36C510.135 295.36 507.215 296.24 505.055 298C502.975 299.68 501.535 302.12 500.735 305.32L485.135 304.6C486.415 297.8 489.535 292.6 494.495 289C499.455 285.32 505.895 283.48 513.815 283.48C522.935 283.48 529.815 285.8 534.455 290.44C539.175 295 541.535 301.56 541.535 310.12V333.4C541.535 335.08 541.815 336.24 542.375 336.88C543.015 337.52 543.935 337.84 545.135 337.84H547.175V349C546.695 349.16 545.895 349.28 544.775 349.36C543.735 349.44 542.655 349.48 541.535 349.48C538.895 349.48 536.535 349.08 534.455 348.28C532.375 347.4 530.775 345.92 529.655 343.84C528.535 341.68 527.975 338.76 527.975 335.08L529.295 336.04C528.655 338.84 527.255 341.36 525.095 343.6C523.015 345.76 520.375 347.44 517.175 348.64C513.975 349.84 510.375 350.44 506.375 350.44ZM509.495 339.28C512.935 339.28 515.895 338.6 518.375 337.24C520.855 335.88 522.775 334 524.135 331.6C525.495 329.2 526.175 326.36 526.175 323.08V319.48L509.615 322.84C506.175 323.56 503.695 324.64 502.175 326.08C500.735 327.44 500.015 329.24 500.015 331.48C500.015 333.96 500.815 335.88 502.415 337.24C504.095 338.6 506.455 339.28 509.495 339.28ZM579.549 349C573.149 349 568.429 347.52 565.389 344.56C562.429 341.6 560.949 336.96 560.949 330.64V269.92H576.309V329.2C576.309 332.16 576.949 334.24 578.229 335.44C579.509 336.56 581.509 337.12 584.229 337.12H593.229V349H579.549ZM550.869 296.8V284.92H593.229V296.8H550.869ZM604.494 349V284.92H619.854V349H604.494ZM604.254 276.4V262.72H620.214V276.4H604.254ZM663.388 350.44C657.068 350.44 651.508 349.08 646.708 346.36C641.988 343.56 638.308 339.64 635.668 334.6C633.108 329.56 631.828 323.68 631.828 316.96C631.828 310.16 633.108 304.28 635.668 299.32C638.308 294.28 641.988 290.4 646.708 287.68C651.508 284.88 657.068 283.48 663.388 283.48C669.708 283.48 675.228 284.88 679.948 287.68C684.668 290.4 688.308 294.28 690.868 299.32C693.508 304.28 694.828 310.16 694.828 316.96C694.828 323.68 693.508 329.56 690.868 334.6C688.308 339.64 684.668 343.56 679.948 346.36C675.228 349.08 669.708 350.44 663.388 350.44ZM663.388 337.96C668.348 337.96 672.148 336.12 674.788 332.44C677.508 328.76 678.868 323.6 678.868 316.96C678.868 310.4 677.508 305.28 674.788 301.6C672.148 297.84 668.348 295.96 663.388 295.96C658.428 295.96 654.588 297.84 651.868 301.6C649.148 305.28 647.788 310.4 647.788 316.96C647.788 323.6 649.148 328.76 651.868 332.44C654.588 336.12 658.428 337.96 663.388 337.96ZM706.681 349V284.92H720.601L721.201 302.92L719.401 302.2C720.041 297.72 721.361 294.12 723.361 291.4C725.361 288.68 727.801 286.68 730.681 285.4C733.561 284.12 736.721 283.48 740.161 283.48C744.881 283.48 748.841 284.52 752.041 286.6C755.321 288.68 757.801 291.56 759.481 295.24C761.161 298.84 762.001 303.04 762.001 307.84V349H746.641V312.76C746.641 309.16 746.281 306.12 745.561 303.64C744.841 301.16 743.641 299.28 741.961 298C740.361 296.64 738.201 295.96 735.481 295.96C731.401 295.96 728.121 297.4 725.641 300.28C723.241 303.16 722.041 307.32 722.041 312.76V349H706.681ZM795.945 350.44C789.225 350.44 783.825 348.92 779.745 345.88C775.665 342.76 773.625 338.44 773.625 332.92C773.625 327.4 775.345 323.08 778.785 319.96C782.225 316.84 787.465 314.6 794.505 313.24L815.745 309.04C815.745 304.48 814.705 301.08 812.625 298.84C810.545 296.52 807.465 295.36 803.385 295.36C799.705 295.36 796.785 296.24 794.625 298C792.545 299.68 791.105 302.12 790.305 305.32L774.705 304.6C775.985 297.8 779.105 292.6 784.065 289C789.025 285.32 795.465 283.48 803.385 283.48C812.505 283.48 819.385 285.8 824.025 290.44C828.745 295 831.105 301.56 831.105 310.12V333.4C831.105 335.08 831.385 336.24 831.945 336.88C832.585 337.52 833.505 337.84 834.705 337.84H836.745V349C836.265 349.16 835.465 349.28 834.345 349.36C833.305 349.44 832.225 349.48 831.105 349.48C828.465 349.48 826.105 349.08 824.025 348.28C821.945 347.4 820.345 345.92 819.225 343.84C818.105 341.68 817.545 338.76 817.545 335.08L818.865 336.04C818.225 338.84 816.825 341.36 814.665 343.6C812.585 345.76 809.945 347.44 806.745 348.64C803.545 349.84 799.945 350.44 795.945 350.44ZM799.065 339.28C802.505 339.28 805.465 338.6 807.945 337.24C810.425 335.88 812.345 334 813.705 331.6C815.065 329.2 815.745 326.36 815.745 323.08V319.48L799.185 322.84C795.745 323.56 793.265 324.64 791.745 326.08C790.305 327.44 789.585 329.24 789.585 331.48C789.585 333.96 790.385 335.88 791.985 337.24C793.665 338.6 796.025 339.28 799.065 339.28ZM861.143 349C856.503 349 852.783 347.8 849.983 345.4C847.183 343 845.783 339.16 845.783 333.88V263.8H861.143V332.32C861.143 333.92 861.543 335.12 862.343 335.92C863.223 336.72 864.423 337.12 865.943 337.12H870.623V349H861.143ZM943.127 350.92C936.087 350.92 930.007 349.68 924.887 347.2C919.767 344.72 915.727 341.28 912.767 336.88C909.887 332.4 908.207 327.2 907.727 321.28L923.567 320.32C924.047 324 925.087 327.12 926.687 329.68C928.367 332.24 930.567 334.2 933.287 335.56C936.087 336.84 939.447 337.48 943.367 337.48C946.727 337.48 949.567 337.08 951.887 336.28C954.287 335.4 956.087 334.16 957.287 332.56C958.567 330.88 959.207 328.84 959.207 326.44C959.207 324.28 958.687 322.36 957.647 320.68C956.607 318.92 954.607 317.36 951.647 316C948.687 314.56 944.287 313.16 938.447 311.8C931.407 310.2 925.767 308.4 921.527 306.4C917.287 304.32 914.207 301.76 912.287 298.72C910.367 295.6 909.407 291.72 909.407 287.08C909.407 282.12 910.647 277.76 913.127 274C915.607 270.16 919.127 267.2 923.687 265.12C928.247 262.96 933.727 261.88 940.127 261.88C946.927 261.88 952.687 263.12 957.407 265.6C962.127 268 965.847 271.32 968.567 275.56C971.287 279.8 972.967 284.68 973.607 290.2L957.887 290.92C957.487 287.8 956.527 285.08 955.007 282.76C953.567 280.44 951.567 278.64 949.007 277.36C946.527 276 943.487 275.32 939.887 275.32C935.407 275.32 931.847 276.36 929.207 278.44C926.647 280.44 925.367 283.12 925.367 286.48C925.367 288.8 925.887 290.72 926.927 292.24C928.047 293.76 930.007 295.08 932.807 296.2C935.607 297.24 939.527 298.36 944.567 299.56C952.167 301.16 958.207 303.2 962.687 305.68C967.167 308.16 970.367 311.04 972.287 314.32C974.207 317.6 975.167 321.36 975.167 325.6C975.167 330.8 973.847 335.32 971.207 339.16C968.567 342.92 964.847 345.84 960.047 347.92C955.247 349.92 949.607 350.92 943.127 350.92ZM1009.11 350.44C1002.39 350.44 996.989 348.92 992.909 345.88C988.829 342.76 986.789 338.44 986.789 332.92C986.789 327.4 988.509 323.08 991.949 319.96C995.389 316.84 1000.63 314.6 1007.67 313.24L1028.91 309.04C1028.91 304.48 1027.87 301.08 1025.79 298.84C1023.71 296.52 1020.63 295.36 1016.55 295.36C1012.87 295.36 1009.95 296.24 1007.79 298C1005.71 299.68 1004.27 302.12 1003.47 305.32L987.869 304.6C989.149 297.8 992.269 292.6 997.229 289C1002.19 285.32 1008.63 283.48 1016.55 283.48C1025.67 283.48 1032.55 285.8 1037.19 290.44C1041.91 295 1044.27 301.56 1044.27 310.12V333.4C1044.27 335.08 1044.55 336.24 1045.11 336.88C1045.75 337.52 1046.67 337.84 1047.87 337.84H1049.91V349C1049.43 349.16 1048.63 349.28 1047.51 349.36C1046.47 349.44 1045.39 349.48 1044.27 349.48C1041.63 349.48 1039.27 349.08 1037.19 348.28C1035.11 347.4 1033.51 345.92 1032.39 343.84C1031.27 341.68 1030.71 338.76 1030.71 335.08L1032.03 336.04C1031.39 338.84 1029.99 341.36 1027.83 343.6C1025.75 345.76 1023.11 347.44 1019.91 348.64C1016.71 349.84 1013.11 350.44 1009.11 350.44ZM1012.23 339.28C1015.67 339.28 1018.63 338.6 1021.11 337.24C1023.59 335.88 1025.51 334 1026.87 331.6C1028.23 329.2 1028.91 326.36 1028.91 323.08V319.48L1012.35 322.84C1008.91 323.56 1006.43 324.64 1004.91 326.08C1003.47 327.44 1002.75 329.24 1002.75 331.48C1002.75 333.96 1003.55 335.88 1005.15 337.24C1006.83 338.6 1009.19 339.28 1012.23 339.28ZM1059.88 349V284.92H1073.8L1074.4 302.92L1072.6 302.2C1073.24 297.72 1074.56 294.12 1076.56 291.4C1078.56 288.68 1081 286.68 1083.88 285.4C1086.76 284.12 1089.92 283.48 1093.36 283.48C1098.08 283.48 1102.04 284.52 1105.24 286.6C1108.52 288.68 1111 291.56 1112.68 295.24C1114.36 298.84 1115.2 303.04 1115.2 307.84V349H1099.84V312.76C1099.84 309.16 1099.48 306.12 1098.76 303.64C1098.04 301.16 1096.84 299.28 1095.16 298C1093.56 296.64 1091.4 295.96 1088.68 295.96C1084.6 295.96 1081.32 297.4 1078.84 300.28C1076.44 303.16 1075.24 307.32 1075.24 312.76V349H1059.88ZM1130.9 349V284.92H1146.26V349H1130.9ZM1130.66 276.4V262.72H1146.62V276.4H1130.66ZM1184.82 349C1178.42 349 1173.7 347.52 1170.66 344.56C1167.7 341.6 1166.22 336.96 1166.22 330.64V269.92H1181.58V329.2C1181.58 332.16 1182.22 334.24 1183.5 335.44C1184.78 336.56 1186.78 337.12 1189.5 337.12H1198.5V349H1184.82ZM1156.14 296.8V284.92H1198.5V296.8H1156.14ZM1213.51 367V355.12H1221.67C1223.75 355.12 1225.27 354.8 1226.23 354.16C1227.27 353.52 1228.07 352.44 1228.63 350.92L1230.43 346.48H1225.99L1203.07 284.92H1219.03L1235.11 332.08L1250.47 284.92H1266.43L1241.35 355.72C1239.91 359.72 1237.87 362.6 1235.23 364.36C1232.67 366.12 1229.07 367 1224.43 367H1213.51Z" fill="white"/>
<path opacity="0.15" d="M1343.33 771.631C1183.51 770.275 1021.26 771.479 861.27 771.794C843.619 771.828 829.318 786.137 829.308 803.788L829.019 1283.9C829.008 1301.25 842.822 1315.45 860.168 1315.49C872.845 1315.52 885.567 1315.41 897.856 1315.23C1046.02 1313.18 1195.46 1317.51 1343.66 1315.41C1361.07 1315.16 1375 1300.93 1375 1283.52L1374.98 803.592C1374.98 786.053 1360.86 771.779 1343.33 771.631Z" fill="#CDFF52"/>
<path d="M911.291 829.979L988 830.096L987.952 929.973L966.882 929.961L888 929.979L888.071 830.351L911.291 829.979Z" fill="#818594"/>
<path d="M1125.35 830.105L1151.91 830.437L1152 929.979L1079.73 929.972L1052 929.856L1052.05 830.294C1075.45 829.693 1101.74 830.144 1125.35 830.105Z" fill="#818594"/>
<path d="M1288.48 829.979L1315.93 830.258L1316 929.871L1243.9 929.811L1216 929.979C1216.31 896.663 1216.31 863.346 1216.02 830.03C1240.08 830.248 1264.4 830.024 1288.48 829.979Z" fill="#818594"/>
<path d="M888 994.024L987.562 993.979C988.555 1025.62 987.574 1061.9 987.396 1093.8C954.272 1094.04 921.148 1094.04 888.024 1093.81L888 994.024Z" fill="#C2F23D"/>
<path d="M1216.2 994.122C1249.08 993.783 1282.6 994.148 1315.53 994.183C1315.6 1024.39 1316.8 1063.86 1315.08 1093.51C1282.92 1094.4 1248.35 1093.77 1216.07 1093.7C1215.94 1060.5 1215.99 1027.31 1216.2 994.122Z" fill="#C2F23D"/>
<path d="M888.107 1157.98L987.886 1158.04C988.076 1191.34 988.028 1224.63 987.744 1257.94L888 1257.98L888.107 1157.98Z" fill="#818594"/>
<path d="M1052 1158.05L1151.94 1157.98C1152.06 1191.31 1151.99 1224.65 1151.74 1257.98L1052.01 1257.93L1052 1158.05Z" fill="#818594"/>
<path d="M1216.21 1157.98H1315.53C1315.29 1188.59 1316.97 1228.34 1315.11 1257.96L1216 1257.98C1217.06 1225.76 1216 1190.56 1216.21 1157.98Z" fill="#818594"/>
<path d="M1032.25 1044.32C1032.4 1005.82 1063.71 974.111 1102.21 974.062C1140.84 974.013 1172.17 1005.41 1172.11 1044.03C1172.06 1082.64 1140.53 1113.96 1101.93 1113.93C1063.54 1113.91 1032.11 1082.72 1032.25 1044.32Z" fill="#C2F23D"/>
<rect x="1068.96" y="1043.78" width="6.51501" height="6.51501" fill="black" stroke="black" stroke-width="0.5"/>
<rect x="1074.97" y="1049.8" width="6.51501" height="6.51501" fill="black" stroke="black" stroke-width="0.5"/>
<rect x="1080.99" y="1055.81" width="6.51501" height="6.51501" fill="black" stroke="black" stroke-width="0.5"/>
<rect x="1087" y="1061.83" width="6.51501" height="6.51501" fill="black" stroke="black" stroke-width="0.5"/>
<rect x="1093.02" y="1055.81" width="6.51501" height="6.51501" fill="black" stroke="black" stroke-width="0.5"/>
<rect x="1099.04" y="1049.8" width="6.51501" height="6.51501" fill="black" stroke="black" stroke-width="0.5"/>
<rect x="1105.05" y="1043.78" width="6.51501" height="6.51501" fill="black" stroke="black" stroke-width="0.5"/>
<rect x="1111.06" y="1037.77" width="6.51501" height="6.51501" fill="black" stroke="black" stroke-width="0.5"/>
<rect x="1117.08" y="1031.75" width="6.51501" height="6.51501" fill="black" stroke="black" stroke-width="0.5"/>
<rect x="1123.09" y="1025.74" width="6.51501" height="6.51501" fill="black" stroke="black" stroke-width="0.5"/>
<rect x="1129.11" y="1019.72" width="6.51501" height="6.51501" fill="black" stroke="black" stroke-width="0.5"/>
<path d="M200 1134L231.983 1134.21L232 1206L200.048 1205.91L200 1134Z" fill="#F9F8F8"/>
<path d="M1940 905L1972 905.156L1971.96 977L1940.01 976.961L1940 905Z" fill="#818594"/>
<path d="M264 1386.01L296 1386L295.981 1457.72C285.736 1458.34 274.367 1457.74 264.037 1457.69L264 1386.01Z" fill="#818594"/>
<path d="M651 860H683L682.894 931.914C672.356 932.147 661.565 931.837 651.006 931.798L651 860Z" fill="#F9F8F8"/>
<path d="M683 1218H715L714.894 1289.91C704.356 1290.15 693.565 1289.84 683.006 1289.8L683 1218Z" fill="#F9F8F8"/>
<path d="M1540.03 820.274C1550.46 819.737 1561.53 820.154 1572 820.161L1571.86 892L1540.05 891.948C1539.99 868.056 1539.98 844.164 1540.03 820.274Z" fill="#F9F8F8"/>
<path d="M1572.02 1158L1603.94 1158.01C1604.04 1181.9 1604.01 1205.79 1603.88 1229.68C1593.64 1230.36 1582.32 1229.76 1572 1229.69L1572.02 1158Z" fill="#F9F8F8"/>
<path d="M220.023 615L251.943 615.014C252.037 638.903 252.015 662.792 251.876 686.68C241.636 687.358 230.318 686.76 220 686.687L220.023 615Z" fill="#F9F8F8"/>
<path d="M264.01 896.006C274.673 896.233 285.337 896.23 296 896L295.875 968L264 967.847L264.01 896.006Z" fill="#A8ADBD"/>
<path d="M1972 647L2003.87 647.112C2003.89 670.196 2004.22 696.007 2003.74 718.821C1993.18 719.021 1982.62 719.053 1972.06 718.918C1972.16 695.073 1972.03 670.874 1972 647Z" fill="#A8ADBD"/>
<path d="M723 572L754.865 572.112C754.895 595.196 755.221 621.007 754.737 643.821C744.18 644.021 733.622 644.053 723.065 643.918C723.162 620.073 723.033 595.874 723 572Z" fill="#A8ADBD"/>
<path d="M968 627L999.865 627.112C999.895 650.196 1000.22 676.007 999.737 698.821C989.18 699.021 978.622 699.053 968.065 698.918C968.162 675.073 968.033 650.874 968 627Z" fill="#A8ADBD"/>
<path d="M1161 1376L1129.13 1376.11C1129.11 1399.2 1128.78 1425.01 1129.26 1447.82C1139.82 1448.02 1150.38 1448.05 1160.94 1447.92C1160.84 1424.07 1160.97 1399.87 1161 1376Z" fill="#A8ADBD"/>
<path d="M1224 582L1255.87 582.112C1255.89 605.196 1256.22 631.007 1255.74 653.821C1245.18 654.021 1234.62 654.053 1224.06 653.918C1224.16 630.073 1224.03 605.874 1224 582Z" fill="#A8ADBD"/>
<path d="M888 1406L856.135 1406.11C856.105 1429.2 855.779 1455.01 856.263 1477.82C866.82 1478.02 877.378 1478.05 887.935 1477.92C887.838 1454.07 887.967 1429.87 888 1406Z" fill="#A8ADBD"/>
<path d="M1468.02 584.132C1478.58 583.834 1489.42 584.131 1500 584.148L1499.99 656C1489.33 655.818 1478.66 655.817 1468 655.997L1468.02 584.132Z" fill="#F9F8F8"/>
<path d="M475.348 1314L505.79 1314.03C505.828 1324.19 506.474 1382.1 505.291 1386L474.162 1385.74C474.157 1369.57 473.66 1329.35 474.432 1315.49L475.348 1314Z" fill="#A8ADBD"/>
<path d="M1740.01 651.008C1750.7 651.154 1761.24 650.711 1771.95 651.399C1772.04 675.154 1772 698.912 1771.84 722.666C1761.23 723.045 1750.61 723.101 1740 722.838L1740.01 651.008Z" fill="#818594"/>
<path d="M1438 1400L1470 1400.29L1470 1471.86L1438.02 1472L1438 1400Z" fill="#A8ADBD"/>
<path d="M1849.1 1117L1880.95 1117.03C1881.06 1140.9 1880.96 1165.08 1880.94 1188.99L1849.02 1189C1848.98 1164.99 1849 1141 1849.1 1117Z" fill="#818594"/>
<path d="M1932.1 1322L1963.95 1322.03C1964.06 1345.9 1963.96 1370.08 1963.94 1393.99L1932.02 1394C1931.98 1369.99 1932 1346 1932.1 1322Z" fill="#818594"/>
<path d="M1714.1 1386L1745.95 1386.03C1746.06 1409.9 1745.96 1434.08 1745.94 1457.99L1714.02 1458C1713.98 1433.99 1714 1410 1714.1 1386Z" fill="#818594"/>
<path d="M478 687L510 687.131L509.997 759C499.537 758.465 488.529 758.83 478.029 758.83L478 687Z" fill="#F9F8F8"/>
<path d="M424.4 1035.05C423.693 1073.78 424.058 1115.77 424.468 1154.5C462.747 1155.42 505.664 1154.87 544 1154.45L543.966 1035L424.4 1035.05Z" fill="#FF6969"/>
<path d="M489.585 1063.16C485.709 1063.1 480.656 1062.52 478.172 1064.95C477.025 1073.7 478.919 1095.06 479.56 1104.87C482.613 1105.87 484.135 1105.75 486.536 1104.53C490.485 1095.49 489.564 1073.84 489.585 1063.16Z" fill="black"/>
<path d="M489.505 1113.29C485.456 1113.1 482.706 1112.53 479.101 1114.32C476.996 1117.58 477.719 1122.04 477.856 1126.17C481.877 1126.35 484.688 1126.92 488.278 1125.17C490.359 1122.12 489.624 1117.29 489.505 1113.29Z" fill="black"/>
<path d="M1686.4 903.052C1685.69 941.776 1686.06 983.775 1686.47 1022.5C1724.75 1023.42 1767.66 1022.87 1806 1022.45L1805.97 903L1686.4 903.052Z" fill="#FF6969"/>
<path d="M1751.58 931.161C1747.71 931.102 1742.66 930.519 1740.17 932.945C1739.03 941.695 1740.92 963.056 1741.56 972.868C1744.61 973.871 1746.13 973.754 1748.54 972.53C1752.49 963.488 1751.56 941.835 1751.58 931.161Z" fill="black"/>
<path d="M1751.5 981.291C1747.45 981.104 1744.7 980.532 1741.1 982.317C1738.99 985.584 1739.71 990.041 1739.85 994.17C1743.87 994.345 1746.68 994.917 1750.27 993.167C1752.35 990.122 1751.62 985.292 1751.5 981.291Z" fill="black"/>
</svg>
