<svg width="2204" height="1718" viewBox="0 0 2204 1718" fill="none" xmlns="http://www.w3.org/2000/svg">
<rect width="2204" height="1718" fill="black"/>
<path d="M233.12 349L202.28 263.8H218.72L242.6 331.6L266.36 263.8H282.8L251.84 349H233.12ZM290.431 349V284.92H305.791V349H290.431ZM290.191 276.4V262.72H306.151V276.4H290.191ZM347.526 350.44C341.206 350.44 335.886 349.52 331.566 347.68C327.326 345.84 324.046 343.28 321.726 340C319.406 336.72 318.086 333 317.766 328.84L333.486 328.12C334.046 331.48 335.446 334.08 337.686 335.92C339.926 337.76 343.246 338.68 347.646 338.68C351.246 338.68 354.046 338.12 356.046 337C358.126 335.8 359.166 333.96 359.166 331.48C359.166 330.04 358.806 328.84 358.086 327.88C357.366 326.92 356.006 326.08 354.006 325.36C352.006 324.64 349.046 323.92 345.126 323.2C338.566 322.08 333.406 320.72 329.646 319.12C325.886 317.44 323.206 315.36 321.606 312.88C320.086 310.4 319.326 307.32 319.326 303.64C319.326 297.64 321.606 292.8 326.166 289.12C330.806 285.36 337.566 283.48 346.446 283.48C352.206 283.48 357.046 284.44 360.966 286.36C364.886 288.2 367.926 290.76 370.086 294.04C372.326 297.24 373.726 300.92 374.286 305.08L358.806 305.8C358.406 303.64 357.686 301.76 356.646 300.16C355.606 298.56 354.206 297.36 352.446 296.56C350.686 295.68 348.606 295.24 346.206 295.24C342.606 295.24 339.886 295.96 338.046 297.4C336.206 298.84 335.286 300.76 335.286 303.16C335.286 304.84 335.686 306.24 336.486 307.36C337.366 308.48 338.766 309.4 340.686 310.12C342.606 310.76 345.166 311.36 348.366 311.92C355.086 312.96 360.366 314.32 364.206 316C368.126 317.6 370.886 319.68 372.486 322.24C374.166 324.72 375.006 327.72 375.006 331.24C375.006 335.32 373.846 338.8 371.526 341.68C369.286 344.56 366.086 346.76 361.926 348.28C357.846 349.72 353.046 350.44 347.526 350.44ZM386.994 349V284.92H402.354V349H386.994ZM386.754 276.4V262.72H402.714V276.4H386.754ZM451.785 350.44C447.305 350.44 443.385 349.48 440.025 347.56C436.745 345.64 434.185 342.96 432.345 339.52L431.985 349H417.345V263.8H432.705V294.04C434.465 291.08 436.985 288.6 440.265 286.6C443.545 284.52 447.385 283.48 451.785 283.48C457.305 283.48 462.065 284.88 466.065 287.68C470.145 290.4 473.265 294.28 475.425 299.32C477.665 304.28 478.785 310.16 478.785 316.96C478.785 323.76 477.665 329.68 475.425 334.72C473.265 339.68 470.145 343.56 466.065 346.36C462.065 349.08 457.305 350.44 451.785 350.44ZM448.305 337.96C452.705 337.96 456.225 336.12 458.865 332.44C461.505 328.68 462.825 323.52 462.825 316.96C462.825 310.32 461.505 305.16 458.865 301.48C456.305 297.8 452.825 295.96 448.425 295.96C445.145 295.96 442.305 296.8 439.905 298.48C437.585 300.08 435.785 302.44 434.505 305.56C433.305 308.68 432.705 312.48 432.705 316.96C432.705 321.28 433.305 325.04 434.505 328.24C435.785 331.36 437.585 333.76 439.905 335.44C442.225 337.12 445.025 337.96 448.305 337.96ZM490.705 349V284.92H506.065V349H490.705ZM490.465 276.4V262.72H506.425V276.4H490.465ZM537.471 349C532.831 349 529.111 347.8 526.311 345.4C523.511 343 522.111 339.16 522.111 333.88V263.8H537.471V332.32C537.471 333.92 537.871 335.12 538.671 335.92C539.551 336.72 540.751 337.12 542.271 337.12H546.951V349H537.471ZM556.798 349V284.92H572.158V349H556.798ZM556.558 276.4V262.72H572.518V276.4H556.558ZM610.721 349C604.321 349 599.601 347.52 596.561 344.56C593.601 341.6 592.121 336.96 592.121 330.64V269.92H607.481V329.2C607.481 332.16 608.121 334.24 609.401 335.44C610.681 336.56 612.681 337.12 615.401 337.12H624.401V349H610.721ZM582.041 296.8V284.92H624.401V296.8H582.041ZM639.405 367V355.12H647.565C649.645 355.12 651.165 354.8 652.125 354.16C653.165 353.52 653.965 352.44 654.525 350.92L656.325 346.48H651.885L628.965 284.92H644.925L661.005 332.08L676.365 284.92H692.325L667.245 355.72C665.805 359.72 663.765 362.6 661.125 364.36C658.565 366.12 654.965 367 650.325 367H639.405ZM750.242 350.44C743.522 350.44 738.122 348.92 734.042 345.88C729.962 342.76 727.922 338.44 727.922 332.92C727.922 327.4 729.642 323.08 733.082 319.96C736.522 316.84 741.762 314.6 748.802 313.24L770.042 309.04C770.042 304.48 769.002 301.08 766.922 298.84C764.842 296.52 761.762 295.36 757.682 295.36C754.002 295.36 751.082 296.24 748.922 298C746.842 299.68 745.402 302.12 744.602 305.32L729.002 304.6C730.282 297.8 733.402 292.6 738.362 289C743.322 285.32 749.762 283.48 757.682 283.48C766.802 283.48 773.682 285.8 778.322 290.44C783.042 295 785.402 301.56 785.402 310.12V333.4C785.402 335.08 785.682 336.24 786.242 336.88C786.882 337.52 787.802 337.84 789.002 337.84H791.042V349C790.562 349.16 789.762 349.28 788.642 349.36C787.602 349.44 786.522 349.48 785.402 349.48C782.762 349.48 780.402 349.08 778.322 348.28C776.242 347.4 774.642 345.92 773.522 343.84C772.402 341.68 771.842 338.76 771.842 335.08L773.162 336.04C772.522 338.84 771.122 341.36 768.962 343.6C766.882 345.76 764.242 347.44 761.042 348.64C757.842 349.84 754.242 350.44 750.242 350.44ZM753.362 339.28C756.802 339.28 759.762 338.6 762.242 337.24C764.722 335.88 766.642 334 768.002 331.6C769.362 329.2 770.042 326.36 770.042 323.08V319.48L753.482 322.84C750.042 323.56 747.562 324.64 746.042 326.08C744.602 327.44 743.882 329.24 743.882 331.48C743.882 333.96 744.682 335.88 746.282 337.24C747.962 338.6 750.322 339.28 753.362 339.28ZM823.416 349C817.016 349 812.296 347.52 809.256 344.56C806.296 341.6 804.816 336.96 804.816 330.64V269.92H820.176V329.2C820.176 332.16 820.816 334.24 822.096 335.44C823.376 336.56 825.376 337.12 828.096 337.12H837.096V349H823.416ZM794.736 296.8V284.92H837.096V296.8H794.736ZM910.666 350.92C903.626 350.92 897.546 349.68 892.426 347.2C887.306 344.72 883.266 341.28 880.306 336.88C877.426 332.4 875.746 327.2 875.266 321.28L891.106 320.32C891.586 324 892.626 327.12 894.226 329.68C895.906 332.24 898.106 334.2 900.826 335.56C903.626 336.84 906.986 337.48 910.906 337.48C914.266 337.48 917.106 337.08 919.426 336.28C921.826 335.4 923.626 334.16 924.826 332.56C926.106 330.88 926.746 328.84 926.746 326.44C926.746 324.28 926.226 322.36 925.186 320.68C924.146 318.92 922.146 317.36 919.186 316C916.226 314.56 911.826 313.16 905.986 311.8C898.946 310.2 893.306 308.4 889.066 306.4C884.826 304.32 881.746 301.76 879.826 298.72C877.906 295.6 876.946 291.72 876.946 287.08C876.946 282.12 878.186 277.76 880.666 274C883.146 270.16 886.666 267.2 891.226 265.12C895.786 262.96 901.266 261.88 907.666 261.88C914.466 261.88 920.226 263.12 924.946 265.6C929.666 268 933.386 271.32 936.106 275.56C938.826 279.8 940.506 284.68 941.146 290.2L925.426 290.92C925.026 287.8 924.066 285.08 922.546 282.76C921.106 280.44 919.106 278.64 916.546 277.36C914.066 276 911.026 275.32 907.426 275.32C902.946 275.32 899.386 276.36 896.746 278.44C894.186 280.44 892.906 283.12 892.906 286.48C892.906 288.8 893.426 290.72 894.466 292.24C895.586 293.76 897.546 295.08 900.346 296.2C903.146 297.24 907.066 298.36 912.106 299.56C919.706 301.16 925.746 303.2 930.226 305.68C934.706 308.16 937.906 311.04 939.826 314.32C941.746 317.6 942.706 321.36 942.706 325.6C942.706 330.8 941.386 335.32 938.746 339.16C936.106 342.92 932.386 345.84 927.586 347.92C922.786 349.92 917.146 350.92 910.666 350.92ZM986.357 350.44C979.957 350.44 974.397 349.08 969.677 346.36C964.957 343.56 961.277 339.64 958.637 334.6C956.077 329.56 954.797 323.68 954.797 316.96C954.797 310.24 956.077 304.4 958.637 299.44C961.277 294.4 964.957 290.48 969.677 287.68C974.397 284.88 979.957 283.48 986.357 283.48C991.797 283.48 996.637 284.44 1000.88 286.36C1005.12 288.28 1008.56 291.04 1011.2 294.64C1013.92 298.16 1015.6 302.48 1016.24 307.6L1000.4 308.44C999.757 304.36 998.157 301.28 995.597 299.2C993.117 297.04 990.037 295.96 986.357 295.96C981.397 295.96 977.557 297.84 974.837 301.6C972.117 305.28 970.757 310.4 970.757 316.96C970.757 323.6 972.117 328.76 974.837 332.44C977.557 336.12 981.397 337.96 986.357 337.96C990.117 337.96 993.237 336.88 995.717 334.72C998.277 332.56 999.837 329.2 1000.4 324.64L1016.24 325.36C1015.6 330.48 1013.96 334.92 1011.32 338.68C1008.68 342.44 1005.24 345.36 1001 347.44C996.757 349.44 991.877 350.44 986.357 350.44ZM1046.49 350.44C1039.77 350.44 1034.37 348.92 1030.29 345.88C1026.21 342.76 1024.17 338.44 1024.17 332.92C1024.17 327.4 1025.89 323.08 1029.33 319.96C1032.77 316.84 1038.01 314.6 1045.05 313.24L1066.29 309.04C1066.29 304.48 1065.25 301.08 1063.17 298.84C1061.09 296.52 1058.01 295.36 1053.93 295.36C1050.25 295.36 1047.33 296.24 1045.17 298C1043.09 299.68 1041.65 302.12 1040.85 305.32L1025.25 304.6C1026.53 297.8 1029.65 292.6 1034.61 289C1039.57 285.32 1046.01 283.48 1053.93 283.48C1063.05 283.48 1069.93 285.8 1074.57 290.44C1079.29 295 1081.65 301.56 1081.65 310.12V333.4C1081.65 335.08 1081.93 336.24 1082.49 336.88C1083.13 337.52 1084.05 337.84 1085.25 337.84H1087.29V349C1086.81 349.16 1086.01 349.28 1084.89 349.36C1083.85 349.44 1082.77 349.48 1081.65 349.48C1079.01 349.48 1076.65 349.08 1074.57 348.28C1072.49 347.4 1070.89 345.92 1069.77 343.84C1068.65 341.68 1068.09 338.76 1068.09 335.08L1069.41 336.04C1068.77 338.84 1067.37 341.36 1065.21 343.6C1063.13 345.76 1060.49 347.44 1057.29 348.64C1054.09 349.84 1050.49 350.44 1046.49 350.44ZM1049.61 339.28C1053.05 339.28 1056.01 338.6 1058.49 337.24C1060.97 335.88 1062.89 334 1064.25 331.6C1065.61 329.2 1066.29 326.36 1066.29 323.08V319.48L1049.73 322.84C1046.29 323.56 1043.81 324.64 1042.29 326.08C1040.85 327.44 1040.13 329.24 1040.13 331.48C1040.13 333.96 1040.93 335.88 1042.53 337.24C1044.21 338.6 1046.57 339.28 1049.61 339.28ZM1111.69 349C1107.05 349 1103.33 347.8 1100.53 345.4C1097.73 343 1096.33 339.16 1096.33 333.88V263.8H1111.69V332.32C1111.69 333.92 1112.09 335.12 1112.89 335.92C1113.77 336.72 1114.97 337.12 1116.49 337.12H1121.17V349H1111.69ZM1158.74 350.44C1152.34 350.44 1146.78 349.08 1142.06 346.36C1137.34 343.56 1133.7 339.64 1131.14 334.6C1128.58 329.56 1127.3 323.68 1127.3 316.96C1127.3 310.24 1128.58 304.4 1131.14 299.44C1133.7 294.4 1137.3 290.48 1141.94 287.68C1146.66 284.88 1152.14 283.48 1158.38 283.48C1164.46 283.48 1169.78 284.84 1174.34 287.56C1178.98 290.28 1182.54 294.2 1185.02 299.32C1187.5 304.44 1188.74 310.6 1188.74 317.8V321.28H1143.26C1143.58 326.88 1145.1 331.12 1147.82 334C1150.62 336.8 1154.3 338.2 1158.86 338.2C1162.3 338.2 1165.14 337.44 1167.38 335.92C1169.7 334.32 1171.3 332.12 1172.18 329.32L1187.9 330.28C1186.14 336.52 1182.66 341.44 1177.46 345.04C1172.34 348.64 1166.1 350.44 1158.74 350.44ZM1143.26 310.96H1172.9C1172.58 305.76 1171.1 301.92 1168.46 299.44C1165.82 296.88 1162.46 295.6 1158.38 295.6C1154.3 295.6 1150.9 296.92 1148.18 299.56C1145.54 302.2 1143.9 306 1143.26 310.96Z" fill="white"/>
<path d="M1600.61 808.797L2003.1 808.881C2002.85 852.747 2004.75 1216.72 2002.17 1222.36C1999.92 1223.96 1995.68 1223.3 1992.69 1223.19L1600.57 1223.3C1600.87 1204.79 1602.13 1025.27 1600.41 1021.99C1600.22 1021.61 1599.89 1021.31 1599.7 1020.92C1598.5 1018.48 1599.07 1016.62 1599.7 1014.1C1602.75 1001.95 1600.81 967.62 1600.82 953.002L1600.61 808.797Z" fill="#C7F44B"/>
<path d="M1605.33 813.614L1998.78 813.553V1080.28L1998.83 1170.11C1998.83 1184.33 1999.45 1205.03 1998.46 1218.75L1605.37 1218.76L1605.33 813.614Z" fill="black"/>
<path d="M1929.83 888.479C1846.04 887.559 1760.62 888.339 1676.73 888.436L1676.58 1146.85C1686.99 1147.14 1698.09 1147.08 1708.52 1146.93C1782.09 1145.88 1856.34 1148.32 1929.84 1146.75L1929.83 888.479Z" fill="#27282E"/>
<path d="M1310.47 1014.5C1312.53 1013.62 1314.91 1014.6 1315.77 1016.67C1316.64 1018.74 1315.65 1021.12 1313.57 1021.96C1311.51 1022.8 1309.16 1021.82 1308.31 1019.77C1307.46 1017.72 1308.42 1015.36 1310.47 1014.5Z" fill="#C7F44B"/>
<path d="M1334.35 1014.5C1336.42 1013.62 1338.8 1014.6 1339.66 1016.67C1340.53 1018.74 1339.53 1021.12 1337.45 1021.96C1335.4 1022.8 1333.05 1021.82 1332.2 1019.77C1331.34 1017.72 1332.31 1015.36 1334.35 1014.5Z" fill="#C7F44B"/>
<path d="M1358.24 1014.5C1360.3 1013.62 1362.69 1014.6 1363.54 1016.67C1364.41 1018.74 1363.42 1021.12 1361.34 1021.96C1359.28 1022.8 1356.93 1021.82 1356.08 1019.77C1355.23 1017.72 1356.19 1015.36 1358.24 1014.5Z" fill="#C7F44B"/>
<path d="M1382.12 1014.5C1384.19 1013.62 1386.57 1014.6 1387.43 1016.67C1388.3 1018.74 1387.3 1021.12 1385.22 1021.96C1383.17 1022.8 1380.82 1021.82 1379.97 1019.77C1379.12 1017.72 1380.08 1015.36 1382.12 1014.5Z" fill="#C7F44B"/>
<path d="M1406.01 1014.5C1408.07 1013.62 1410.46 1014.6 1411.32 1016.67C1412.18 1018.74 1411.19 1021.12 1409.11 1021.96C1407.05 1022.8 1404.7 1021.82 1403.85 1019.77C1403 1017.72 1403.96 1015.36 1406.01 1014.5Z" fill="#C7F44B"/>
<path d="M1429.9 1014.5C1431.96 1013.62 1434.34 1014.6 1435.2 1016.67C1436.07 1018.74 1435.08 1021.12 1433 1021.96C1430.94 1022.8 1428.59 1021.82 1427.74 1019.77C1426.89 1017.72 1427.85 1015.36 1429.9 1014.5Z" fill="#C7F44B"/>
<path d="M1453.78 1014.5C1455.85 1013.62 1458.23 1014.6 1459.09 1016.67C1459.96 1018.74 1458.96 1021.12 1456.88 1021.96C1454.83 1022.8 1452.48 1021.82 1451.63 1019.77C1450.78 1017.72 1451.74 1015.36 1453.78 1014.5Z" fill="#C7F44B"/>
<path d="M1477.67 1014.5C1479.73 1013.62 1482.12 1014.6 1482.97 1016.67C1483.84 1018.74 1482.85 1021.12 1480.77 1021.96C1478.71 1022.8 1476.36 1021.82 1475.51 1019.77C1474.66 1017.72 1475.62 1015.36 1477.67 1014.5Z" fill="#C7F44B"/>
<path d="M1501.43 1014.5C1502.77 1013.86 1504.35 1014 1505.57 1014.85C1506.79 1015.7 1507.45 1017.15 1507.3 1018.62C1507.16 1020.1 1506.22 1021.39 1504.87 1021.99C1502.8 1022.89 1500.4 1021.98 1499.47 1019.93C1498.52 1017.89 1499.4 1015.47 1501.43 1014.5Z" fill="#C7F44B"/>
<path d="M1527.7 1022.27C1526.02 1022.47 1524.39 1021.62 1523.6 1020.14C1522.81 1018.65 1523.01 1016.83 1524.11 1015.56C1525.21 1014.28 1526.98 1013.81 1528.56 1014.38C1530.35 1015.01 1531.46 1016.79 1531.25 1018.67C1531.05 1020.55 1529.57 1022.04 1527.7 1022.27Z" fill="#C7F44B"/>
<path d="M1549.43 1014.58C1550.8 1013.96 1552.4 1014.17 1553.56 1015.1C1554.73 1016.04 1555.28 1017.55 1554.99 1019.02C1554.68 1020.49 1553.59 1021.66 1552.14 1022.07C1550.13 1022.62 1548.03 1021.54 1547.31 1019.58C1546.6 1017.61 1547.53 1015.43 1549.43 1014.58Z" fill="#C7F44B"/>
<path d="M1573.03 1014.58C1574.39 1013.84 1576.05 1013.92 1577.32 1014.78C1578.6 1015.65 1579.3 1017.15 1579.12 1018.68C1578.95 1020.22 1577.93 1021.53 1576.49 1022.08C1574.46 1022.87 1572.16 1021.94 1571.25 1019.95C1570.33 1017.97 1571.11 1015.62 1573.03 1014.58Z" fill="#C7F44B"/>
<path d="M1597.12 1014.61C1598.47 1013.89 1600.12 1013.99 1601.37 1014.86C1602.63 1015.74 1603.29 1017.24 1603.09 1018.76C1602.89 1020.28 1601.85 1021.56 1600.4 1022.07C1598.39 1022.79 1596.16 1021.82 1595.3 1019.87C1594.43 1017.91 1595.23 1015.61 1597.12 1014.61Z" fill="#C7F44B"/>
<path d="M1709.85 922.054C1771.32 922.187 1835.38 920.932 1896.56 922.303L1896.63 1114.23L1709.56 1114.13L1709.85 922.054Z" fill="#C7F44B"/>
<path d="M1793.66 996.117C1795.07 996.421 1799.85 996.378 1801.5 996.364C1805.51 996.331 1809.86 996.453 1813.83 996.215C1813.79 999.587 1813.92 1003.1 1813.81 1006.46C1807.12 1006.53 1800.39 1006.39 1793.71 1006.52C1793.69 1009.88 1793.76 1013.27 1793.73 1016.62C1792.27 1016.49 1785.15 1016.48 1783.62 1016.62C1783.94 1019.25 1783.74 1023.75 1783.84 1026.56L1793.72 1026.54C1793.7 1029.58 1793.64 1033.28 1793.76 1036.31C1794.36 1036.86 1811.37 1036.56 1813.31 1036.47L1813.77 1036.45L1813.76 1026.54C1817.11 1026.54 1820.4 1026.57 1823.75 1026.46C1823.69 1023.15 1823.68 1019.84 1823.71 1016.52C1820.83 1016.53 1816.52 1016.42 1813.78 1016.67C1813.76 1014.38 1813.59 1008.5 1813.81 1006.46C1816.56 1006.3 1821.27 1006.4 1824.12 1006.45C1824.01 1009.55 1824.2 1013.71 1824.01 1016.45C1827.05 1016.26 1830.57 1016.53 1833.95 1016.33C1833.91 1019.65 1833.9 1023.38 1833.99 1026.68C1832.14 1026.44 1826.03 1026.6 1823.91 1026.61C1824.1 1029.6 1824.05 1033.65 1824.1 1036.7C1820.92 1036.81 1817.16 1036.66 1813.83 1036.72C1813.75 1039.76 1813.79 1043.76 1813.88 1046.8C1812.49 1046.62 1808.64 1046.7 1807.05 1046.7C1802.59 1046.69 1798.12 1046.71 1793.65 1046.75C1793.66 1043.41 1793.66 1040.08 1793.64 1036.75C1793.05 1036.49 1784.63 1036.69 1783.52 1036.78C1783.34 1033.72 1783.47 1029.74 1783.48 1026.61C1780.16 1026.58 1776.85 1026.58 1773.53 1026.63C1773.51 1023.16 1773.51 1019.7 1773.54 1016.23C1775.57 1016.67 1781.36 1016.4 1783.56 1016.31C1783.34 1013.58 1783.44 1009.27 1783.42 1006.44C1786.7 1006.38 1790.38 1006.37 1793.64 1006.42C1793.75 1003.16 1793.62 999.449 1793.66 996.117Z" fill="black"/>
<path d="M1783.43 976.526C1795.02 976.36 1806.67 976.631 1818.27 976.512C1820.19 976.492 1822.2 976.475 1824.12 976.535C1823.99 979.796 1823.98 983.061 1824.08 986.322C1830.6 986.31 1837.77 986.161 1844.24 986.336C1844.15 988.189 1844.12 990.043 1844.14 991.897C1844.15 993.092 1844.24 995.237 1844.12 996.332C1847.29 996.221 1850.71 996.316 1853.99 996.231C1853.9 999.634 1853.9 1003.04 1854 1006.44L1863.88 1006.42C1863.86 1009.73 1863.86 1013.05 1863.9 1016.36C1867.28 1016.55 1870.73 1016.45 1874.11 1016.35C1874.01 1019.79 1874.03 1023.22 1874.18 1026.66C1870.84 1026.53 1867.21 1026.58 1863.86 1026.64C1863.84 1030 1863.92 1033.38 1863.88 1036.73C1862.44 1036.61 1855.3 1036.59 1853.78 1036.73C1854.08 1039.3 1853.94 1043.94 1854.06 1046.78C1850.8 1046.65 1847.31 1046.7 1844.04 1046.73C1844.13 1050.09 1844.19 1053.45 1844.22 1056.82L1830.35 1056.77C1828.53 1056.77 1825.63 1056.71 1823.86 1056.85C1824.14 1059.22 1824.07 1064.06 1824.1 1066.62L1796.8 1066.57C1792.72 1066.57 1787.52 1066.44 1783.51 1066.67C1783.39 1063.64 1783.42 1059.82 1783.48 1056.76L1771.1 1056.78C1768.94 1056.78 1765.84 1056.7 1763.74 1056.9C1763.73 1054.63 1763.56 1048.72 1763.77 1046.69C1765.73 1046.57 1768.98 1046.67 1771.04 1046.66C1775.32 1046.64 1779.6 1046.65 1783.88 1046.69C1783.78 1049.79 1783.97 1053.94 1783.77 1056.68C1786.56 1056.5 1791.04 1056.76 1794.06 1056.71C1803.84 1056.54 1814.04 1056.99 1823.8 1056.54C1823.58 1053.81 1823.67 1049.5 1823.66 1046.68C1830.3 1046.48 1837.13 1046.82 1843.87 1046.58L1843.8 1040.95C1843.77 1039.54 1843.68 1037.81 1843.82 1036.43C1845.92 1036.76 1851.54 1036.52 1853.72 1036.43C1853.54 1033.67 1853.54 1029.32 1853.59 1026.56C1856.88 1026.5 1860.53 1026.48 1863.8 1026.54C1863.87 1023.44 1863.85 1019.61 1863.79 1016.52C1860.75 1016.53 1856.61 1016.43 1853.67 1016.66C1853.5 1013.59 1853.63 1009.63 1853.64 1006.49C1850.36 1006.47 1847.07 1006.47 1843.79 1006.49C1843.72 1003.31 1843.82 999.642 1843.82 996.413L1831.27 996.419C1828.9 996.42 1826.09 996.363 1823.75 996.544C1823.58 993.479 1823.71 989.507 1823.72 986.377C1810.48 986.23 1796.92 986.319 1783.68 986.376C1783.87 989.366 1783.82 993.412 1783.87 996.464C1777.3 996.609 1770.49 996.323 1763.8 996.487C1763.72 999.574 1763.75 1003.48 1763.84 1006.57C1762.02 1006.32 1755.86 1006.48 1753.76 1006.49C1753.95 1009.48 1753.9 1013.53 1753.95 1016.58C1750.6 1016.65 1747.12 1016.54 1743.68 1016.6C1743.59 1019.87 1743.77 1023.28 1743.66 1026.57L1733.4 1026.61C1733.43 1024.64 1733.43 1022.68 1733.41 1020.71C1733.4 1019.34 1733.29 1017.65 1733.44 1016.32C1736.31 1016.62 1740.72 1016.44 1743.61 1016.33L1743.61 1006.42C1746.96 1006.42 1750.24 1006.45 1753.6 1006.35L1753.52 1000.06C1753.5 998.855 1753.42 997.355 1753.56 996.2C1756.43 996.502 1760.83 996.325 1763.73 996.213L1763.72 986.309C1770.3 986.272 1776.95 986.424 1783.52 986.227C1783.47 983.042 1783.4 979.71 1783.43 976.526Z" fill="black"/>
<path d="M1743.65 1026.57C1746.89 1026.53 1750.75 1026.46 1753.96 1026.57C1753.88 1028.44 1753.85 1030.31 1753.87 1032.17C1753.88 1033.32 1753.96 1035.52 1753.85 1036.57C1757.22 1036.44 1760.32 1036.67 1763.79 1036.45L1763.8 1043.28C1763.8 1044.19 1763.85 1045.86 1763.77 1046.69C1760.9 1046.85 1756.5 1046.72 1753.52 1046.72C1753.45 1043.54 1753.55 1039.88 1753.55 1036.65C1751.16 1036.64 1745.75 1036.53 1743.63 1036.81C1743.61 1033.54 1743.51 1029.8 1743.65 1026.57Z" fill="black"/>
<path d="M1040.14 983.452C1062.88 983.761 1085.71 983.166 1108.46 983.902C1108.64 1006.61 1108.67 1029.32 1108.56 1052.03L1040.05 1051.89L1040.14 983.452Z" fill="#C7F44B"/>
<path d="M347.977 1014.53C349.353 1013.74 351.054 1013.77 352.397 1014.62C353.738 1015.47 354.499 1016.99 354.372 1018.57C354.244 1020.16 353.248 1021.54 351.788 1022.16C349.71 1023.04 347.303 1022.16 346.294 1020.14C345.285 1018.12 346.022 1015.66 347.977 1014.53Z" fill="#C7F44B"/>
<path d="M372.03 1014.55C373.395 1013.79 375.069 1013.84 376.387 1014.68C377.706 1015.52 378.455 1017.02 378.336 1018.58C378.218 1020.14 377.252 1021.5 375.822 1022.14C373.749 1023.05 371.322 1022.18 370.308 1020.15C369.294 1018.13 370.052 1015.66 372.03 1014.55Z" fill="#C7F44B"/>
<path d="M606.563 1014.59C608.523 1013.37 611.103 1013.93 612.367 1015.87C613.632 1017.81 613.114 1020.4 611.203 1021.7C609.933 1022.56 608.298 1022.67 606.924 1021.99C605.55 1021.3 604.653 1019.93 604.578 1018.4C604.504 1016.86 605.263 1015.41 606.563 1014.59Z" fill="#C7F44B"/>
<path d="M793.505 1014.55C794.863 1013.77 796.545 1013.8 797.874 1014.63C799.204 1015.46 799.963 1016.97 799.847 1018.53C799.73 1020.1 798.757 1021.47 797.318 1022.1C795.26 1022.99 792.858 1022.13 791.845 1020.13C790.833 1018.12 791.561 1015.68 793.505 1014.55Z" fill="#C7F44B"/>
<path d="M582.638 1014.56C584.001 1013.77 585.689 1013.81 587.017 1014.66C588.344 1015.5 589.09 1017.02 588.949 1018.59C588.809 1020.15 587.807 1021.51 586.351 1022.11C584.299 1022.95 581.946 1022.06 580.968 1020.07C579.989 1018.08 580.719 1015.67 582.638 1014.56Z" fill="#C7F44B"/>
<path d="M395.734 1014.53C397.128 1013.78 398.827 1013.88 400.125 1014.78C401.423 1015.69 402.1 1017.25 401.874 1018.82C401.649 1020.38 400.561 1021.69 399.06 1022.2C396.995 1022.89 394.741 1021.89 393.874 1019.89C393.006 1017.89 393.815 1015.56 395.734 1014.53Z" fill="#C7F44B"/>
<path d="M745.009 1014.59C746.992 1013.48 749.503 1014.15 750.667 1016.1C751.832 1018.05 751.224 1020.58 749.298 1021.79C748.01 1022.6 746.384 1022.65 745.05 1021.92C743.716 1021.19 742.883 1019.79 742.875 1018.27C742.867 1016.75 743.684 1015.34 745.009 1014.59Z" fill="#C7F44B"/>
<path d="M486.673 1014.54C488.061 1013.75 489.774 1013.82 491.094 1014.71C492.414 1015.6 493.113 1017.17 492.896 1018.75C492.68 1020.33 491.585 1021.65 490.073 1022.16C488.026 1022.84 485.795 1021.86 484.916 1019.89C484.037 1017.92 484.798 1015.6 486.673 1014.54Z" fill="#C7F44B"/>
<path d="M558.45 1014.53C559.863 1013.74 561.603 1013.84 562.92 1014.78C564.237 1015.71 564.894 1017.33 564.608 1018.92C564.322 1020.51 563.143 1021.8 561.581 1022.22C559.541 1022.77 557.41 1021.72 556.614 1019.76C555.817 1017.8 556.605 1015.56 558.45 1014.53Z" fill="#C7F44B"/>
<path d="M907 1014.54C908.381 1013.74 910.091 1013.8 911.414 1014.68C912.736 1015.57 913.443 1017.13 913.241 1018.71C913.031 1020.29 911.944 1021.61 910.436 1022.12C908.398 1022.81 906.175 1021.85 905.282 1019.89C904.398 1017.93 905.139 1015.62 907 1014.54Z" fill="#C7F44B"/>
<path d="M817.042 1014.57C818.43 1013.76 820.159 1013.82 821.49 1014.72C822.821 1015.62 823.516 1017.21 823.28 1018.8C823.044 1020.39 821.917 1021.7 820.381 1022.17C818.352 1022.8 816.175 1021.81 815.321 1019.86C814.467 1017.92 815.207 1015.64 817.042 1014.57Z" fill="#C7F44B"/>
<path d="M769.561 1014.56C770.948 1013.81 772.64 1013.91 773.935 1014.81C775.23 1015.71 775.907 1017.26 775.684 1018.82C775.461 1020.39 774.377 1021.69 772.882 1022.19C770.828 1022.88 768.587 1021.89 767.722 1019.9C766.858 1017.92 767.656 1015.6 769.561 1014.56Z" fill="#C7F44B"/>
<path d="M721.401 1014.58C723.34 1013.6 725.706 1014.27 726.839 1016.12C727.974 1017.97 727.496 1020.38 725.743 1021.67C724.473 1022.59 722.792 1022.73 721.392 1022.01C719.993 1021.3 719.112 1019.86 719.113 1018.29C719.115 1016.72 719.999 1015.29 721.401 1014.58Z" fill="#C7F44B"/>
<path d="M510.659 1014.61C512.576 1013.55 514.982 1014.16 516.169 1016C517.355 1017.83 516.919 1020.27 515.17 1021.59C513.923 1022.52 512.259 1022.69 510.855 1022.01C509.452 1021.33 508.544 1019.92 508.502 1018.37C508.462 1016.81 509.294 1015.36 510.659 1014.61Z" fill="#C7F44B"/>
<path d="M323.93 1014.6C325.897 1013.52 328.362 1014.2 329.503 1016.13C330.643 1018.06 330.048 1020.55 328.157 1021.75C326.876 1022.57 325.253 1022.62 323.922 1021.89C322.592 1021.16 321.766 1019.76 321.768 1018.24C321.769 1016.72 322.598 1015.32 323.93 1014.6Z" fill="#C7F44B"/>
<path d="M651.582 1135.89C653.553 1134.79 656.045 1135.46 657.193 1137.41C658.341 1139.36 657.725 1141.87 655.804 1143.05C654.524 1143.85 652.914 1143.89 651.596 1143.15C650.278 1142.42 649.46 1141.04 649.457 1139.53C649.455 1138.03 650.267 1136.64 651.582 1135.89Z" fill="#C7F44B"/>
<path d="M534.808 1014.54C536.19 1013.89 537.819 1014.05 539.047 1014.96C540.274 1015.87 540.899 1017.38 540.671 1018.9C540.443 1020.41 539.4 1021.67 537.958 1022.18C535.883 1022.91 533.597 1021.89 532.757 1019.86C531.919 1017.82 532.82 1015.49 534.808 1014.54Z" fill="#C7F44B"/>
<path d="M444.393 916.34C446.526 915.978 448.577 917.323 449.094 919.425C449.612 921.525 448.42 923.67 446.364 924.34C444.891 924.82 443.274 924.436 442.175 923.346C441.075 922.256 440.677 920.642 441.145 919.165C441.612 917.69 442.866 916.598 444.393 916.34Z" fill="#C7F44B"/>
<path d="M1088.22 1014.61C1089.61 1013.83 1091.32 1013.93 1092.62 1014.85C1093.91 1015.77 1094.57 1017.36 1094.28 1018.93C1094.01 1020.5 1092.85 1021.76 1091.31 1022.18C1089.31 1022.73 1087.2 1021.7 1086.41 1019.77C1085.63 1017.84 1086.4 1015.62 1088.22 1014.61Z" fill="#C7F44B"/>
<path d="M1206.72 1014.6C1208.08 1013.84 1209.77 1013.92 1211.05 1014.81C1212.34 1015.7 1213.02 1017.24 1212.79 1018.79C1212.57 1020.34 1211.48 1021.63 1210 1022.12C1207.98 1022.79 1205.78 1021.8 1204.93 1019.85C1204.08 1017.91 1204.86 1015.63 1206.72 1014.6Z" fill="#C7F44B"/>
<path d="M1230.13 1014.6C1231.49 1013.84 1233.18 1013.92 1234.47 1014.81C1235.76 1015.7 1236.43 1017.24 1236.2 1018.79C1235.98 1020.34 1234.9 1021.63 1233.41 1022.12C1231.39 1022.79 1229.19 1021.8 1228.34 1019.85C1227.49 1017.91 1228.27 1015.63 1230.13 1014.6Z" fill="#C7F44B"/>
<path d="M200.116 572.002L268.563 572L268.575 640.447C245.717 640.599 222.858 640.616 200 640.498L200.116 572.002Z" fill="#494B57"/>
<path d="M409.61 572L478.054 572.038C478.184 594.803 478.183 617.569 478.052 640.334C456.065 640.861 431.751 640.361 409.575 640.36L409.61 572Z" fill="#494B57"/>
<path d="M619.15 572.027L687.726 572L687.693 640.575L619.17 640.505L619.15 572.027Z" fill="#818594"/>
<path d="M831.734 572C852.723 572.584 875.976 572.142 897.12 572.116C897.137 580.459 897.85 637.947 896.33 640.575L829.12 640.482C829.3 630.079 827.727 579.587 829.849 572.654L831.734 572Z" fill="#494B57"/>
<path d="M1038.55 572.059L1106.69 572C1106.72 594.27 1107.2 618.46 1106.5 640.575L1038.58 640.476C1038.07 618.323 1038.39 594.31 1038.55 572.059Z" fill="#818594"/>
<path d="M1248.12 572.059L1316.26 572C1316.29 594.27 1316.78 618.46 1316.07 640.575L1248.16 640.476C1247.64 618.323 1247.97 594.31 1248.12 572.059Z" fill="#818594"/>
<path d="M200.045 777.575L268.575 777.603L268.486 845.178C266.122 846.636 207.832 846.02 200 846.029L200.045 777.575Z" fill="#5A5D6B"/>
<path d="M409.575 777.613L478.065 777.575C478.197 800.428 478.176 823.281 478.001 846.133L409.58 846.151L409.575 777.613Z" fill="#FEFEFD"/>
<path d="M619.15 777.607L687.726 777.575L687.63 846.151L619.379 846.116C619.424 823.28 619.347 800.442 619.15 777.607Z" fill="#818594"/>
<path d="M828.727 777.575L897.302 777.592C896.722 799.884 897.111 823.769 897.077 846.151L828.774 846.144L828.727 777.575Z" fill="#494B57"/>
<path d="M1038.31 777.575L1106.88 777.577L1106.86 846.151L1038.3 846.139L1038.31 777.575Z" fill="#494B57"/>
<path d="M1247.89 777.575L1316.45 777.577L1316.44 846.151L1247.88 846.139L1247.89 777.575Z" fill="#494B57"/>
<path d="M200.19 983.25C222.635 983.229 246.184 982.878 268.532 983.638L268.575 1051.73L200.032 1051.64C199.959 1028.85 200.012 1006.05 200.19 983.25Z" fill="#C7F44B"/>
<path d="M409.66 983.151C432.415 983.453 455.461 982.967 478.128 983.635L478.151 1051.73L409.575 1051.65L409.66 983.151Z" fill="#C7F44B"/>
<path d="M619.15 983.151L687.448 983.497C687.456 995.858 688.324 1041.65 686.949 1050.84L685.502 1051.73L619.168 1051.72L619.15 983.151Z" fill="#C7F44B"/>
<path d="M828.818 983.151C851.56 983.459 874.391 982.865 897.141 983.6C897.315 1006.31 897.346 1029.02 897.244 1051.73L828.727 1051.59L828.818 983.151Z" fill="#C7F44B"/>
<path d="M1038.39 983.151C1061.13 983.459 1083.97 982.865 1106.72 983.6C1106.89 1006.31 1106.92 1029.02 1106.82 1051.73L1038.3 1051.59L1038.39 983.151Z" fill="#C7F44B"/>
<path d="M1247.97 983.151C1270.71 983.459 1293.54 982.865 1316.29 983.6C1316.47 1006.31 1316.5 1029.02 1316.39 1051.73L1247.88 1051.59L1247.97 983.151Z" fill="#C7F44B"/>
<path d="M409.794 1394.3L478.151 1394.31L478.026 1462.69C455.266 1462.93 432.504 1462.94 409.744 1462.71C409.503 1439.91 409.52 1417.1 409.794 1394.3Z" fill="#818594"/>
<path d="M619.182 1394.3L687.597 1394.39L687.726 1462.74C664.867 1462.89 642.009 1462.92 619.15 1462.81L619.182 1394.3Z" fill="#494B57"/>
<path d="M828.727 1394.3L896.956 1394.43C897.567 1416.5 897.206 1440.7 897.092 1462.88C874.678 1462.38 851.452 1463.02 828.797 1462.7L828.727 1394.3Z" fill="#494B57"/>
<path d="M1038.36 1394.35L1106.78 1394.3C1106.91 1417.14 1106.91 1439.97 1106.78 1462.81C1083.95 1462.91 1061.13 1462.9 1038.3 1462.77L1038.36 1394.35Z" fill="#818594"/>
<path d="M1247.99 1394.34L1316.44 1394.3L1316.45 1462.81L1247.88 1462.88L1247.99 1394.34Z" fill="#494B57"/>
<path d="M200.202 1188.96C222.442 1188.49 246.139 1188.87 268.492 1188.87L268.575 1256.23C266.675 1257.87 207.729 1257.14 200.125 1257.13C199.853 1234.62 200.094 1211.5 200.202 1188.96Z" fill="#494B57"/>
<path d="M409.685 1188.89C432.343 1188.6 455.422 1188.79 478.113 1188.76L478.151 1257.3L409.575 1257.28L409.685 1188.89Z" fill="#5A5D6B"/>
<path d="M619.15 1188.8L687.664 1188.73C687.768 1211.58 687.741 1234.44 687.584 1257.3L619.253 1257.22L619.15 1188.8Z" fill="white"/>
<path d="M828.784 1188.73H897.016C897.068 1198.23 897.864 1251.96 896.549 1257.26L828.727 1257.3L828.784 1188.73Z" fill="#494B57"/>
<path d="M1038.45 1188.87C1061.04 1188.57 1084.24 1188.83 1106.88 1188.84L1106.84 1257.3L1038.39 1257.22C1038.26 1234.44 1038.27 1211.65 1038.45 1188.87Z" fill="#818594"/>
<path d="M1248.03 1188.87C1270.62 1188.57 1293.82 1188.83 1316.45 1188.84L1316.42 1257.3L1247.97 1257.22C1247.83 1234.44 1247.85 1211.65 1248.03 1188.87Z" fill="#818594"/>
<path d="M200.112 1394.34L268.567 1394.3L268.575 1462.81L200 1462.88L200.112 1394.34Z" fill="#494B57"/>
<path d="M200.116 572.002L268.563 572L268.575 640.447C245.717 640.599 222.858 640.616 200 640.498L200.116 572.002Z" fill="#494B57"/>
<path d="M409.61 572L478.054 572.038C478.184 594.803 478.183 617.569 478.052 640.334C456.065 640.861 431.751 640.361 409.575 640.36L409.61 572Z" fill="#494B57"/>
<path d="M619.15 572.027L687.726 572L687.693 640.575L619.17 640.505L619.15 572.027Z" fill="#818594"/>
<path d="M831.734 572C852.723 572.584 875.976 572.142 897.12 572.116C897.137 580.459 897.85 637.947 896.33 640.575L829.12 640.482C829.3 630.079 827.727 579.587 829.849 572.654L831.734 572Z" fill="#494B57"/>
<path d="M1038.55 572.059L1106.69 572C1106.72 594.27 1107.2 618.46 1106.5 640.575L1038.58 640.476C1038.07 618.323 1038.39 594.31 1038.55 572.059Z" fill="#818594"/>
<path d="M1248.12 572.059L1316.26 572C1316.29 594.27 1316.78 618.46 1316.07 640.575L1248.16 640.476C1247.64 618.323 1247.97 594.31 1248.12 572.059Z" fill="#818594"/>
<path d="M200.045 777.575L268.575 777.603L268.486 845.178C266.122 846.636 207.832 846.02 200 846.029L200.045 777.575Z" fill="#5A5D6B"/>
<path d="M409.575 777.613L478.065 777.575C478.197 800.428 478.176 823.281 478.001 846.133L409.58 846.151L409.575 777.613Z" fill="#FEFEFD"/>
<path d="M619.15 777.607L687.726 777.575L687.63 846.151L619.379 846.116C619.424 823.28 619.347 800.442 619.15 777.607Z" fill="#818594"/>
<path d="M828.727 777.575L897.302 777.592C896.722 799.884 897.111 823.769 897.077 846.151L828.774 846.144L828.727 777.575Z" fill="#494B57"/>
<path d="M1038.31 777.575L1106.88 777.577L1106.86 846.151L1038.3 846.139L1038.31 777.575Z" fill="#494B57"/>
<path d="M1247.89 777.575L1316.45 777.577L1316.44 846.151L1247.88 846.139L1247.89 777.575Z" fill="#494B57"/>
<path d="M200.19 983.25C222.635 983.229 246.184 982.878 268.532 983.638L268.575 1051.73L200.032 1051.64C199.959 1028.85 200.012 1006.05 200.19 983.25Z" fill="#C7F44B"/>
<path d="M409.66 983.151C432.415 983.453 455.461 982.967 478.128 983.635L478.151 1051.73L409.575 1051.65L409.66 983.151Z" fill="#C7F44B"/>
<path d="M619.15 983.151L687.448 983.497C687.456 995.858 688.324 1041.65 686.949 1050.84L685.502 1051.73L619.168 1051.72L619.15 983.151Z" fill="#C7F44B"/>
<path d="M828.818 983.151C851.56 983.459 874.391 982.865 897.141 983.6C897.315 1006.31 897.346 1029.02 897.244 1051.73L828.727 1051.59L828.818 983.151Z" fill="#C7F44B"/>
<path d="M1038.39 983.151C1061.13 983.459 1083.97 982.865 1106.72 983.6C1106.89 1006.31 1106.92 1029.02 1106.82 1051.73L1038.3 1051.59L1038.39 983.151Z" fill="#C7F44B"/>
<path d="M1247.97 983.151C1270.71 983.459 1293.54 982.865 1316.29 983.6C1316.47 1006.31 1316.5 1029.02 1316.39 1051.73L1247.88 1051.59L1247.97 983.151Z" fill="#C7F44B"/>
<path d="M409.794 1394.3L478.151 1394.31L478.026 1462.69C455.266 1462.93 432.504 1462.94 409.744 1462.71C409.503 1439.91 409.52 1417.1 409.794 1394.3Z" fill="#818594"/>
<path d="M619.182 1394.3L687.597 1394.39L687.726 1462.74C664.867 1462.89 642.009 1462.92 619.15 1462.81L619.182 1394.3Z" fill="#494B57"/>
<path d="M828.727 1394.3L896.956 1394.43C897.567 1416.5 897.206 1440.7 897.092 1462.88C874.678 1462.38 851.452 1463.02 828.797 1462.7L828.727 1394.3Z" fill="#494B57"/>
<path d="M1038.36 1394.35L1106.78 1394.3C1106.91 1417.14 1106.91 1439.97 1106.78 1462.81C1083.95 1462.91 1061.13 1462.9 1038.3 1462.77L1038.36 1394.35Z" fill="#818594"/>
<path d="M1247.99 1394.34L1316.44 1394.3L1316.45 1462.81L1247.88 1462.88L1247.99 1394.34Z" fill="#494B57"/>
<path d="M200.202 1188.96C222.442 1188.49 246.139 1188.87 268.492 1188.87L268.575 1256.23C266.675 1257.87 207.729 1257.14 200.125 1257.13C199.853 1234.62 200.094 1211.5 200.202 1188.96Z" fill="#494B57"/>
<path d="M409.685 1188.89C432.343 1188.6 455.422 1188.79 478.113 1188.76L478.151 1257.3L409.575 1257.28L409.685 1188.89Z" fill="#5A5D6B"/>
<path d="M619.15 1188.8L687.664 1188.73C687.768 1211.58 687.741 1234.44 687.584 1257.3L619.253 1257.22L619.15 1188.8Z" fill="white"/>
<path d="M828.784 1188.73H897.016C897.068 1198.23 897.864 1251.96 896.549 1257.26L828.727 1257.3L828.784 1188.73Z" fill="#494B57"/>
<path d="M1038.45 1188.87C1061.04 1188.57 1084.24 1188.83 1106.88 1188.84L1106.84 1257.3L1038.39 1257.22C1038.26 1234.44 1038.27 1211.65 1038.45 1188.87Z" fill="#818594"/>
<path d="M1248.03 1188.87C1270.62 1188.57 1293.82 1188.83 1316.45 1188.84L1316.42 1257.3L1247.97 1257.22C1247.83 1234.44 1247.85 1211.65 1248.03 1188.87Z" fill="#818594"/>
<path d="M200.112 1394.34L268.567 1394.3L268.575 1462.81L200 1462.88L200.112 1394.34Z" fill="#494B57"/>
<path d="M697.625 1014.59C698.944 1013.9 700.533 1013.98 701.779 1014.79C703.025 1015.61 703.734 1017.03 703.635 1018.52C703.536 1020 702.642 1021.32 701.299 1021.96C699.272 1022.92 696.845 1022.09 695.842 1020.08C694.841 1018.07 695.633 1015.63 697.625 1014.59Z" fill="#C7F44B"/>
<path d="M276.517 1014.51C277.909 1013.85 279.552 1014.03 280.776 1014.96C282 1015.9 282.601 1017.44 282.333 1018.95C282.064 1020.47 280.973 1021.71 279.502 1022.17C277.438 1022.81 275.228 1021.74 274.443 1019.73C273.657 1017.72 274.563 1015.44 276.517 1014.51Z" fill="#C7F44B"/>
<path d="M443.814 941.454C445.895 940.741 448.169 941.788 448.981 943.833C449.792 945.877 448.855 948.199 446.85 949.106C445.467 949.733 443.851 949.547 442.645 948.624C441.438 947.7 440.839 946.188 441.083 944.689C441.327 943.19 442.377 941.947 443.814 941.454Z" fill="#C7F44B"/>
<path d="M300.025 1014.64C301.341 1013.91 302.953 1013.95 304.226 1014.76C305.498 1015.57 306.227 1017.01 306.124 1018.51C306.021 1020.01 305.103 1021.34 303.732 1021.97C301.726 1022.88 299.355 1022.05 298.359 1020.09C297.364 1018.12 298.098 1015.72 300.025 1014.64Z" fill="#C7F44B"/>
<path d="M443.139 966.62C444.48 965.923 446.097 966.019 447.346 966.872C448.595 967.724 449.274 969.194 449.113 970.697C448.953 972.201 447.978 973.494 446.578 974.064C444.547 974.889 442.226 973.973 441.306 971.983C440.386 969.992 441.194 967.631 443.139 966.62Z" fill="#C7F44B"/>
<path d="M995.463 1014.53C996.836 1013.84 998.478 1013.96 999.716 1014.86C1000.96 1015.76 1001.6 1017.28 1001.38 1018.8C1001.14 1020.32 1000.09 1021.58 998.63 1022.07C996.591 1022.76 994.368 1021.76 993.534 1019.78C992.7 1017.79 993.542 1015.5 995.463 1014.53Z" fill="#C7F44B"/>
<path d="M1041.17 1014.64C1042.48 1013.91 1044.08 1013.95 1045.35 1014.75C1046.61 1015.54 1047.35 1016.97 1047.26 1018.46C1047.17 1019.96 1046.28 1021.28 1044.92 1021.93C1042.92 1022.87 1040.53 1022.06 1039.52 1020.1C1038.51 1018.13 1039.24 1015.72 1041.17 1014.64Z" fill="#C7F44B"/>
<path d="M1135.45 1014.59C1136.83 1013.81 1138.54 1013.9 1139.83 1014.82C1141.11 1015.73 1141.75 1017.31 1141.48 1018.87C1141.2 1020.43 1140.05 1021.68 1138.53 1022.1C1136.53 1022.64 1134.45 1021.61 1133.67 1019.7C1132.88 1017.79 1133.65 1015.6 1135.45 1014.59Z" fill="#C7F44B"/>
<path d="M1111.9 1014.56C1113.29 1013.87 1114.94 1014.03 1116.18 1014.96C1117.41 1015.89 1118.02 1017.44 1117.73 1018.96C1117.45 1020.49 1116.33 1021.72 1114.84 1022.14C1112.81 1022.73 1110.67 1021.67 1109.91 1019.7C1109.15 1017.73 1110.01 1015.5 1111.9 1014.56Z" fill="#C7F44B"/>
<path d="M1183.24 1014.57C1184.61 1013.89 1186.23 1014.01 1187.47 1014.9C1188.71 1015.79 1189.35 1017.3 1189.13 1018.8C1188.91 1020.31 1187.87 1021.57 1186.43 1022.07C1184.4 1022.78 1182.17 1021.79 1181.33 1019.81C1180.5 1017.83 1181.33 1015.54 1183.24 1014.57Z" fill="#C7F44B"/>
<path d="M1159.29 1014.64C1160.61 1013.9 1162.23 1013.96 1163.49 1014.79C1164.76 1015.62 1165.46 1017.08 1165.33 1018.58C1165.19 1020.09 1164.23 1021.39 1162.83 1021.97C1160.83 1022.8 1158.53 1021.93 1157.59 1019.98C1156.65 1018.03 1157.39 1015.68 1159.29 1014.64Z" fill="#C7F44B"/>
<path d="M977.152 1014.47C979.139 1013.47 981.557 1014.24 982.584 1016.21C983.62 1018.17 982.887 1020.6 980.933 1021.67C979.653 1022.37 978.078 1022.32 976.84 1021.55C975.594 1020.77 974.861 1019.38 974.928 1017.92C974.995 1016.45 975.846 1015.13 977.152 1014.47Z" fill="#C7F44B"/>
<path d="M931.071 1014.57C932.385 1013.9 933.96 1013.99 935.181 1014.81C936.411 1015.64 937.085 1017.06 936.967 1018.53C936.841 1020 935.923 1021.28 934.583 1021.89C932.57 1022.79 930.212 1021.92 929.26 1019.94C928.309 1017.95 929.117 1015.57 931.071 1014.57Z" fill="#C7F44B"/>
<path d="M1018.27 1014.59C1019.63 1013.86 1021.3 1013.97 1022.56 1014.87C1023.82 1015.78 1024.44 1017.33 1024.18 1018.86C1023.91 1020.38 1022.8 1021.62 1021.31 1022.05C1019.31 1022.62 1017.22 1021.6 1016.43 1019.69C1015.66 1017.77 1016.45 1015.57 1018.27 1014.59Z" fill="#C7F44B"/>
<path d="M443.179 868.071C444.466 867.325 446.059 867.345 447.327 868.123C448.594 868.902 449.332 870.313 449.249 871.799C449.164 873.283 448.273 874.603 446.926 875.234C444.965 876.154 442.627 875.366 441.624 873.446C440.62 871.527 441.305 869.156 443.179 868.071Z" fill="#C7F44B"/>
<path d="M444.335 891.89C446.505 891.452 448.624 892.839 449.09 895.003C449.556 897.168 448.195 899.304 446.036 899.797C444.616 900.121 443.131 899.656 442.149 898.58C441.167 897.504 440.839 895.983 441.292 894.598C441.745 893.213 442.907 892.179 444.335 891.89Z" fill="#C7F44B"/>
<path d="M652.457 1160.41C654.454 1159.74 656.633 1160.72 657.455 1162.65C658.278 1164.6 657.469 1166.84 655.597 1167.81C654.253 1168.51 652.633 1168.39 651.401 1167.51C650.17 1166.63 649.535 1165.14 649.758 1163.64C649.98 1162.14 651.023 1160.89 652.457 1160.41Z" fill="#C7F44B"/>
<path d="M651.751 1111.5C653.091 1110.82 654.698 1110.95 655.921 1111.82C657.144 1112.69 657.779 1114.17 657.568 1115.66C657.357 1117.15 656.336 1118.4 654.918 1118.9C652.916 1119.6 650.709 1118.64 649.872 1116.68C649.036 1114.74 649.858 1112.47 651.751 1111.5Z" fill="#C7F44B"/>
<path d="M955.049 1014.52C957.096 1013.64 959.471 1014.59 960.347 1016.65C961.214 1018.7 960.246 1021.07 958.182 1021.93C956.144 1022.77 953.802 1021.82 952.935 1019.78C952.076 1017.75 953.019 1015.4 955.049 1014.52Z" fill="#C7F44B"/>
<path d="M652.386 1087.11C654.453 1086.53 656.607 1087.68 657.276 1089.72C657.945 1091.76 656.892 1093.97 654.886 1094.72C653.506 1095.25 651.948 1094.98 650.832 1094.01C649.717 1093.04 649.224 1091.53 649.549 1090.09C649.873 1088.65 650.963 1087.51 652.386 1087.11Z" fill="#C7F44B"/>
<path d="M652.072 1063.46C653.423 1062.9 654.972 1063.12 656.105 1064.05C657.24 1064.97 657.777 1066.44 657.505 1067.87C657.233 1069.31 656.195 1070.48 654.802 1070.92C652.772 1071.57 650.591 1070.5 649.859 1068.5C649.127 1066.5 650.103 1064.28 652.072 1063.46Z" fill="#C7F44B"/>
</svg>
