<svg width="951" height="256" viewBox="0 0 951 256" fill="none" xmlns="http://www.w3.org/2000/svg">
<path d="M224 96C224 65.8301 224 50.7452 214.627 41.3726C205.255 32 190.17 32 160 32H96C65.8301 32 50.7452 32 41.3726 41.3726C32 50.7452 32 65.8301 32 96V160C32 190.17 32 205.255 41.3726 214.627C50.7452 224 65.8301 224 96 224H160C190.17 224 205.255 224 214.627 214.627C224 205.255 224 190.17 224 160V96Z" fill="black"/>
<rect width="144" height="124" rx="24" transform="matrix(-1 0 0 1 208 48)" fill="#CDFF52"/>
<path d="M160 80L176 100.513L160 120" stroke="black" stroke-width="14.4"/>
<path d="M128 80L112 100.513L128 120" stroke="black" stroke-width="14.4"/>
<path d="M349.12 141.86V147.46C349.12 156.313 346.48 163.46 341.2 168.9C335.92 174.34 328.827 177.06 319.92 177.06C311.067 177.06 303.973 174.34 298.64 168.9C293.36 163.46 290.72 156.313 290.72 147.46V81.54C290.72 72.6333 293.36 65.4867 298.64 60.1C303.973 54.66 311.067 51.94 319.92 51.94C328.827 51.94 335.92 54.66 341.2 60.1C346.48 65.4867 349.12 72.6333 349.12 81.54V87.14H330.72V81.54C330.72 78.18 329.76 75.4867 327.84 73.46C325.92 71.38 323.28 70.34 319.92 70.34C316.56 70.34 313.92 71.38 312 73.46C310.08 75.4867 309.12 78.18 309.12 81.54V147.46C309.12 150.82 310.08 153.54 312 155.62C313.92 157.647 316.56 158.66 319.92 158.66C323.28 158.66 325.92 157.647 327.84 155.62C329.76 153.54 330.72 150.82 330.72 147.46V141.86H349.12ZM390.516 176.5C384.916 176.5 380.036 175.3 375.876 172.9C371.716 170.447 368.463 167.033 366.116 162.66C363.823 158.287 362.676 153.193 362.676 147.38V113.94C362.676 108.18 363.823 103.113 366.116 98.74C368.463 94.3133 371.716 90.9 375.876 88.5C380.036 86.0467 384.916 84.82 390.516 84.82C398.943 84.82 405.663 87.4867 410.676 92.82C415.743 98.1533 418.276 105.193 418.276 113.94V147.38C418.276 156.073 415.743 163.113 410.676 168.5C405.663 173.833 398.943 176.5 390.516 176.5ZM390.516 159.3C393.823 159.3 396.41 158.313 398.276 156.34C400.143 154.367 401.076 151.78 401.076 148.58V112.74C401.076 109.54 400.143 106.953 398.276 104.98C396.41 103.007 393.823 102.02 390.516 102.02C387.21 102.02 384.596 103.007 382.676 104.98C380.81 106.953 379.876 109.54 379.876 112.74V148.58C379.876 151.78 380.81 154.367 382.676 156.34C384.596 158.313 387.21 159.3 390.516 159.3ZM456.738 176.5C452.844 176.5 449.191 175.647 445.778 173.94C442.364 172.18 439.591 169.273 437.458 165.22C435.324 161.167 434.258 155.62 434.258 148.58V112.74C434.258 105.753 435.324 100.233 437.458 96.18C439.591 92.0733 442.364 89.1667 445.778 87.46C449.191 85.7 452.844 84.82 456.738 84.82C461.271 84.82 465.084 85.78 468.177 87.7C471.324 89.5667 473.778 92.2067 475.538 95.62L472.578 99.62V54.5H489.778V174.5H472.578V161.78L475.538 165.7C473.778 169.113 471.324 171.78 468.177 173.7C465.084 175.567 461.271 176.5 456.738 176.5ZM462.018 159.3C465.378 159.3 467.964 158.34 469.778 156.42C471.644 154.447 472.578 151.833 472.578 148.58V112.74C472.578 109.54 471.644 106.953 469.778 104.98C467.964 103.007 465.378 102.02 462.018 102.02C458.658 102.02 456.044 103.007 454.178 104.98C452.364 106.953 451.458 109.54 451.458 112.74V148.58C451.458 151.78 452.364 154.367 454.178 156.34C456.044 158.313 458.658 159.3 462.018 159.3ZM535.204 176.5C529.604 176.5 524.724 175.3 520.564 172.9C516.404 170.447 513.15 167.033 510.804 162.66C508.51 158.287 507.364 153.193 507.364 147.38V113.94C507.364 108.18 508.51 103.113 510.804 98.74C513.15 94.3133 516.404 90.9 520.564 88.5C524.724 86.0467 529.604 84.82 535.204 84.82C543.63 84.82 550.35 87.4867 555.364 92.82C560.43 98.1533 562.964 105.193 562.964 113.94V134.66H522.084V118.66H545.764V112.74C545.764 109.54 544.83 106.953 542.964 104.98C541.097 103.007 538.51 102.02 535.204 102.02C531.897 102.02 529.284 103.007 527.364 104.98C525.497 106.953 524.564 109.54 524.564 112.74V148.58C524.564 151.78 525.497 154.367 527.364 156.34C529.284 158.313 531.897 159.3 535.204 159.3C538.51 159.3 541.097 158.313 542.964 156.34C544.83 154.367 545.764 151.78 545.764 148.58V145.78H562.964V147.38C562.964 156.073 560.43 163.113 555.364 168.5C550.35 173.833 543.63 176.5 535.204 176.5ZM626.876 174.5L604.876 117.14L599.436 125.22V94.98L626.876 54.5H646.716L617.436 98.18L646.636 174.5H626.876ZM582.636 174.5V54.5H601.036V174.5H582.636ZM676.365 176.5C668.898 176.5 663.165 174.26 659.165 169.78C655.218 165.3 653.245 159.62 653.245 152.74C653.245 148.687 653.885 145.273 655.165 142.5C656.498 139.727 658.205 137.407 660.285 135.54C662.418 133.673 664.738 132.127 667.245 130.9C670.125 129.407 673.085 128.207 676.125 127.3C679.165 126.34 681.992 125.38 684.605 124.42C687.218 123.407 689.325 122.153 690.925 120.66C692.525 119.113 693.325 117.06 693.325 114.5V112.74C693.325 109.54 692.365 106.953 690.445 104.98C688.578 103.007 685.992 102.02 682.685 102.02C679.325 102.02 676.712 103.007 674.845 104.98C673.032 106.953 672.125 109.54 672.125 112.74V116.74H654.925V113.94C654.925 105.193 657.432 98.1533 662.445 92.82C667.512 87.4867 674.258 84.82 682.685 84.82C688.285 84.82 693.165 86.0467 697.325 88.5C701.485 90.9 704.712 94.2867 707.005 98.66C709.352 103.033 710.525 108.127 710.525 113.94V174.5H693.325V161.3L696.285 165.14C694.525 168.82 691.938 171.647 688.525 173.62C685.112 175.54 681.058 176.5 676.365 176.5ZM681.485 160.58C684.792 160.58 687.592 159.62 689.885 157.7C692.178 155.78 693.325 152.74 693.325 148.58V135.22C691.298 136.713 688.925 137.807 686.205 138.5C683.538 139.193 680.898 140.1 678.285 141.22C675.778 142.233 673.832 143.487 672.445 144.98C671.112 146.473 670.445 148.42 670.445 150.82C670.445 153.487 671.378 155.78 673.245 157.7C675.165 159.62 677.912 160.58 681.485 160.58ZM729.455 174.5V86.9H746.655V100.66L743.535 96.98C745.402 93.2467 747.962 90.4467 751.215 88.58C754.468 86.7133 758.228 85.78 762.495 85.78H766.415V102.98H757.135C753.882 102.98 751.322 103.86 749.455 105.62C747.588 107.327 746.655 109.78 746.655 112.98V174.5H729.455ZM776.799 174.5V86.9H793.999V99.7L791.039 95.78C792.799 92.3133 795.252 89.62 798.399 87.7C801.545 85.78 805.359 84.82 809.839 84.82C814.692 84.82 819.172 86.1267 823.279 88.74C827.385 91.3533 830.105 95.6733 831.439 101.7L826.959 100.74C828.452 95.78 830.932 91.8867 834.399 89.06C837.865 86.2333 842.345 84.82 847.839 84.82C851.732 84.82 855.359 85.6467 858.719 87.3C862.079 88.9 864.799 91.4867 866.879 95.06C868.959 98.6333 869.999 103.327 869.999 109.14V174.5H852.799V112.74C852.799 109.54 851.865 106.953 849.999 104.98C848.185 103.007 845.679 102.02 842.479 102.02C839.225 102.02 836.665 103.007 834.799 104.98C832.932 106.953 831.999 109.54 831.999 112.74V174.5H814.799V112.74C814.799 109.54 813.865 106.953 811.999 104.98C810.185 103.007 807.679 102.02 804.479 102.02C801.225 102.02 798.665 103.007 796.799 104.98C794.932 106.953 793.999 109.54 793.999 112.74V174.5H776.799ZM907.615 176.5C900.148 176.5 894.415 174.26 890.415 169.78C886.468 165.3 884.495 159.62 884.495 152.74C884.495 148.687 885.135 145.273 886.415 142.5C887.748 139.727 889.455 137.407 891.535 135.54C893.668 133.673 895.988 132.127 898.495 130.9C901.375 129.407 904.335 128.207 907.375 127.3C910.415 126.34 913.242 125.38 915.855 124.42C918.468 123.407 920.575 122.153 922.175 120.66C923.775 119.113 924.575 117.06 924.575 114.5V112.74C924.575 109.54 923.615 106.953 921.695 104.98C919.828 103.007 917.242 102.02 913.935 102.02C910.575 102.02 907.962 103.007 906.095 104.98C904.282 106.953 903.375 109.54 903.375 112.74V116.74H886.175V113.94C886.175 105.193 888.682 98.1533 893.695 92.82C898.762 87.4867 905.508 84.82 913.935 84.82C919.535 84.82 924.415 86.0467 928.575 88.5C932.735 90.9 935.962 94.2867 938.255 98.66C940.602 103.033 941.775 108.127 941.775 113.94V174.5H924.575V161.3L927.535 165.14C925.775 168.82 923.188 171.647 919.775 173.62C916.362 175.54 912.308 176.5 907.615 176.5ZM912.735 160.58C916.042 160.58 918.842 159.62 921.135 157.7C923.428 155.78 924.575 152.74 924.575 148.58V135.22C922.548 136.713 920.175 137.807 917.455 138.5C914.788 139.193 912.148 140.1 909.535 141.22C907.028 142.233 905.082 143.487 903.695 144.98C902.362 146.473 901.695 148.42 901.695 150.82C901.695 153.487 902.628 155.78 904.495 157.7C906.415 159.62 909.162 160.58 912.735 160.58Z" fill="black"/>
</svg>
