<svg width="16" height="16" viewBox="0 0 16 16" fill="none" xmlns="http://www.w3.org/2000/svg">
  <g clip-path="url(#clip0_12253_50779)">
    <path fill-rule="evenodd" clip-rule="evenodd" d="M14.497 1.50293C15.2 2.20588 15.2 3.33725 15.2 5.59999V10.4C15.2 12.6627 15.2 13.7941 14.497 14.497C13.7941 15.2 12.6627 15.2 10.3999 15.2H5.59995C3.33721 15.2 2.20584 15.2 1.5029 14.497C0.799952 13.7941 0.799952 12.6627 0.799952 10.4V5.59999C0.799952 3.33725 0.799952 2.20588 1.5029 1.50293C2.20584 0.799988 3.33721 0.799988 5.59995 0.799988H10.4C12.6627 0.799988 13.7941 0.799988 14.497 1.50293ZM13.4727 2.52721C13.9999 3.05442 13.9999 3.90294 13.9999 5.6V8C13.9999 9.69706 13.9999 10.5456 13.4727 11.0728C12.9455 11.6 12.097 11.6 10.3999 11.6H6.79994C5.10288 11.6 4.25435 11.6 3.72715 11.0728C3.19994 10.5456 3.19994 9.69706 3.19994 8V5.6C3.19994 3.90294 3.19994 3.05442 3.72715 2.52721C4.25435 2 5.10288 2 6.79994 2H10.3999C12.097 2 12.9455 2 13.4727 2.52721ZM12.0257 5.60634L10.8257 4.06788L9.97415 4.73212L10.9083 5.92981L9.98259 7.05733L10.8173 7.74267L12.0173 6.28113L12.2915 5.94711L12.0257 5.60634ZM7.57415 4.06788L6.37415 5.60634L6.10835 5.94711L6.38259 6.28113L7.58259 7.74267L8.41729 7.05733L7.49153 5.92981L8.42573 4.73212L7.57415 4.06788Z" fill="#CDFF52"/>
  </g>
  <defs>
    <clipPath id="clip0_12253_50779">
      <rect width="16" height="16" fill="white" transform="matrix(-1 0 0 1 16 0)"/>
    </clipPath>
  </defs>
</svg>
