<svg width="1596" height="1020" viewBox="0 0 1596 1020" fill="none" xmlns="http://www.w3.org/2000/svg">
  <defs>
    <linearGradient id="topbar" x1="30" y1="30" x2="1566" y2="72" gradientUnits="userSpaceOnUse">
      <stop stop-color="#2B2D30"/>
      <stop offset="0.43" stop-color="#24262B"/>
      <stop offset="1" stop-color="#202225"/>
    </linearGradient>
    <linearGradient id="topbar-glow" x1="30" y1="70" x2="650" y2="70" gradientUnits="userSpaceOnUse">
      <stop stop-color="#CDFF52" stop-opacity="0"/>
      <stop offset="0.211792" stop-color="#CDFF52" stop-opacity="0.4"/>
      <stop offset="1" stop-color="#CDFF52" stop-opacity="0"/>
    </linearGradient>
    <clipPath id="topbar-clip">
      <rect x="30" y="30" width="1536" height="40" rx="9"/>
    </clipPath>
    <style>
      .ui { font-family: Inter, Geist, system-ui, sans-serif; font-size: 13px; font-weight: 500; letter-spacing: 0; }
      .mono { font-family: "Geist Mono", "JetBrains Mono", ui-monospace, monospace; font-size: 12px; font-weight: 500; }
      .muted { fill: #9da0a8; }
      .dim { fill: #6f737b; }
      .line { stroke: #1e1f22; stroke-width: 1; }
      .soft-line { stroke: #34373d; stroke-width: 1; }
      .icon-line { stroke: #aeb4bf; stroke-width: 1.6; stroke-linecap: round; stroke-linejoin: round; }
      .chevron-line { stroke: #aeb4bf; stroke-width: 1.05; stroke-linecap: round; stroke-linejoin: round; }
      .asset-icon { opacity: 0.95; }
    </style>
    <symbol id="ide-icon-application" viewBox="0 0 16 16">
      <g clip-path="url(#ide-icon-application-clip0_12253_46599)">
      <rect x="1.5" y="2.5" width="13" height="11" rx="1.5" fill="#25324D" stroke="#548AF7"/>
      <path d="M4 5.5H5" stroke="#548AF7" stroke-linecap="round"/>
      <path d="M7 5.5H8" stroke="#548AF7" stroke-linecap="round"/>
      </g>
      <defs>
      <clipPath id="ide-icon-application-clip0_12253_46599">
      <rect width="16" height="16" fill="white"/>
      </clipPath>
      </defs>
    </symbol>
    <symbol id="ide-icon-bookmarks" viewBox="0 0 20 20">
      <path d="M5.5 2.25H14.5C15.1904 2.25 15.75 2.80964 15.75 3.5V17.4502C15.7498 17.6583 15.5098 17.7746 15.3457 17.6465L10.4619 13.832L10 13.4707L9.53809 13.832L4.6543 17.6465C4.49022 17.7746 4.25019 17.6583 4.25 17.4502V3.5C4.25 2.80964 4.80964 2.25 5.5 2.25Z" stroke="#CED0D6" stroke-width="1.5"/>
    </symbol>
    <symbol id="ide-icon-class" viewBox="0 0 16 16">
      <circle cx="8" cy="8" r="6.5" fill="#25324D" stroke="#548AF7"/>
      <path d="M8.1329 11.5C9.62185 11.5 10.8981 10.6008 11.2123 9.32459H10.1971C9.8829 10.0546 9.10459 10.5767 8.1329 10.5767C6.79381 10.5767 5.82696 9.50345 5.82696 8C5.82696 6.49655 6.79381 5.42334 8.1329 5.42334C9.10459 5.42334 9.8829 5.94544 10.1971 6.67541H11.2123C10.8981 5.39917 9.62185 4.5 8.1329 4.5C6.2137 4.5 4.7876 5.99378 4.7876 8C4.7876 10.0062 6.2137 11.5 8.1329 11.5Z" fill="#548AF7"/>
    </symbol>
    <symbol id="ide-icon-commit" viewBox="0 0 20 20">
      <path fill-rule="evenodd" clip-rule="evenodd" d="M19.25 9.25C19.6642 9.25 20 9.58579 20 10C20 10.4142 19.6642 10.75 19.25 10.75L13.9298 10.75C13.5787 12.6006 11.9528 14 10 14C8.04721 14 6.42125 12.6006 6.0702 10.75L0.75 10.75C0.335787 10.75 -1.92951e-07 10.4142 -1.74846e-07 10C-1.5674e-07 9.58579 0.335787 9.25 0.75 9.25L6.0702 9.25C6.42125 7.39935 8.04721 6 10 6C11.9528 6 13.5787 7.39935 13.9298 9.25L19.25 9.25ZM10 12.5C11.3807 12.5 12.5 11.3807 12.5 10C12.5 8.61929 11.3807 7.5 10 7.5C8.61929 7.5 7.5 8.61929 7.5 10C7.5 11.3807 8.61929 12.5 10 12.5Z" fill="#CED0D6"/>
    </symbol>
    <symbol id="ide-icon-database" viewBox="0 0 20 20">
      <path fill-rule="evenodd" clip-rule="evenodd" d="M3.82047 3.98794C3.54615 4.23394 3.5 4.40841 3.5 4.5C3.5 4.59159 3.54615 4.76606 3.82047 5.01206C4.09443 5.25775 4.53322 5.51334 5.13947 5.7433C6.34666 6.2012 8.06493 6.5 10 6.5C11.9351 6.5 13.6533 6.2012 14.8605 5.7433C15.4668 5.51334 15.9056 5.25775 16.1795 5.01206C16.4538 4.76606 16.5 4.59159 16.5 4.5C16.5 4.40841 16.4538 4.23394 16.1795 3.98794C15.9056 3.74225 15.4668 3.48666 14.8605 3.2567C13.6533 2.7988 11.9351 2.5 10 2.5C8.06493 2.5 6.34666 2.7988 5.13947 3.2567C4.53322 3.48666 4.09443 3.74225 3.82047 3.98794ZM16.5 6.62161C16.1673 6.81942 15.7933 6.99378 15.3925 7.14579C13.9757 7.68319 12.069 8 10 8C7.93101 8 6.02427 7.68319 4.60749 7.14579C4.20672 6.99378 3.83265 6.81942 3.5 6.62161V8.2C3.5 8.29159 3.54615 8.46606 3.82047 8.71206C4.09443 8.95775 4.53322 9.21334 5.13947 9.4433C6.34666 9.9012 8.06493 10.2 10 10.2C11.9351 10.2 13.6533 9.9012 14.8605 9.4433C15.4668 9.21334 15.9056 8.95775 16.1795 8.71206C16.4538 8.46606 16.5 8.29159 16.5 8.2V6.62161ZM18 4.5C18 3.8322 17.6404 3.28322 17.181 2.87122C16.7212 2.45889 16.0983 2.1219 15.3925 1.85421C13.9757 1.31681 12.069 1 10 1C7.93101 1 6.02427 1.31681 4.60749 1.85421C3.90174 2.1219 3.27879 2.45889 2.81901 2.87122C2.35959 3.28322 2 3.8322 2 4.5V15.5C2 16.1678 2.35959 16.7168 2.81901 17.1288C3.27879 17.5411 3.90174 17.8781 4.60749 18.1458C6.02427 18.6832 7.93101 19 10 19C12.069 19 13.9757 18.6832 15.3925 18.1458C16.0983 17.8781 16.7212 17.5411 17.181 17.1288C17.6404 16.7168 18 16.1678 18 15.5V4.5ZM16.5 10.3216C16.1673 10.5194 15.7933 10.6938 15.3925 10.8458C13.9757 11.3832 12.069 11.7 10 11.7C7.93101 11.7 6.02427 11.3832 4.60749 10.8458C4.20672 10.6938 3.83265 10.5194 3.5 10.3216V11.8C3.5 11.8916 3.54615 12.0661 3.82047 12.3121C4.09443 12.5577 4.53322 12.8133 5.13947 13.0433C6.34666 13.5012 8.06493 13.8 10 13.8C11.9351 13.8 13.6533 13.5012 14.8605 13.0433C15.4668 12.8133 15.9056 12.5577 16.1795 12.3121C16.4538 12.0661 16.5 11.8916 16.5 11.8V10.3216ZM16.5 13.9216C16.1673 14.1194 15.7933 14.2938 15.3925 14.4458C13.9757 14.9832 12.069 15.3 10 15.3C7.93101 15.3 6.02427 14.9832 4.60749 14.4458C4.20672 14.2938 3.83265 14.1194 3.5 13.9216V15.5C3.5 15.5916 3.54615 15.7661 3.82047 16.0121C4.09443 16.2577 4.53322 16.5133 5.13947 16.7433C6.34666 17.2012 8.06493 17.5 10 17.5C11.9351 17.5 13.6533 17.2012 14.8605 16.7433C15.4668 16.5133 15.9056 16.2577 16.1795 16.0121C16.4538 15.7661 16.5 15.5916 16.5 15.5V13.9216Z" fill="#CED0D6"/>
    </symbol>
    <symbol id="ide-icon-folder" viewBox="0 0 16 16">
      <path d="M2.63379 2.5H6.12207C6.25815 2.5001 6.38821 2.55609 6.48242 2.6543L8.10547 4.3457L8.25391 4.5H13C13.8284 4.5 14.5 5.17157 14.5 6V12.1338C14.4998 12.9531 13.9314 13.5 13.3662 13.5H2.63379C2.0686 13.5 1.50021 12.9531 1.5 12.1338V3.86621C1.5002 3.09811 1.99927 2.56898 2.52734 2.50586L2.63379 2.5Z" fill="#43454A" stroke="#CED0D6"/>
    </symbol>
    <symbol id="ide-icon-gitignore-dark" viewBox="0 0 16 16">
      <circle cx="8" cy="8" r="6.5" fill="#43454A" stroke="#CED0D6"/>
      <path d="M3.5 12.5L12.5 3.5" stroke="#CED0D6"/>
    </symbol>
    <symbol id="ide-icon-gear" viewBox="0 0 20 20">
      <path fill-rule="evenodd" clip-rule="evenodd" d="M3.96446 5.54781C3.63344 5.99572 3.35137 6.48132 3.12584 6.99671L4.14987 8.72634C4.61489 9.51177 4.61489 10.4882 4.14987 11.2736L3.12584 13.0033C3.35137 13.5187 3.63344 14.0043 3.96446 14.4522L5.9723 14.4302C6.88501 14.4202 7.73062 14.9084 8.17831 15.7038L9.16331 17.4539C9.43778 17.4843 9.71717 17.5 10.0007 17.5C10.2843 17.5 10.5637 17.4843 10.8382 17.4539L11.8232 15.7038C12.2709 14.9084 13.1165 14.4202 14.0292 14.4302L16.037 14.4522C16.368 14.0043 16.6501 13.5186 16.8756 13.0033L15.8516 11.2736C15.3866 10.4882 15.3866 9.51177 15.8516 8.72634L16.8756 6.99671C16.6501 6.48132 16.368 5.99572 16.037 5.54781L14.0292 5.56981C13.1165 5.57981 12.2709 5.09159 11.8232 4.29617L10.8382 2.5461C10.5637 2.51567 10.2843 2.5 10.0007 2.5C9.71717 2.5 9.43779 2.51567 9.16332 2.54609L8.17831 4.29617C7.73062 5.09159 6.88501 5.57981 5.9723 5.56981L3.96446 5.54781ZM13.6234 10C13.6234 12.0008 12.0015 13.6227 10.0007 13.6227C7.99996 13.6227 6.37802 12.0008 6.37802 10C6.37802 7.99924 7.99996 6.37729 10.0007 6.37729C12.0015 6.37729 13.6234 7.99923 13.6234 10ZM5.98873 4.0699C6.35382 4.0739 6.69206 3.87861 6.87114 3.56044L7.98752 1.57695C8.13019 1.32346 8.37572 1.14153 8.66343 1.09868C9.09976 1.03368 9.54632 1 10.0007 1C10.4552 1 10.9017 1.03368 11.3381 1.09868C11.6258 1.14154 11.8713 1.32346 12.014 1.57695L13.1303 3.56044C13.3094 3.87861 13.6477 4.0739 14.0127 4.0699L16.2875 4.04498C16.5778 4.0418 16.8576 4.16301 17.0387 4.38992C17.594 5.08559 18.0482 5.8654 18.3793 6.70716C18.4856 6.9775 18.4507 7.28065 18.3027 7.53062L17.1424 9.49053C16.9563 9.8047 16.9563 10.1953 17.1424 10.5094L18.3027 12.4694C18.4507 12.7193 18.4856 13.0225 18.3793 13.2928C18.0482 14.1346 17.594 14.9144 17.0387 15.6101C16.8576 15.837 16.5778 15.9582 16.2875 15.955L14.0128 15.9301C13.6477 15.9261 13.3094 16.1214 13.1303 16.4395L12.014 18.423C11.8713 18.6765 11.6258 18.8584 11.3381 18.9013C10.9017 18.9663 10.4552 19 10.0007 19C9.54631 19 9.09976 18.9663 8.66343 18.9013C8.37571 18.8584 8.13018 18.6765 7.98751 18.423L6.87114 16.4395C6.69206 16.1214 6.35382 15.9261 5.98873 15.9301L3.71401 15.955C3.4237 15.9582 3.14389 15.837 2.96277 15.6101C2.40752 14.9144 1.95325 14.1346 1.62217 13.2928C1.51585 13.0225 1.55076 12.7193 1.69876 12.4694L2.85913 10.5094C3.04514 10.1953 3.04514 9.8047 2.85913 9.49053L1.69876 7.53061C1.55076 7.28064 1.51584 6.97749 1.62217 6.70715C1.95325 5.86539 2.40751 5.08558 2.96276 4.38992C3.14388 4.16301 3.42369 4.0418 3.71401 4.04498L5.98873 4.0699ZM12.1234 10C12.1234 11.1723 11.1731 12.1227 10.0007 12.1227C8.82839 12.1227 7.87802 11.1723 7.87802 10C7.87802 8.82766 8.82839 7.87729 10.0007 7.87729C11.1731 7.87729 12.1234 8.82766 12.1234 10Z" fill="#CED0D6"/>
    </symbol>
    <symbol id="ide-icon-interface" viewBox="0 0 16 16">
      <circle cx="8" cy="8" r="6.5" fill="#253627" stroke="#57965C"/>
      <path fill-rule="evenodd" clip-rule="evenodd" d="M10 4.5V5.5L8.5 5.5V10.5H10V11.5L8.5 11.5H7.5L6 11.5V10.5H7.5V5.5L6 5.5V4.5H7.5H8.5H10Z" fill="#57965C"/>
    </symbol>
    <symbol id="ide-icon-library" viewBox="0 0 16 16">
      <path fill-rule="evenodd" clip-rule="evenodd" d="M11 6H14C14.5523 6 15 6.44772 15 7V13C15 13.5523 14.5523 14 14 14H3C2.44772 14 2 13.5523 2 13V5C2 4.44772 2.44772 4 3 4H6V3C6 2.44772 6.44772 2 7 2H10C10.5523 2 11 2.44772 11 3V6ZM10 3H7V13H10V3ZM11 7V13H14V7H11ZM6 5V13H3L3 5H6Z" fill="#CED0D6"/>
      <path d="M7 3H10V13H7V3Z" fill="#43454A"/>
      <path d="M11 13V7H14V13H11Z" fill="#43454A"/>
      <path d="M6 13V5H3V13H6Z" fill="#43454A"/>
    </symbol>
    <symbol id="ide-icon-maven" viewBox="0 0 20 20">
      <path d="M16.4527 4.00125C19.0298 4.00125 19.4775 6.16959 19.0298 8.1234L17.3705 15.6394C17.2512 16.1799 16.6944 16.5259 16.1269 16.4122C15.5594 16.2986 15.1961 15.7683 15.3154 15.2279L16.8792 8.1234C17.5924 5.02524 13.5487 5.40735 11.9081 7.70791L10.1384 15.6449C10.0191 16.1854 9.46236 16.5314 8.89487 16.4177C8.87159 16.4131 8.84866 16.4077 8.82608 16.4017C8.28588 16.2688 7.94593 15.7532 8.06189 15.2279L9.63175 8.11843C9.95857 6.71957 9.28739 6.03165 8.31258 5.91113C7.15227 5.78669 5.563 6.46971 4.67606 7.71342L4.67488 7.70503L4.67296 7.70791L2.89758 15.6526C2.77702 16.1928 2.21945 16.5377 1.65222 16.4228C1.08499 16.308 0.722905 15.777 0.843473 15.2368L3.12863 4.9979C3.2492 4.45768 3.80676 4.11284 4.37399 4.22766C5.0187 4.35817 5.28402 4.94942 5.15978 5.51654C6.34664 4.58145 7.72978 3.9208 9.31082 4.00767C10.8542 4.03868 11.6088 4.86803 11.8556 5.95287C13.2786 4.73635 14.481 4.00125 16.4527 4.00125Z" fill="#CED0D6"/>
    </symbol>
    <symbol id="ide-icon-more-vertical" viewBox="0 0 16 16">
      <circle cx="7.99999" cy="2.60002" r="1.2" fill="white"/>
      <circle cx="7.99999" cy="7.99993" r="1.2" fill="white"/>
      <circle cx="7.99999" cy="13.3998" r="1.2" fill="white"/>
    </symbol>
    <symbol id="ide-icon-problems" viewBox="0 0 20 20">
      <circle cx="10" cy="10" r="8.25" stroke="#CED0D6" stroke-width="1.5"/>
      <path d="M10 6L10 10" stroke="#CED0D6" stroke-width="2" stroke-linecap="round"/>
      <circle cx="10.0008" cy="14" r="1.2" fill="#CED0D6"/>
    </symbol>
    <symbol id="ide-icon-run-green" viewBox="0 0 16 16">
      <path d="M13.5 7.13397C14.1667 7.51888 14.1667 8.48113 13.5 8.86603L4.5 14.0622C3.83333 14.4471 3 13.966 3 13.1962L3 2.80385C3 2.03405 3.83333 1.55292 4.5 1.93782L13.5 7.13397Z" stroke="#5FAD65" stroke-width="1.5"/>
    </symbol>
    <symbol id="ide-icon-debug-green" viewBox="0 0 16 16">
      <path d="M13.842 13.7496C14.2007 13.9567 14.6594 13.8338 14.8665 13.4751C15.0736 13.1164 14.9507 12.6577 14.592 12.4506L13.842 13.7496ZM11.625 12.4696L13.842 13.7496L14.592 12.4506L12.375 11.1706L11.625 12.4696Z" fill="#5FAD65"/>
      <path d="M14.9004 9.74982C15.3146 9.74982 15.6504 9.41403 15.6504 8.99982C15.6504 8.5856 15.3146 8.24982 14.9004 8.24982L14.9004 9.74982ZM12.4004 9.74982L14.9004 9.74982L14.9004 8.24982L12.4004 8.24982L12.4004 9.74982Z" fill="#5FAD65"/>
      <path d="M14.574 5.45965C14.9383 5.26249 15.0738 4.80735 14.8766 4.44307C14.6794 4.07879 14.2243 3.94332 13.86 4.14049L14.574 5.45965ZM12.357 6.65964L14.574 5.45965L13.86 4.14049L11.643 5.34048L12.357 6.65964Z" fill="#5FAD65"/>
      <path d="M2.15489 13.7496C1.79617 13.9567 1.33748 13.8338 1.13037 13.4751C0.923267 13.1164 1.04617 12.6577 1.40489 12.4506L2.15489 13.7496ZM4.375 12.4678L2.15489 13.7496L1.40489 12.4506L3.625 11.1688L4.375 12.4678Z" fill="#5FAD65"/>
      <path d="M1.09961 9.74994C0.685396 9.74994 0.349609 9.41415 0.349609 8.99994C0.349609 8.58573 0.685396 8.24994 1.09961 8.24994L1.09961 9.74994ZM3.59961 9.74994L1.09961 9.74994L1.09961 8.24994L3.59961 8.24994L3.59961 9.74994Z" fill="#5FAD65"/>
      <path d="M1.42328 5.45987C1.05889 5.26291 0.923154 4.80785 1.12011 4.44346C1.31707 4.07907 1.77213 3.94333 2.13652 4.14029L1.42328 5.45987ZM3.64338 6.65985L1.42328 5.45987L2.13652 4.14029L4.35662 5.34027L3.64338 6.65985Z" fill="#5FAD65"/>
      <path d="M10.2434 4.75357C10.3443 4.48836 10.3996 4.20064 10.3996 3.9C10.3996 2.57452 9.32509 1.5 7.99961 1.5C6.67413 1.5 5.59961 2.57452 5.59961 3.9C5.59961 4.22223 5.66311 4.52963 5.77829 4.81036" stroke="#5FAD65" stroke-width="1.5"/>
      <path d="M4 7.5C4 5.84315 5.34315 4.5 7 4.5H9C10.6569 4.5 12 5.84315 12 7.5V10C12 12.2091 10.2091 14 8 14C5.79086 14 4 12.2091 4 10V7.5Z" stroke="#5FAD65" stroke-width="1.5"/>
    </symbol>
    <symbol id="ide-icon-run" viewBox="0 0 20 20">
      <path d="M16.125 8.91699C16.9583 9.39812 16.9583 10.6019 16.125 11.083L5.625 17.1445C4.79176 17.6256 3.75023 17.0246 3.75 16.0625L3.75 3.9375C3.75023 2.97544 4.79176 2.3744 5.625 2.85547L16.125 8.91699Z" stroke="#CED0D6" stroke-width="1.5"/>
    </symbol>
    <symbol id="ide-icon-search" viewBox="0 0 20 20">
      <path fill-rule="evenodd" clip-rule="evenodd" d="M14.5 9C14.5 12.0376 12.0376 14.5 9 14.5C5.96243 14.5 3.5 12.0376 3.5 9C3.5 5.96243 5.96243 3.5 9 3.5C12.0376 3.5 14.5 5.96243 14.5 9ZM13.3584 14.478C12.1625 15.4307 10.6478 16 9 16C5.13401 16 2 12.866 2 9C2 5.13401 5.13401 2 9 2C12.866 2 16 5.13401 16 9C16 10.6478 15.4307 12.1625 14.478 13.3584C14.5086 13.3812 14.5379 13.4065 14.5657 13.4343L18.5657 17.4343C18.8781 17.7467 18.8781 18.2533 18.5657 18.5657C18.2533 18.8781 17.7467 18.8781 17.4343 18.5657L13.4343 14.5657C13.4065 14.5379 13.3812 14.5086 13.3584 14.478Z" fill="#CED0D6"/>
    </symbol>
    <symbol id="ide-icon-source-root" viewBox="0 0 16 16">
      <path d="M2.75 2.5H6.03809C6.16827 2.5 6.29339 2.55085 6.38672 2.6416L8.15137 4.3584L8.29688 4.5H13C13.8284 4.5 14.5 5.17157 14.5 6V12.1338C14.4998 12.9192 13.9103 13.5 13.25 13.5H2.75C2.08968 13.5 1.50023 12.9192 1.5 12.1338V3.86621C1.50023 3.08077 2.08968 2.5 2.75 2.5Z" fill="#25324D" stroke="#548AF7"/>
    </symbol>
    <symbol id="ide-icon-terminal" viewBox="0 0 20 20">
      <path fill-rule="evenodd" clip-rule="evenodd" d="M5.21685 5.62281C5.50975 5.32991 5.98462 5.32991 6.27751 5.62281L9.35472 8.70001L6.27751 11.7772C5.98462 12.0701 5.50975 12.0701 5.21685 11.7772C4.92396 11.4843 4.92396 11.0095 5.21685 10.7166L7.2334 8.70001L5.21685 6.68347C4.92396 6.39057 4.92396 5.9157 5.21685 5.62281Z" fill="#CED0D6"/>
      <path fill-rule="evenodd" clip-rule="evenodd" d="M9.25 12.75C9.25 12.3358 9.58579 12 10 12H14C14.4142 12 14.75 12.3358 14.75 12.75C14.75 13.1642 14.4142 13.5 14 13.5H10C9.58579 13.5 9.25 13.1642 9.25 12.75Z" fill="#CED0D6"/>
      <rect x="1.75" y="2.75" width="16.5" height="14.5" rx="1.25" stroke="#CED0D6" stroke-width="1.5"/>
    </symbol>
    <symbol id="ide-icon-unlocked" viewBox="0 0 16 16">
      <path fill-rule="evenodd" clip-rule="evenodd" d="M10 5C10 3.34315 11.3431 2 13 2C14.6569 2 16 3.34315 16 5V6.5C16 6.77614 15.7761 7 15.5 7C15.2239 7 15 6.77614 15 6.5V5C15 3.89543 14.1046 3 13 3C11.8954 3 11 3.89543 11 5V6C12.1046 6 13 6.89543 13 8V12C13 13.1046 12.1046 14 11 14H5C3.89543 14 3 13.1046 3 12V8C3 6.89543 3.89543 6 5 6H10V5ZM5 7H10.5H11C11.5523 7 12 7.44772 12 8V12C12 12.5523 11.5523 13 11 13H5C4.44772 13 4 12.5523 4 12V8C4 7.44772 4.44772 7 5 7ZM8 8.5C7.72386 8.5 7.5 8.72386 7.5 9V11C7.5 11.2761 7.72386 11.5 8 11.5C8.27614 11.5 8.5 11.2761 8.5 11V9C8.5 8.72386 8.27614 8.5 8 8.5Z" fill="#CED0D6"/>
    </symbol>
    <symbol id="ide-icon-user-add" viewBox="0 0 20 20">
      <path fill-rule="evenodd" clip-rule="evenodd" d="M14 5C14 7.20914 12.2091 9 10 9C7.79086 9 6 7.20914 6 5C6 2.79086 7.79086 1 10 1C12.2091 1 14 2.79086 14 5ZM12.5 5C12.5 6.38071 11.3807 7.5 10 7.5C8.61929 7.5 7.5 6.38071 7.5 5C7.5 3.61929 8.61929 2.5 10 2.5C11.3807 2.5 12.5 3.61929 12.5 5Z" fill="#CED0D6"/>
      <path d="M10 10C11.4178 10 12.5676 10.2859 13.5 10.7496V12.4962C12.692 11.9111 11.5783 11.5 10 11.5C7.73231 11.5 6.42364 12.3487 5.60291 13.3429C4.80556 14.3087 4.39292 15.5112 4.18693 16.5H10V18H4.00001C3.17158 18 2.51162 17.327 2.65711 16.5114C3.06992 14.1974 4.56745 10 10 10Z" fill="#CED0D6"/>
      <path d="M16.5 12.25C16.5 11.8358 16.1642 11.5 15.75 11.5C15.3358 11.5 15 11.8358 15 12.25V15H12.25C11.8358 15 11.5 15.3358 11.5 15.75C11.5 16.1642 11.8358 16.5 12.25 16.5H15V19.25C15 19.6642 15.3358 20 15.75 20C16.1642 20 16.5 19.6642 16.5 19.25V16.5H19.25C19.6642 16.5 20 16.1642 20 15.75C20 15.3358 19.6642 15 19.25 15H16.5V12.25Z" fill="#CED0D6"/>
    </symbol>
    <symbol id="ide-icon-vcs-20" viewBox="0 0 20 20">
      <path fill-rule="evenodd" clip-rule="evenodd" d="M7.5 4.5C7.5 5.60457 6.60457 6.5 5.5 6.5C4.39543 6.5 3.5 5.60457 3.5 4.5C3.5 3.39543 4.39543 2.5 5.5 2.5C6.60457 2.5 7.5 3.39543 7.5 4.5ZM9 4.5C9 6.17556 7.82259 7.57612 6.25 7.91946L6.25 13.25H9.5C10.2092 13.25 10.7035 13.2496 11.0904 13.2232C11.4706 13.1973 11.692 13.1487 11.861 13.0787C12.4124 12.8504 12.8504 12.4124 13.0787 11.861C13.1487 11.692 13.1973 11.4706 13.2232 11.0904C13.244 10.7848 13.2487 10.4121 13.2497 9.91939C11.6773 9.57594 10.5 8.17546 10.5 6.5C10.5 4.567 12.067 3 14 3C15.933 3 17.5 4.567 17.5 6.5C17.5 8.17565 16.3225 9.57626 14.7498 9.91951C14.7488 10.4185 14.7439 10.8379 14.7197 11.1925C14.6886 11.6491 14.6229 12.0528 14.4645 12.4351C14.0839 13.3539 13.3539 14.0839 12.4351 14.4645C12.0528 14.6229 11.6491 14.6886 11.1925 14.7197C10.7485 14.75 10.203 14.75 9.52664 14.75H9.5H6.25V18C6.25 18.4142 5.91421 18.75 5.5 18.75C5.08579 18.75 4.75 18.4142 4.75 18L4.75 7.91946C3.17741 7.57612 2 6.17556 2 4.5C2 2.567 3.567 1 5.5 1C7.433 1 9 2.567 9 4.5ZM16 6.5C16 7.60457 15.1046 8.5 14 8.5C12.8954 8.5 12 7.60457 12 6.5C12 5.39543 12.8954 4.5 14 4.5C15.1046 4.5 16 5.39543 16 6.5Z" fill="#CED0D6"/>
    </symbol>
    <symbol id="ide-icon-vcs" viewBox="0 0 16 16">
      <circle cx="4.5" cy="4" r="2" stroke="#CED0D6"/>
      <path d="M4.5 11.5H8.5C9.60457 11.5 10.5 10.6046 10.5 9.5V8" stroke="#CED0D6"/>
      <path d="M4.5 6.5L4.5 14.5" stroke="#CED0D6" stroke-linecap="round" stroke-linejoin="round"/>
      <circle cx="10.5" cy="6" r="2" stroke="#CED0D6"/>
    </symbol>
  </defs>

  <rect width="1596" height="1020" fill="#0f0f0f"/>

  <g>
    <rect x="30" y="30" width="1536" height="960" rx="9" fill="#1E1F22"/>
    <rect x="30" y="30" width="1536" height="40" rx="9" fill="url(#topbar)"/>
    <rect x="30" y="30" width="620" height="40" fill="url(#topbar-glow)" clip-path="url(#topbar-clip)"/>
    <path d="M30 61C30 66 34 70 39 70H1557C1562 70 1566 66 1566 61V70H30V61Z" fill="#2B2D30"/>
    <line x1="30" y1="70.5" x2="1566" y2="70.5" class="line"/>

    <circle cx="51" cy="50" r="5.5" stroke="#6B7280"/>
    <circle cx="72" cy="50" r="5.5" stroke="#6B7280"/>
    <circle cx="93" cy="50" r="5.5" stroke="#6B7280"/>

    <rect x="124" y="41" width="18" height="18" rx="4" fill="#A76AF4"/>
    <text x="129" y="54" class="ui" fill="#FFFFFF" style="font-size:10px;font-weight:700">CL</text>
    <text x="150" y="54" class="ui" fill="#CBD0DA">code-lens</text>
    <path d="M225.5 48.5L229 52L232.5 48.5" class="chevron-line"/>
    <use href="#ide-icon-vcs" x="248" y="42" width="16" height="16" class="asset-icon"/>
    <text x="270" y="54" class="ui" fill="#CBD0DA">main</text>
    <path d="M312.5 48.5L316 52L319.5 48.5" class="chevron-line"/>

    <text x="1246" y="54" class="ui" fill="#CBD0DA">Current File</text>
    <path d="M1332.5 48.5L1336 52L1339.5 48.5" class="chevron-line"/>
    <use href="#ide-icon-run-green" x="1352" y="41" width="18" height="18" class="asset-icon"/>
    <use href="#ide-icon-debug-green" x="1382" y="41" width="18" height="18" class="asset-icon"/>
    <use href="#ide-icon-more-vertical" x="1418" y="41" width="18" height="18" class="asset-icon"/>
    <use href="#ide-icon-user-add" x="1452" y="41" width="18" height="18" class="asset-icon"/>
    <use href="#ide-icon-search" x="1497" y="41" width="18" height="18" class="asset-icon"/>
    <use href="#ide-icon-gear" x="1537" y="41" width="18" height="18" class="asset-icon"/>

    <g transform="translate(30 70)">
      <rect width="41" height="890" fill="#2B2D30"/>
      <rect x="40" width="1" height="890" fill="#1E1F22"/>
      <rect width="40" height="200" fill="#2B2D30"/>
      <rect x="5" y="5" width="30" height="30" rx="6" fill="#3574F0"/>
      <path d="M13.25 13.25H17.6377C17.6961 13.25 17.753 13.2703 17.7979 13.3076L20.5195 15.5762L20.7285 15.75H27C27.6904 15.75 28.25 16.3096 28.25 17V25.167C28.2498 26.0672 27.5529 26.75 26.75 26.75H13.25C12.4471 26.75 11.7502 26.0672 11.75 25.167V14.833C11.7502 13.9328 12.4471 13.25 13.25 13.25Z" stroke="white" stroke-width="1.5"/>
      <path fill-rule="evenodd" clip-rule="evenodd" d="M17.25 53.5H14C13.7239 53.5 13.5 53.7239 13.5 54V57.25C13.5 57.5261 13.7239 57.75 14 57.75H17.25C17.5261 57.75 17.75 57.5261 17.75 57.25V54C17.75 53.7239 17.5261 53.5 17.25 53.5ZM14 52C12.8954 52 12 52.8954 12 54V57.25C12 58.3546 12.8954 59.25 14 59.25H17.25C18.3546 59.25 19.25 58.3546 19.25 57.25V54C19.25 52.8954 18.3546 52 17.25 52H14ZM17.25 62.25H14C13.7239 62.25 13.5 62.4739 13.5 62.75V66C13.5 66.2761 13.7239 66.5 14 66.5H17.25C17.5261 66.5 17.75 66.2761 17.75 66V62.75C17.75 62.4739 17.5261 62.25 17.25 62.25ZM14 60.75C12.8954 60.75 12 61.6454 12 62.75V66C12 67.1046 12.8954 68 14 68H17.25C18.3546 68 19.25 67.1046 19.25 66V62.75C19.25 61.6454 18.3546 60.75 17.25 60.75H14ZM22.75 62.25H26C26.2761 62.25 26.5 62.4739 26.5 62.75V66C26.5 66.2761 26.2761 66.5 26 66.5H22.75C22.4739 66.5 22.25 66.2761 22.25 66V62.75C22.25 62.4739 22.4739 62.25 22.75 62.25ZM20.75 62.75C20.75 61.6454 21.6454 60.75 22.75 60.75H26C27.1046 60.75 28 61.6454 28 62.75V66C28 67.1046 27.1046 68 26 68H22.75C21.6454 68 20.75 67.1046 20.75 66V62.75Z" fill="#CED0D6"/>
      <path fill-rule="evenodd" clip-rule="evenodd" d="M29.25 99.25C29.6642 99.25 30 99.5858 30 100C30 100.414 29.6642 100.75 29.25 100.75L23.9298 100.75C23.5787 102.601 21.9528 104 20 104C18.0472 104 16.4213 102.601 16.0702 100.75L10.75 100.75C10.3358 100.75 10 100.414 10 100C10 99.5858 10.3358 99.25 10.75 99.25L16.0702 99.25C16.4213 97.3994 18.0472 96 20 96C21.9528 96 23.5787 97.3994 23.9298 99.25L29.25 99.25ZM20 102.5C21.3807 102.5 22.5 101.381 22.5 100C22.5 98.6193 21.3807 97.5 20 97.5C18.6193 97.5 17.5 98.6193 17.5 100C17.5 101.381 18.6193 102.5 20 102.5Z" fill="#CED0D6"/>
      <path d="M15.5 132.25H24.5C25.1904 132.25 25.75 132.81 25.75 133.5V147.45C25.7498 147.658 25.5098 147.775 25.3457 147.646L20.4619 143.832L20 143.471L19.5381 143.832L14.6543 147.646C14.4902 147.775 14.2502 147.658 14.25 147.45V133.5C14.25 132.81 14.8096 132.25 15.5 132.25Z" stroke="#CED0D6" stroke-width="1.5"/>
      <circle cx="13.5" cy="180" r="1.5" transform="rotate(-90 13.5 180)" fill="#CED0D6"/>
      <circle cx="20" cy="180" r="1.5" transform="rotate(-90 20 180)" fill="#CED0D6"/>
      <circle cx="26.5" cy="180" r="1.5" transform="rotate(-90 26.5 180)" fill="#CED0D6"/>
      <rect width="40" height="160" transform="translate(0 730)" fill="#2B2D30"/>
      <path fill-rule="evenodd" clip-rule="evenodd" d="M15.2169 745.623C15.5097 745.33 15.9846 745.33 16.2775 745.623L19.3547 748.7L16.2775 751.777C15.9846 752.07 15.5097 752.07 15.2169 751.777C14.924 751.484 14.924 751.009 15.2169 750.717L17.2334 748.7L15.2169 746.683C14.924 746.391 14.924 745.916 15.2169 745.623Z" fill="#CED0D6"/>
      <path fill-rule="evenodd" clip-rule="evenodd" d="M19.25 752.75C19.25 752.336 19.5858 752 20 752H24C24.4142 752 24.75 752.336 24.75 752.75C24.75 753.164 24.4142 753.5 24 753.5H20C19.5858 753.5 19.25 753.164 19.25 752.75Z" fill="#CED0D6"/>
      <rect x="11.75" y="742.75" width="16.5" height="14.5" rx="1.25" stroke="#CED0D6" stroke-width="1.5"/>
      <path d="M26.125 788.917C26.9583 789.398 26.9583 790.602 26.125 791.083L15.625 797.145C14.7918 797.626 13.7502 797.025 13.75 796.062L13.75 783.937C13.7502 782.975 14.7918 782.374 15.625 782.855L26.125 788.917Z" stroke="#CED0D6" stroke-width="1.5"/>
      <path fill-rule="evenodd" clip-rule="evenodd" d="M17.5 824.5C17.5 825.605 16.6046 826.5 15.5 826.5C14.3954 826.5 13.5 825.605 13.5 824.5C13.5 823.395 14.3954 822.5 15.5 822.5C16.6046 822.5 17.5 823.395 17.5 824.5ZM19 824.5C19 826.176 17.8226 827.576 16.25 827.919L16.25 833.25H19.5C20.2092 833.25 20.7035 833.25 21.0904 833.223C21.4706 833.197 21.692 833.149 21.861 833.079C22.4124 832.85 22.8504 832.412 23.0787 831.861C23.1487 831.692 23.1973 831.471 23.2232 831.09C23.244 830.785 23.2487 830.412 23.2497 829.919C21.6773 829.576 20.5 828.175 20.5 826.5C20.5 824.567 22.067 823 24 823C25.933 823 27.5 824.567 27.5 826.5C27.5 828.176 26.3225 829.576 24.7498 829.92C24.7488 830.419 24.7439 830.838 24.7197 831.193C24.6886 831.649 24.6229 832.053 24.4645 832.435C24.0839 833.354 23.3539 834.084 22.4351 834.465C22.0528 834.623 21.6491 834.689 21.1925 834.72C20.7485 834.75 20.203 834.75 19.5266 834.75H19.5H16.25V838C16.25 838.414 15.9142 838.75 15.5 838.75C15.0858 838.75 14.75 838.414 14.75 838L14.75 827.919C13.1774 827.576 12 826.176 12 824.5C12 822.567 13.567 821 15.5 821C17.433 821 19 822.567 19 824.5ZM26 826.5C26 827.605 25.1046 828.5 24 828.5C22.8954 828.5 22 827.605 22 826.5C22 825.395 22.8954 824.5 24 824.5C25.1046 824.5 26 825.395 26 826.5Z" fill="#CED0D6"/>
      <circle cx="20" cy="870" r="8.25" stroke="#CED0D6" stroke-width="1.5"/>
      <path d="M20 866L20 870" stroke="#CED0D6" stroke-width="2" stroke-linecap="round"/>
      <circle cx="20.0008" cy="874" r="1.2" fill="#CED0D6"/>
    </g>

    <rect x="71" y="70" width="319" height="890" fill="#2B2D30"/>
    <line x1="389.5" y1="70" x2="389.5" y2="960" class="line"/>
    <text x="84" y="94" class="ui" fill="#E3E7EE">Project</text>
    <path d="M156 88.5L159 91.5L162 88.5" class="chevron-line"/>
    <circle cx="268" cy="88" r="7" class="icon-line"/>
    <path d="M268 82V94M262 88H274" class="icon-line"/>
    <path d="M294 85L297 88L294 91M298 85L301 88L298 91" class="chevron-line"/>
    <path d="M319 84L322 87L325 84M319 93L322 90L325 93" class="chevron-line"/>
    <circle cx="346" cy="84" r="1.6" fill="#9DA0A8"/><circle cx="346" cy="90" r="1.6" fill="#9DA0A8"/><circle cx="346" cy="96" r="1.6" fill="#9DA0A8"/>
    <path d="M365 90H377" class="icon-line"/>

    <g class="ui">
      <path d="M93.5 127.5L97 131L100.5 127.5" class="chevron-line"/>
      <use href="#ide-icon-folder" x="106" y="122" width="16" height="16" class="asset-icon"/>
      <text x="131" y="136" fill="#BFC5D0">code-lens</text>
      <text x="205" y="136" class="dim">~/Workspace/code-lens</text>

      <path d="M112.5 153.5L116 157L112.5 160.5" class="chevron-line"/>
      <use href="#ide-icon-folder" x="126" y="148" width="16" height="16" class="asset-icon"/>
      <text x="151" y="162" fill="#BFC5D0">.idea</text>

      <path d="M112.5 181.5L116 185L112.5 188.5" class="chevron-line"/>
      <use href="#ide-icon-folder" x="126" y="175" width="16" height="16" class="asset-icon"/>
      <text x="151" y="189" fill="#BFC5D0">ck-mcp-server</text>

      <path d="M112.5 209.5L116 213L119.5 209.5" class="chevron-line"/>
      <use href="#ide-icon-folder" x="126" y="203" width="16" height="16" class="asset-icon"/>
      <text x="151" y="217" fill="#BFC5D0">code-trails</text>

      <rect x="83" y="224" width="307" height="24" fill="#4B3E22" opacity="0.72"/>
      <path d="M131.5 233.5L135 237L131.5 240.5" class="chevron-line"/>
      <use href="#ide-icon-folder" x="145" y="228" width="16" height="16" class="asset-icon"/>
      <text x="170" y="242" fill="#BFC5D0">.gradle</text>
      <path d="M131.5 261.5L135 265L131.5 268.5" class="chevron-line"/>
      <use href="#ide-icon-folder" x="145" y="256" width="16" height="16" class="asset-icon"/>
      <text x="170" y="270" fill="#BFC5D0">.idea</text>
      <path d="M131.5 289.5L135 293L131.5 296.5" class="chevron-line"/>
      <use href="#ide-icon-folder" x="145" y="284" width="16" height="16" class="asset-icon"/>
      <text x="170" y="298" fill="#BFC5D0">.vscode</text>
      <path d="M131.5 317.5L135 321L131.5 324.5" class="chevron-line"/>
      <use href="#ide-icon-folder" x="145" y="312" width="16" height="16" class="asset-icon"/>
      <text x="170" y="326" fill="#BFC5D0">bin</text>
      <rect x="83" y="335" width="307" height="24" fill="#4B3E22" opacity="0.72"/>
      <path d="M131.5 344.5L135 348L131.5 351.5" class="chevron-line"/>
      <use href="#ide-icon-folder" x="145" y="339" width="16" height="16" class="asset-icon"/>
      <text x="170" y="353" fill="#BFC5D0">build</text>
      <path d="M131.5 372.5L135 376L131.5 379.5" class="chevron-line"/>
      <use href="#ide-icon-folder" x="145" y="367" width="16" height="16" class="asset-icon"/>
      <text x="170" y="381" fill="#BFC5D0">charts</text>
      <path d="M131.5 400.5L135 404L138.5 400.5" class="chevron-line"/>
      <use href="#ide-icon-folder" x="145" y="394" width="16" height="16" class="asset-icon"/>
      <text x="170" y="408" fill="#BFC5D0">src</text>

      <path d="M151.5 427.5L155 431L158.5 427.5" class="chevron-line"/>
      <use href="#ide-icon-source-root" x="164" y="421" width="16" height="16" class="asset-icon"/>
      <text x="188" y="435" fill="#BFC5D0">main</text>
      <path d="M170.5 454.5L174 458L177.5 454.5" class="chevron-line"/>
      <use href="#ide-icon-source-root" x="183" y="448" width="16" height="16" class="asset-icon"/>
      <text x="207" y="462" fill="#BFC5D0">java</text>
      <path d="M189.5 481.5L193 485L196.5 481.5" class="chevron-line"/>
      <use href="#ide-icon-folder" x="202" y="475" width="16" height="16" class="asset-icon"/>
      <text x="226" y="489" fill="#BFC5D0">com.example</text>
      <path d="M208.5 508.5L212 512L215.5 508.5" class="chevron-line"/>
      <use href="#ide-icon-folder" x="221" y="502" width="16" height="16" class="asset-icon"/>
      <text x="245" y="516" fill="#BFC5D0">codetrails</text>
      <path d="M219.5 535.5L223 539L226.5 535.5" class="chevron-line"/>
      <use href="#ide-icon-folder" x="232" y="529" width="16" height="16" class="asset-icon"/>
      <text x="256" y="543" fill="#BFC5D0">orders</text>
      <path d="M231.5 562.5L235 566L238.5 562.5" class="chevron-line"/>
      <use href="#ide-icon-folder" x="244" y="556" width="16" height="16" class="asset-icon"/>
      <text x="268" y="570" fill="#BFC5D0">service</text>
      <rect x="83" y="578" width="307" height="24" rx="3" fill="#4D535D"/>
      <path d="M243.5 589.5L247 593L250.5 589.5" class="chevron-line"/>
      <use href="#ide-icon-folder" x="256" y="583" width="16" height="16" class="asset-icon"/>
      <text x="280" y="597" fill="#D7DBE4">impl</text>
      <use href="#ide-icon-class" x="262" y="610" width="16" height="16" class="asset-icon"/>
      <text x="286" y="624" fill="#FFFFFF" style="font-size:11px;font-weight:600">OrderServiceImpl</text>
      <use href="#ide-icon-interface" x="262" y="638" width="16" height="16" class="asset-icon"/>
      <text x="286" y="652" fill="#D7DBE4" style="font-size:11px">OrderService</text>

      <use href="#ide-icon-application" x="202" y="684" width="16" height="16" class="asset-icon"/>
      <text x="226" y="698" fill="#D7DBE4">CodeTrailsApplication</text>
      <text x="118" y="736" fill="#BFC5D0">agent-universal-base.jar</text>
      <text x="118" y="762" fill="#BFC5D0">build.gradle</text>
      <text x="118" y="788" fill="#BFC5D0">orderdemo-requirements.md</text>
      <use href="#ide-icon-gitignore-dark" x="98" y="810" width="16" height="16" class="asset-icon"/>
      <text x="118" y="824" fill="#BFC5D0">.gitignore</text>
    </g>

    <rect x="390" y="70" width="1134" height="41" fill="#25272B"/>
    <line x1="390" y1="110.5" x2="1524" y2="110.5" class="line"/>
    <g class="ui">
      <rect x="398" y="71" width="238" height="39" fill="#2B2D30"/>
      <line x1="398" y1="108.5" x2="636" y2="108.5" stroke="#548AF7"/>
      <use href="#ide-icon-class" x="408" y="83" width="16" height="16" class="asset-icon"/>
      <text x="427" y="96" fill="#F2F4F8">OrderServiceImpl.java</text>
      <path d="M607 87L613 93M613 87L607 93" stroke="#C3C7D0" stroke-width="1.15"/>
      <circle cx="1504" cy="85" r="1.6" fill="#9DA0A8"/><circle cx="1504" cy="91" r="1.6" fill="#9DA0A8"/><circle cx="1504" cy="97" r="1.6" fill="#9DA0A8"/>
    </g>

    <rect x="390" y="111" width="74" height="849" fill="#1E1F22"/>
    <line x1="463.5" y1="111" x2="463.5" y2="960" class="soft-line"/>
    <rect x="464" y="111" width="1060" height="849" fill="#1F2024"/>
    <g class="mono" fill="#69727D" text-anchor="end">
      <text x="429" y="133">1642</text><text x="429" y="154">1643</text><text x="429" y="175">1644</text><text x="429" y="196">1645</text>
      <text x="429" y="217">1646</text><text x="429" y="238">1647</text><text x="429" y="259">1648</text><text x="429" y="280">1649</text>
      <text x="429" y="301">1650</text><text x="429" y="322">1651</text><text x="429" y="343">1652</text><text x="429" y="364">1653</text>
      <text x="429" y="385">1654</text><text x="429" y="406">1655</text><text x="429" y="427">1656</text><text x="429" y="448">1657</text>
      <text x="429" y="469">1658</text><text x="429" y="490">1659</text><text x="429" y="511">1660</text><text x="429" y="532">1661</text>
      <text x="429" y="553">1662</text><text x="429" y="574">1663</text><text x="429" y="595">1664</text><text x="429" y="616">1665</text>
      <text x="429" y="637">1666</text><text x="429" y="658">1667</text><text x="429" y="679">1668</text><text x="429" y="700">1669</text>
      <text x="429" y="721">1670</text>
    </g>

    <rect x="1524" y="70" width="41" height="890" fill="#2B2D30"/>
    <line x1="1524.5" y1="70" x2="1524.5" y2="960" class="line"/>
    <use href="#ide-icon-user-add" x="1535" y="83" width="20" height="20" class="asset-icon"/>
    <use href="#ide-icon-database" x="1535" y="126" width="20" height="20" class="asset-icon"/>
    <use href="#ide-icon-maven" x="1535" y="164" width="20" height="20" class="asset-icon"/>

    <rect x="30" y="960" width="1536" height="29" fill="#2B2D30"/>
    <line x1="30" y1="960.5" x2="1566" y2="960.5" class="line"/>
    <g class="ui" fill="#9DA0A8">
      <rect x="43" y="968" width="16" height="16" rx="3" fill="#A76AF4"/>
      <text x="47" y="980" fill="#FFFFFF" style="font-size:8px;font-weight:700">CL</text>
      <text x="63" y="981">code-lens</text>
      <text x="118" y="981">›</text>
      <use href="#ide-icon-folder" x="134" y="968" width="16" height="16" class="asset-icon"/>
      <text x="154" y="981">code-trails</text>
      <text x="238" y="981">› src › main › java › com › example › codetrails › orders › service › impl › OrderServiceImpl › getOrderById</text>
      <text x="1400" y="981">86:44</text>
      <text x="1450" y="981">LF</text>
      <text x="1484" y="981">UTF-8</text>
      <use href="#ide-icon-unlocked" x="1539" y="966" width="16" height="16" class="asset-icon"/>
    </g>
  </g>
</svg>
